<svg xmlns="http://www.w3.org/2000/svg"><defs><font id="gothambolditalic" horiz-adv-x="1024"><font-face units-per-em="2048" ascent="1638" descent="-410"/><glyph horiz-adv-x="0"/><glyph horiz-adv-x="682"/><glyph horiz-adv-x="614"/><glyph horiz-adv-x="614"/><glyph horiz-adv-x="614"/><glyph unicode="!" horiz-adv-x="665" d="M18 0l88 328h332L350 0H18zm211 487l146 906 12 41h365l-13-41-338-906H229z"/><glyph unicode="&quot;" horiz-adv-x="1081" d="M203 780l172 654h348l-4-11-354-643H203zm495 0l172 654h349l-5-11-354-643H698z"/><glyph unicode="#" horiz-adv-x="1415" d="M23 307l69 262h189l104 303H195l69 263h213l105 299h270l-104-299h296l105 299h270l-104-299h168l-70-263h-190l-105-303h193l-70-262h-215L920 0H649l107 307H459L352 0H82l106 307H23zm528 262h297l104 303H655z"/><glyph unicode="$" horiz-adv-x="1302" d="M-10 264l229 193q115-130 266-170l97 317q-64 24-110 46t-92 54.5-74.5 70.5-46 90.5T242 983q0 127 74.5 230.5t204 162T807 1434h16l37 118h213l-43-145q183-50 316-186l-213-209q-96 90-189 125l-92-306q79-30 135.5-61.5t102.5-76 69-105 23-137.5q0-132-77-235.5T897 56 606 0h-2l-61-201H330l67 221Q134 74-10 264zm575 752q0-37 24-63.5t85-53.5l80 264q-94-6-141.5-47T565 1016zm111-746q87 8 134.5 46T858 418q0 39-22.5 66T758 537z"/><glyph unicode="%" horiz-adv-x="1802" d="M123 0l1378 1434h266L389 0H123zm49 1024q0 107 48.5 203.5T362 1387t207 63q142 0 229-87.5t87-227.5q0-107-49-203.5T694 772t-207-63q-142 0-228.5 87.5T172 1024zm201 8q0-67 34-106t93-39q80 0 132 75t52 164q0 67-34 106.5t-93 39.5q-80 0-132-75.5T373 1032zm633-733q0 107 48.5 203.5T1196 662t207 63q142 0 228.5-87.5T1718 410q0-107-48.5-203.5T1528 47t-207-63q-142 0-228.5 87.5T1006 299zm200 8q0-67 34-106t93-39q80 0 132.5 75.5T1518 401q0 67-34 106.5t-93 39.5q-80 0-132.5-75.5T1206 307z"/><glyph unicode="&amp;" horiz-adv-x="1425" d="M47 365q0 140 99.5 259T453 811q-76 133-76 248 0 164 126.5 281.5T834 1458q176 0 285.5-97t109.5-247q0-56-19-107.5t-61-104T1029 802t-187-85l162-217q92 99 174 231l190-133q-112-169-223-289l141-190-231-148-115 158Q726-20 502-20 299-20 173 83T47 365zm297 18q0-64 50.5-104.5T537 238q120 0 262 88L578 631q-118-45-176-110.5T344 383zm309 672q0-73 60-162 135 49 185 94t50 109q0 45-34.5 80.5T819 1212q-74 0-120-46.5T653 1055z"/><glyph unicode="'" horiz-adv-x="585" d="M203 780l172 654h348l-4-11-354-643H203z"/><glyph unicode="(" horiz-adv-x="911" d="M119 428q0 336 212 607.5T928 1460l114-231q-293-135-450.5-346T434 438q0-266 254-532L494-293Q313-148 216 34.5T119 428z"/><glyph unicode=")" horiz-adv-x="911" d="M-111-53Q183 82 340.5 293T498 737q0 267-254 533l194 198q182-145 278.5-327.5T813 748q0-336-212-608T4-285z"/><glyph unicode="*" horiz-adv-x="880" d="M225 1094l248 32-197 154 121 121 152-199 33 246 161-43-94-229 232 94 45-164-248-33 196-153-120-121-152 198-33-245-161 43 94 229-232-94z"/><glyph unicode="+" horiz-adv-x="1329" d="M158 580l75 282h371l98 369h291l-98-369h371l-76-282H819l-98-369H430l98 369H158z"/><glyph unicode="," horiz-adv-x="653" d="M-125-203Q110-183 141 0H14l88 328h332L360 51q-53-199-165-288.5T-104-332z"/><glyph unicode="-" horiz-adv-x="843" d="M90 485l80 299h631l-80-299H90z"/><glyph unicode="." horiz-adv-x="653" d="M14 0l88 328h332L346 0H14z"/><glyph unicode="/" horiz-adv-x="1085" d="M-276-262l1394 1896h293L16-262h-292z"/><glyph unicode="0" horiz-adv-x="1495" d="M127 571q0 126 32.5 252.5T258 1064t156.5 202 215 140 265.5 52q252 0 405.5-163T1454 862q0-126-32.5-252.5T1323 369t-156.5-202-215-140T686-25q-252 0-405.5 163T127 571zm324-2q0-150 69.5-229.5T711 260q92 0 173 57t133.5 145.5T1100 657t30 207q0 150-69.5 230T870 1174q-92 0-173-57T563.5 971 481 776t-30-207z"/><glyph unicode="1" horiz-adv-x="888" d="M195 0l297 1110-261-59-4 268 451 125h215L506 0H195z"/><glyph unicode="2" horiz-adv-x="1257" d="M-61 0L8 258l725 500q108 75 158.5 137t50.5 129q0 70-48 108.5T762 1171q-89 0-169.5-45T420 993l-193 201q229 260 549 260 221 0 355.5-110t134.5-285q0-135-74.5-244T928 575L485 272h602L1014 0H-61z"/><glyph unicode="3" horiz-adv-x="1236" d="M-35 248l234 172q61-82 132.5-122T510 258q113 0 191.5 60.5T780 459q0 82-74 126t-206 44h-88l-13 196 422 338H279l73 271h969l-66-238-462-352q305-73 305-357 0-143-78.5-260t-217-184.5T496-25Q123-25-35 248z"/><glyph unicode="4" horiz-adv-x="1349" d="M33 543l989 901h307l-235-879h192l-69-256h-193L942 0H645l82 309H63zm399 22h365l123 459z"/><glyph unicode="5" horiz-adv-x="1249" d="M-18 233l221 187q146-158 336-158 125 0 207.5 65.5T829 485q0 81-68 133t-198 52q-88 0-192-45L211 754l223 680h869l-76-277H643l-82-244q80 17 146 17 198 0 322-112t124-298q0-107-46-205T979.5 142t-203-120T512-23q-154 0-305 73.5T-18 233z"/><glyph unicode="6" horiz-adv-x="1316" d="M121 510q0 209 72.5 403.5T401 1243q101 101 234 158t287 57q261 0 442-166l-182-227q-124 111-287 111-166 0-279-113-98-98-147-252 49 49 141.5 85T799 932q122 0 219.5-45.5t157-138T1235 532q0-107-46.5-208.5T1063 145 873 21.5 641-25Q526-25 429 8.5T268 106Q121 253 121 510zm299-78q0-76 53-129 61-61 168-61 120 0 198.5 75T918 489q0 87-60 138t-156 51q-124 0-203-72t-79-174z"/><glyph unicode="7" horiz-adv-x="1247" d="M18 0l891 1161H250l74 273h1032l-66-238L389 0H18z"/><glyph unicode="8" horiz-adv-x="1355" d="M66 385q0 156 99 253t267 138q-83 42-128.5 116T258 1053q0 72 35 141.5t99.5 128.5 170 95 234.5 36q223 0 365.5-108.5T1305 1069q0-134-83.5-228.5T991 711q101-38 160-116.5t59-188.5q0-82-41-158t-115.5-136-189-96T614-20q-148 0-272.5 49t-200 143T66 385zm307 27q-2-77 70-128t188-51q117 0 194 52t78 137q2 77-70 126.5T643 598q-117 0-192.5-53T373 412zm176 608q-2-72 60.5-120T774 852q99 0 166.5 51.5T1010 1030q2 71-59 118.5T782 1196q-97 0-164.5-50.5T549 1020z"/><glyph unicode="9" horiz-adv-x="1316" d="M27 158l184 227q74-63 145.5-95T514 258q164 0 281 117 94 94 139 231-49-49-139.5-84T608 487q-189 0-312.5 106.5T172 893q0 154 78.5 284T466 1382.5t300 75.5q108 0 210.5-33.5T1141 1329q74-74 110.5-177t36.5-257q0-196-75-383t-212-324Q788-25 498-25 232-25 27 158zm462 776q0-91 61-142t159-51q123 0 200.5 74T987 995q0 84-51 135-62 62-168 62-123 0-201-75.5T489 934z"/><glyph unicode=":" horiz-adv-x="653" d="M14 0l88 328h332L346 0H14zm207 770l88 328h332l-88-328H221z"/><glyph unicode=";" horiz-adv-x="653" d="M-125-203Q110-183 141 0H14l88 328h332L360 51q-53-199-165-288.5T-104-332zm346 973l88 328h332l-88-328H221z"/><glyph unicode="&lt;" horiz-adv-x="1310" d="M147 580l76 282 1108 434-84-303-768-284 617-285-74-279z"/><glyph unicode="=" horiz-adv-x="1310" d="M111 313l75 283h971l-76-283H111zm143 533l76 282h970l-75-282H254z"/><glyph unicode="&gt;" horiz-adv-x="1310" d="M66 145l84 304 768 284-617 285 74 278 874-434-75-282z"/><glyph unicode="?" horiz-adv-x="1114" d="M176 0l88 328h332L508 0H176zm23 1251q96 98 227.5 149.5T698 1452q208 0 332.5-109.5T1155 1079q0-180-133-294T631 631l-60-144H362l41 332 13 10q198 14 303.5 67T825 1038q0 60-42.5 93.5T655 1165q-73 0-150-32t-143-89z"/><glyph unicode="@" horiz-adv-x="2007" d="M113 477q0 156 49.5 304.5t141 271T517 1268t275.5 144.5T1110 1464q151 0 283.5-37t231-103.5 170-154.5 108-192.5T1939 760q0-156-41-279t-110.5-197.5T1633 171t-179-38q-102 0-177 42.5T1169 291q-156-160-327-160-141 0-235.5 92.5T512 477q0 120 44.5 227t117 180 165 115.5T1026 1042q180 0 268-143l39 127 228-63-162-510q-34-108 1-166t118-58q56 0 114 35.5t108 99.5 81.5 168 31.5 228q0 125-52 237.5t-146 198-235.5 136T1110 1382q-188 0-358.5-74T460 1110.5 268 821t-71-344q0-156 56.5-289t157-226.5T654-185t311-53q210 0 419 93l33-72q-214-100-452-100-186 0-344.5 59t-270 163T176 157t-63 320zm659 37q0-82 46-129t126-47q107 0 195 97t88 229q0 76-49.5 123T1049 834q-106 0-191.5-95T772 514z"/><glyph unicode="A" horiz-adv-x="1566" d="M-117 0L885 1444h303L1415 0h-323l-45 322H440L223 0h-340zm746 600h381l-66 473z"/><glyph unicode="B" horiz-adv-x="1468" d="M25 0l385 1434h557q241 0 363-99t122-254q0-139-82.5-230.5T1145 727q201-93 201-291 0-197-162.5-316.5T729 0H25zm381 276h370q118 0 187 49t69 132q0 64-50.5 99.5T836 592H489zm155 578h318q124 0 191 43.5t67 130.5q0 59-49.5 94T938 1157H641z"/><glyph unicode="C" horiz-adv-x="1486" d="M137 600q0 113 31.5 222.5T256 1026t136.5 174.5 176 137 209 88.5 232.5 32q386 0 573-305l-260-182q-45 64-90.5 104.5t-112 66T971 1167q-97 0-189.5-44.5t-162-118.5-112-177T465 612q0-154 97.5-250T815 266q97 0 172 34.5T1151 408l205-213Q1243 90 1112.5 32.5T813-25q-297 0-486.5 171T137 600z"/><glyph unicode="D" horiz-adv-x="1591" d="M25 0l385 1434h417q377 0 562-185 155-155 155-420 0-330-235-565Q1045 0 557 0H25zm391 285h178q145 0 269.5 44.5T1073 459q144 144 144 358 0 143-84 227-105 105-330 105H649z"/><glyph unicode="E" horiz-adv-x="1361" d="M25 0l385 1434h1071l-76-281H647l-78-293h666l-76-276H494l-82-303h770L1106 0H25z"/><glyph unicode="F" horiz-adv-x="1357" d="M25 0l385 1434h1091l-78-287H647l-82-305h684l-75-287H489L340 0H25z"/><glyph unicode="G" horiz-adv-x="1597" d="M135 598q0 166 68 322.5t185 275T673.5 1386t356.5 72q211 0 356.5-69t229.5-179l-234-206q-151 165-376 165-150 0-275.5-77.5T534 885t-71-277q0-162 103.5-253T829 264q137 0 256 55l68 234H836l73 272h623l-203-714Q1089-25 809-25 709-25 613-2T430 71.5t-152.5 122-104 176T135 598z"/><glyph unicode="H" horiz-adv-x="1548" d="M25 0l385 1434h315L573 866h574l151 568h316L1229 0H913l156 575H496L340 0H25z"/><glyph unicode="I" horiz-adv-x="688" d="M39 0l385 1434h315L354 0H39z"/><glyph unicode="J" horiz-adv-x="1177" d="M-80 219l223 195q60-75 121.5-108.5T401 272q113 0 193 80 36 36 62 95.5T719 645l211 789h323l-231-865q-45-173-89.5-267T813 133Q660-20 385-20q-141 0-265 61T-80 219z"/><glyph unicode="K" horiz-adv-x="1488" d="M25 0l385 1434h315L555 799l709 635h426L991 834 1329 0H983L741 645 444 391 340 0H25z"/><glyph unicode="L" horiz-adv-x="1282" d="M25 0l385 1434h315L418 287h715L1055 0H25z"/><glyph unicode="M" horiz-adv-x="1777" d="M25 0l385 1434h327l207-607 535 607h364L1458 0h-319l250 936-562-612h-8L590 930 340 0H25z"/><glyph unicode="N" horiz-adv-x="1609" d="M25 0l385 1434h290l418-912 246 912h311L1290 0h-268L588 940 336 0H25z"/><glyph unicode="O" horiz-adv-x="1703" d="M137 610q0 160 63.5 313t174 271.5 274 191T999 1458q145 0 268.5-49t208-133.5 132-201.5 47.5-251q0-160-63.5-313t-174-271.5-274-191T793-25q-145 0-268.5 49t-208 133.5-132 201.5T137 610zm328 21q0-164 95.5-264.5T829 266q87 0 167 32t139 86 103 123 66.5 145.5T1327 803q0 164-95.5 264T963 1167q-109 0-204.5-49T600 991.5t-99-172T465 631z"/><glyph unicode="P" horiz-adv-x="1390" d="M25 0l385 1434h454q156 0 265-34.5t186-111.5q110-110 110-295 0-173-93-301.5t-249.5-193T729 434H457L340 0H25zm505 711h215q159 0 255 68t96 188q0 71-47 118-64 64-197 64H647z"/><glyph unicode="Q" horiz-adv-x="1703" d="M137 610q0 160 63.5 313t174 271.5 274 191T999 1458q145 0 268.5-49t208-133.5 132-201.5 47.5-251q0-163-63.5-316.5T1411 233l115-151-260-172-95 151Q997-25 793-25q-145 0-268.5 49t-208 133.5-132 201.5T137 610zm328 21q0-164 95.5-264.5T829 266q96 0 181 37L825 553l260 174 146-233q96 148 96 309 0 164-95.5 264T963 1167q-109 0-204.5-49T600 991.5t-99-172T465 631z"/><glyph unicode="R" horiz-adv-x="1488" d="M25 0l385 1434h522q310 0 454-144 111-111 111-289 0-195-118-326.5T1034 489L1278 0H920L698 459H463L340 0H25zm514 737h280q154 0 251 62t97 176q0 70-45 115-59 59-209 59H649z"/><glyph unicode="S" horiz-adv-x="1302" d="M-20 244l237 200q87-95 184-141.5T618 256q96 0 158 41.5T838 406q0 53-50 91.5T594 594q-62 25-109 49t-95 59-78.5 73.5-50 91.5T242 981q0 107 45.5 197T411 1328t181.5 93 218.5 33q337 0 537-213l-218-217q-87 79-165.5 116.5T786 1178q-95 0-151.5-44T578 1032q0-55 49-90t202-98q64-26 112-51t94-59.5 75-73 46.5-90.5 17.5-113q0-145-80.5-255.5T885 35.5 604-20Q185-20-20 244z"/><glyph unicode="T" horiz-adv-x="1269" d="M197 1143l77 291h1188l-78-291H948L641 0H326l307 1143H197z"/><glyph unicode="U" horiz-adv-x="1564" d="M166 461q0 107 35 229l198 744h316L508 662q-23-81-23-156 0-108 65.5-173T735 268q141 0 234 90 93 93 139 267l217 809h315l-229-854q-74-279-221-426Q1013-23 702-23q-250 0-393 128T166 461z"/><glyph unicode="V" horiz-adv-x="1482" d="M256 1434h338l98-1000 635 1000h354L721-10H442z"/><glyph unicode="W" horiz-adv-x="2269" d="M266 1434h328l37-971 577 975h271l65-975 557 971h357L1581-10h-293l-69 919L657-10H369z"/><glyph unicode="X" horiz-adv-x="1433" d="M-104 0l692 743-307 691h354l180-461 402 461h403L946 709 1264 0H909L717 481 299 0h-403z"/><glyph unicode="Y" horiz-adv-x="1331" d="M201 1434h350l168-594 491 594h381L807 537 662 0H346l152 565z"/><glyph unicode="Z" horiz-adv-x="1411" d="M-39 0l64 240 1007 917H295l76 277h1163l-66-240L461 276h768L1155 0H-39z"/><glyph unicode="[" horiz-adv-x="952" d="M-20-266l456 1700h662l-66-244H670L344-23h363l-66-243H-20z"/><glyph unicode="\" horiz-adv-x="1085" d="M242 1634h258L926-262H668z"/><glyph unicode="]" horiz-adv-x="952" d="M-127-266l66 243h362l326 1213H264l66 244h661L535-266h-662z"/><glyph unicode="^" d="M172 1010l418 424h213l188-424H788l-122 239-250-239H172z"/><glyph unicode="_" horiz-adv-x="1228" d="M-236-328l64 238h1237l-64-238H-236z"/><glyph unicode="`" d="M514 1464l274 117 134-362H709z"/><glyph unicode="a" horiz-adv-x="1204" d="M14 274q0 185 133.5 290.5T487 670q155 0 310-49l4 14q12 50 12 82 0 129-207 129-148 0-293-60l-49 246q188 78 408 78 219 0 331.5-87.5T1116 772q0-72-24-166L930 0H629l33 127Q524-20 334-20q-142 0-231 82.5T14 274zm310 35q0-52 39-84t104-32q94 0 171.5 64.5T743 414l9 28q-103 39-205 39-98 0-160.5-47T324 309z"/><glyph unicode="b" horiz-adv-x="1380" d="M-6 0l397 1495h311L565 979q75 70 148 104.5t161 34.5q185 0 303.5-126.5T1296 647q0-142-51.5-268T1109 166.5 915 30 690-20q-123 0-204.5 46T346 160L303 0H-6zm420 475q0-104 66-168.5T649 242q129 0 227.5 111.5T975 627q0 106-62.5 167.5T745 856q-131 0-231-113T414 475z"/><glyph unicode="c" horiz-adv-x="1146" d="M86 471q0 175 88 324.5t237 236 322 86.5q311 0 451-241L946 709q-31 47-59 75.5t-73.5 48T709 852q-124 0-220-115t-96-266q0-104 61-167.5T608 240q69 0 126 26t122 82l160-203Q921 60 825 17.5T598-25q-226 0-369 136.5T86 471z"/><glyph unicode="d" horiz-adv-x="1380" d="M82 451q0 142 51.5 268T269 931.5 463 1068t225 50q123 0 204.5-46T1032 938l148 557h311L1092 0H780l33 119Q738 49 665 14.5T504-20q-185 0-303.5 126.5T82 451zm321 20q0-106 62.5-167.5T633 242q131 0 231.5 113T965 623q0 104-66.5 168.5T729 856q-129 0-227.5-111.5T403 471z"/><glyph unicode="e" horiz-adv-x="1243" d="M84 463q0 95 29.5 189.5t87 178 135 148 181.5 102 218 37.5q209 0 329-120t120-308q0-116-56-250H377q8-101 69.5-158T627 225q117 0 243 88l144-192Q840-25 592-25q-236 0-372 130.5T84 463zm319 172h478q10 33 10 72 0 72-44.5 116.5T711 868q-104 0-186.5-63.5T403 635z"/><glyph unicode="f" horiz-adv-x="841" d="M47 0l225 831H141l72 267h129l14 59q91 352 445 352 128 0 213-30l-68-258q-67 26-135 26-120 0-154-119l-8-30h264l-71-267H584L358 0H47z"/><glyph unicode="g" horiz-adv-x="1374" d="M-68-178L96 35q87-57 190.5-89T492-86q149 0 237 88 60 60 100 197l11 37q-88-78-166.5-112T496 90q-108 0-199.5 42.5T146.5 264 88 473q0 134 51.5 255t135 205.5 192 134.5 221.5 50q68 0 123-15t94-43 66.5-59.5T1022 928l45 170h311l-235-883q-43-162-84-244.5T950-180Q798-332 512-332q-166 0-319 40.5T-68-178zm478 710q0-94 56.5-144T618 338q130 0 227 94.5T942 657q0 93-59 147t-158 54q-129 0-222-98.5T410 532z"/><glyph unicode="h" horiz-adv-x="1273" d="M-6 0l397 1495h311L567 983q150 135 299 135t236.5-85.5T1190 799q0-65-37-209L995 0H684l162 602q14 54 14 98 0 66-39.5 101T709 836q-89 0-150-59t-88-161L305 0H-6z"/><glyph unicode="i" horiz-adv-x="618" d="M6 0l295 1098h311L317 0H6zm320 1219l75 276h328l-76-276H326z"/><glyph unicode="j" horiz-adv-x="616" d="M-264-317l65 243q42-10 76-10 51 0 90 39.5T25 66l276 1032h311L326 27q-53-194-160-277.5T-94-334q-90 0-170 17zm590 1536l73 276h328l-74-276H326z"/><glyph unicode="k" horiz-adv-x="1210" d="M-6 0l401 1495h312L498 721l444 377h406L817 670 1057 0H709L553 465 395 338 305 0H-6z"/><glyph unicode="l" horiz-adv-x="618" d="M6 0l402 1495h311L317 0H6z"/><glyph unicode="m" horiz-adv-x="1943" d="M-6 0l293 1098h311l-31-115q70 63 138.5 99t152.5 36q110 0 184-52.5T1149 920q162 198 393 198 148 0 233-85t85-234q0-65-37-209L1665 0h-311l162 602q14 54 14 98 0 66-37 101t-109 35q-89 0-147-58.5T1151 616L985 0H674l162 602q14 54 14 98 0 136-145 136-89 0-148-58.5T471 616L305 0H-6z"/><glyph unicode="n" horiz-adv-x="1267" d="M-6 0l293 1098h311l-31-115q150 135 299 135t236.5-85.5T1190 799q0-65-37-209L995 0H684l162 602q14 54 14 98 0 66-39.5 101T709 836q-89 0-150-59t-88-161L305 0H-6z"/><glyph unicode="o" horiz-adv-x="1335" d="M86 483q0 121 50.5 237T271 923.5t202.5 141T721 1118q241 0 384.5-142.5T1249 610q0-121-50.5-237T1064 169.5t-202.5-141T614-25q-241 0-384.5 142.5T86 483zm305 9q0-118 65-184t173-66q90 0 164.5 58T906 440t38 162q0 118-64.5 184T707 852q-68 0-129-34t-101-87.5T414 614t-23-122z"/><glyph unicode="p" horiz-adv-x="1380" d="M-94-328l381 1426h311l-33-119q75 70 148 104.5t161 34.5q185 0 303.5-126.5T1296 647q0-142-51.5-268T1109 166.5 915 30 690-20q-123 0-204.5 46T346 160L217-328H-94zm508 803q0-104 66-168.5T649 242q129 0 227.5 111.5T975 627q0 106-62.5 167.5T745 856q-131 0-231-113T414 475z"/><glyph unicode="q" horiz-adv-x="1380" d="M82 451q0 142 51.5 268T269 931.5 463 1068t225 50q123 0 204.5-46T1032 938l41 160h311L983-410H672l141 529Q738 49 665 14.5T504-20q-185 0-303.5 126.5T82 451zm321 20q0-106 62.5-167.5T633 242q131 0 231.5 113T965 623q0 104-66.5 168.5T729 856q-129 0-227.5-111.5T403 471z"/><glyph unicode="r" horiz-adv-x="858" d="M-6 0l293 1098h311l-59-221q88 127 188 189 86 53 193 53 17 0 36-1l-88-325h-16q-334 0-442-404L305 0H-6z"/><glyph unicode="s" d="M-49 174l180 186q147-147 336-147 62 0 96.5 25t34.5 71q0 29-31.5 52T471 412q-63 27-100.5 45.5T286 506t-72.5 60-43.5 73-18 94q0 168 120 276.5T592 1118q125 0 241.5-45.5T1024 961L856 764Q708 881 569 881q-57 0-88.5-25T449 788q0-30 34-55t111-59q53-23 87.5-40.5t79-47 70.5-59 45-72.5 19-93q0-177-125.5-282T444-25q-132 0-266.5 51T-49 174z"/><glyph unicode="t" horiz-adv-x="849" d="M113 197q0 55 20 137l133 497H135l72 267h131l76 280h311l-76-280h258l-71-267H578L455 371q-9-36-9-49 0-66 84-66 82 0 160 35L618 27q-95-45-225-45-136 0-208 60t-72 155z"/><glyph unicode="u" horiz-adv-x="1273" d="M84 299q0 65 37 209l158 590h311L428 496q-14-54-14-99 0-66 39.5-100.5T565 262q89 0 150 58.5T803 481l166 617h311L987 0H676l31 115Q557-20 408-20T171.5 65.5 84 299z"/><glyph unicode="v" horiz-adv-x="1212" d="M174 1098h320l49-731 436 731h334L590-8H307z"/><glyph unicode="w" horiz-adv-x="1755" d="M182 1098h316l-2-666 385 670h268l29-672 360 668h309L1208-8H928l-31 674L502-8H223z"/><glyph unicode="x" horiz-adv-x="1183" d="M-102 0l536 573-239 525h331l123-307 258 307h371L764 543 1006 0H674L547 326 268 0h-370z"/><glyph unicode="y" horiz-adv-x="1212" d="M-82-258L84-33q57-43 121-43 37 0 63.5 14T326-8L190 1098h318l51-746 412 746h336L627-27Q520-194 417-264t-243-70q-146 0-256 76z"/><glyph unicode="z" horiz-adv-x="1140" d="M-55 0L4 219l719 627H190l68 252h930l-60-219-720-627h559L899 0H-55z"/><glyph unicode="{" horiz-adv-x="1003" d="M90 469l64 238h65q76 0 122.5 11.5t81.5 47 54.5 95T510 1020q29 232 164 336.5t413 107.5l21-209q-97-9-157.5-29t-96.5-59.5-52-89.5-24-131q-15-140-56.5-221t-106-116T444 563q83-12 128.5-61T618 381q0-64-36-158-35-98-35-143 0-64 37-101t149-77L631-289q-203 39-292 114.5T250 25q0 69 41 176 33 87 33 145 0 32-5 51t-21 37.5-51 26.5-91 8H90z"/><glyph unicode="|" horiz-adv-x="716" d="M270-262v1896h246V-262H270z"/><glyph unicode="}" horiz-adv-x="1003" d="M-84-80q97 9 157 29t96 59.5 52 89T246 229q15 140 56.5 221t106 116T580 612q-83 12-128.5 61.5T406 795q0 63 36 157 35 94 35 144 0 64-37 101t-149 77l102 190q203-39 292-114t89-199q0-69-41-176-33-87-33-146 0-32 5-51t21-37 51-26 91-8h66l-64-238h-65q-76 0-122.5-12t-82-46.5T546 316t-32-160Q485-76 350-181T-63-289z"/><glyph unicode="~" horiz-adv-x="1044" d="M113 532q56 125 137 199t176 74q50 0 85.5-15t76.5-45q43-31 64-42t44-11q44 0 77.5 31t66.5 90l164-82q-56-125-137.5-198.5T690 459q-50 0-84.5 14.5T528 518q-43 31-64 42t-44 11q-44 0-77.5-31T276 451z"/><glyph unicode="¡" horiz-adv-x="665" d="M2 0l12 41 338 905h172L379 41 367 0H2zm313 1106l88 328h332l-88-328H315z"/><glyph unicode="¢" horiz-adv-x="1200" d="M135 668q0 132 50 249t136.5 200.5 206.5 132 256 48.5q36 0 54-2l57 150h213l-76-193q153-65 232-202l-236-164q-46 71-106 106L698 422q73 1 133.5 26T954 522l164-211Q945 156 700 156q-48 0-94 6L539-12H326l88 225q-132 62-205.5 179.5T135 668zm305 4q0-122 86-195l217 553q-131-13-217-119.5T440 672z"/><glyph unicode="£" horiz-adv-x="1318" d="M-27 0l56 207 170 51 77 289H121l69 260h156l51 192q53 199 164 310 145 145 383 145 302 0 438-246l-252-172q-39 64-86.5 95.5T922 1163q-83 0-140-57-56-56-84-160l-39-139h474l-70-260H592l-74-275h627L1071 0H-27z"/><glyph unicode="¤" horiz-adv-x="1474" d="M49 444l55 207h154q9 72 27 140H141l56 206h149q93 209 267.5 335t402.5 126q400 0 518-334l-268-133q-30 63-62.5 101t-83 60-121.5 22q-191 0-301-177h396l-56-206H621q-21-60-35-140h415l-55-207H584q20-90 82-137t151-47q87 0 152.5 33.5T1106 403l213-184Q1115-25 811-25q-232 0-380.5 126.5T254 444H49z"/><glyph unicode="¥" horiz-adv-x="1456" d="M102 188l60 222h377l32 127H195l59 221h293l-256 676h340l172-531 461 531h374l-624-676h297l-60-221H874l-32-127h377l-60-222H782L731 0H428l51 188H102z"/><glyph unicode="§" horiz-adv-x="1294" d="M98 172l195 172q58-58 137.5-93.5T596 215q66 0 104.5 21.5T739 293q0 33-43 55t-166 55q-73 20-121.5 36t-103 41.5-86.5 54-53 69.5-21 92q0 101 71 171.5T424 967q-74 71-74 170 0 139 130 230t327 91q156 0 281.5-50t199.5-140l-194-172q-58 58-137.5 93.5T791 1225q-66 0-105-21.5t-39-56.5q0-33 43.5-55.5T856 1036q73-20 121.5-36t103-41.5 86.5-54 53-69.5 21-92q0-101-70.5-171T963 473q73-70 73-170 0-139-129.5-230T580-18q-156 0-282 50T98 172zm338 578q0-39 40.5-64T612 633q139-43 205-43 54 0 93.5 29t39.5 71q0 39-40.5 64T774 807q-139 43-205 43-54 0-93.5-29T436 750z"/><glyph unicode="¨" d="M322 1219l75 276h299l-75-276H322zm438 0l76 276h299l-76-276H760z"/><glyph unicode="©" horiz-adv-x="1699" d="M152 715q0 150 58 287t157 237 237 159.5 291 59.5 290.5-59 235.5-158 155.5-235.5T1634 719q0-200-98-371T1266.5 76 891-25 516.5 75 249 345t-97 370zm86 0q0-180 84.5-331t235-239T891 57q138 0 260.5 52.5t209 141.5 137 211 50.5 257-50 256.5-136 209.5-208 139.5-259 51.5q-138 0-260.5-52.5t-209-141-137-210.5T238 715zm260 10q0 172 115.5 291T907 1135q106 0 178.5-31t133.5-90l-113-131q-98 88-199 88-97 0-161-71t-64-173 63.5-173T907 483q61 0 106 22.5t97 69.5l115-114q-66-71-141-106.5T901 319q-172 0-287.5 117.5T498 725z"/><glyph unicode="ª" horiz-adv-x="798" d="M104 567l37 135h545l-37-135H104zm105 414q0 102 73.5 160.5T469 1200q83 0 172-29l4 15q6 18 6 35 0 75-116 75-84 0-160-32l-29 135q100 43 225 43 120 0 182-48.5t62-138.5q0-47-12-90l-90-334H547l18 70q-79-82-180-82-78 0-127 45.5T209 981zm170 20q0-28 22-46.5t58-18.5q52 0 95.5 36t55.5 87l4 16q-61 21-112 21-55 0-89-26t-34-69z"/><glyph unicode="«" horiz-adv-x="1316" d="M94 522l4 17 486 477 178-164-361-350 164-328L315 63zm553 0l4 17 486 477 178-164-361-350 164-328L868 63z"/><glyph unicode="­" horiz-adv-x="843" d="M90 485l80 299h631l-80-299H90z"/><glyph unicode="®" horiz-adv-x="1699" d="M152 715q0 150 58 287t157 237 237 159.5 291 59.5 290.5-59 235.5-158 155.5-235.5T1634 719q0-200-98-371T1266.5 76 891-25 516.5 75 249 345t-97 370zm86 0q0-180 84.5-331t235-239T891 57q138 0 260.5 52.5t209 141.5 137 211 50.5 257-50 256.5-136 209.5-208 139.5-259 51.5q-138 0-260.5-52.5t-209-141-137-210.5T238 715zm350-371v789h350q142 0 225.5-69.5T1247 872q0-93-45.5-154.5T1077 627l193-283h-203L899 598H762V344H588zm174 404h174q65 0 100 31t35 83q0 57-36.5 87T932 979H762V748z"/><glyph unicode="¯" d="M326 1229l57 215h737l-57-215H326z"/><glyph unicode="°" horiz-adv-x="911" d="M180 1059q0 102 51.5 192t142 145.5T571 1452q150 0 240-88t90-227q0-102-51.5-192.5t-142-146T510 743q-150 0-240 88.5T180 1059zm182 6q0-72 42.5-117T516 903q86 0 144.5 71t58.5 156q0 72-42.5 117T565 1292q-86 0-144.5-71T362 1065z"/><glyph unicode="±" horiz-adv-x="1271" d="M-27 250l234 176q68-83 148-125.5T547 258q121 0 190.5 56T807 444q0 150-232 150H420l69 260h166q115 0 193 48t78 134q0 62-54 101t-135 39q-90 0-160-35.5T422 1028l-174 199q110 113 234.5 172t291.5 59q218 0 346.5-107.5T1249 1085q0-133-81-227T930 719q82-34 138-108t56-175q0-198-166.5-329.5T524-25Q415-25 323-2T165 62 53 149t-80 101z"/><glyph unicode="´" d="M426 1219l330 362 262-117-330-245H426z"/><glyph unicode="µ" horiz-adv-x="1703" d="M137 610q0 160 63.5 313t174 271.5 274 191T999 1458q145 0 268.5-49t208-133.5 132-201.5 47.5-251q0-163-63.5-316.5T1411 233l115-151-260-172-95 151Q997-25 793-25q-145 0-268.5 49t-208 133.5-132 201.5T137 610zm328 21q0-164 95.5-264.5T829 266q96 0 181 37L825 553l260 174 146-233q96 148 96 309 0 164-95.5 264T963 1167q-109 0-204.5-49T600 991.5t-99-172T465 631z"/><glyph unicode="¶" horiz-adv-x="1226" d="M178 868q0 121 44.5 222.5t131.5 179 227 121 320 43.5h391L907 0H594l115 434q-255 5-393 113.5T178 868z"/><glyph unicode="·" horiz-adv-x="653" d="M131 471l88 328h332l-88-328H131z"/><glyph unicode="¸" d="M90-246L344 20h229L322-354z"/><glyph unicode="º" horiz-adv-x="823" d="M104 567l37 135h570l-37-135H104zm109 529q0 139 101.5 243.5T561 1444q132 0 211.5-78t79.5-201q0-139-101.5-243.5T504 817q-132 0-211.5 78T213 1096zm168 6q0-62 35.5-100.5T510 963q76 0 125 61t49 135q0 62-35.5 100.5T555 1298q-76 0-125-61t-49-135z"/><glyph unicode="»" horiz-adv-x="1316" d="M-2 227l360 351-163 327 249 111 222-459-4-16L176 63zm553 0l360 351-163 327 249 111 222-459-5-16L729 63z"/><glyph unicode="¿" horiz-adv-x="1114" d="M49 354q0 180 133 294.5T573 803l60 143h209l-41-332-13-10q-198-14-303.5-67T379 395q0-60 42.5-93.5T549 268q73 0 150 32t143 89l164-207Q910 85 778 33.5T506-18Q298-18 173.5 91T49 354zm559 752l88 328h332l-88-328H608z"/><glyph unicode="À" horiz-adv-x="1566" d="M-117 0L885 1444h303L1415 0h-323l-45 322H440L223 0h-340zm746 600h381l-66 473zm123 1192l274 117 133-363H946z"/><glyph unicode="Á" horiz-adv-x="1566" d="M-117 0L885 1444h303L1415 0h-323l-45 322H440L223 0h-340zm746 600h381l-66 473zm243 946l330 363 262-117-329-246H872z"/><glyph unicode="Â" horiz-adv-x="1566" d="M-117 0L885 1444h303L1415 0h-323l-45 322H440L223 0h-340zm727 1546l338 322h295l166-322h-225l-125 135-199-135H610zm19-946h381l-66 473z"/><glyph unicode="Ã" horiz-adv-x="1566" d="M-117 0L885 1444h303L1415 0h-323l-45 322H440L223 0h-340zm719 1614q56 125 137 198.5t176 73.5q50 0 86-14.5t76-44.5q42-31 63.5-42t45.5-11q44 0 77 30.5t66 89.5l164-82q-56-125-137-198.5t-176-73.5q-50 0-84.5 14.5T1018 1599q-43 32-64.5 43t-44.5 11q-44 0-77-31t-66-90zm27-1014h381l-66 473z"/><glyph unicode="Ä" horiz-adv-x="1566" d="M-117 0L885 1444h303L1415 0h-323l-45 322H440L223 0h-340zm746 600h381l-66 473zm45 946l76 277h299l-76-277H674zm438 0l76 277h299l-76-277h-299z"/><glyph unicode="Å" horiz-adv-x="1566" d="M-117 0l983 1417q-53 59-53 146 0 111 80 192.5t194 81.5q102 0 164-61t62-152q0-68-32-127t-87-98L1415 0h-323l-45 322H440L223 0h-340zm746 600h381l-66 473zm315 965q0-44 26.5-73.5t71.5-29.5q61 0 100.5 48.5T1182 1622q0 44-27 73t-72 29q-61 0-100-48t-39-111z"/><glyph unicode="Æ" horiz-adv-x="2166" d="M-125 0l1157 1434h1254l-76-281h-717l-78-293h625l-76-276h-625l-82-303h730L1911 0H870l86 322H473L217 0h-342zm821 600h336l150 561h-39z"/><glyph unicode="Ç" horiz-adv-x="1486" d="M137 600q0 113 31.5 222.5T256 1026t136.5 174.5 176 137 209 88.5 232.5 32q386 0 573-305l-260-182q-45 64-90.5 104.5t-112 66T971 1167q-97 0-189.5-44.5t-162-118.5-112-177T465 612q0-154 97.5-250T815 266q97 0 172 34.5T1151 408l205-213Q1243 90 1112.5 32.5T813-25h-18L573-354 342-246 582 6Q378 66 257.5 221.5T137 600z"/><glyph unicode="È" horiz-adv-x="1361" d="M25 0l385 1434h1071l-76-281H647l-78-293h666l-76-276H494l-82-303h770L1106 0H25zm657 1792l274 117 134-363H877z"/><glyph unicode="É" horiz-adv-x="1361" d="M25 0l385 1434h1071l-76-281H647l-78-293h666l-76-276H494l-82-303h770L1106 0H25zm763 1546l330 363 262-117-329-246H788z"/><glyph unicode="Ê" horiz-adv-x="1361" d="M25 0l385 1434h1071l-76-281H647l-78-293h666l-76-276H494l-82-303h770L1106 0H25zm546 1546l338 322h295l166-322h-225l-125 135-199-135H571z"/><glyph unicode="Ë" horiz-adv-x="1361" d="M25 0l385 1434h1071l-76-281H647l-78-293h666l-76-276H494l-82-303h770L1106 0H25zm575 1546l76 277h299l-76-277H600zm438 0l76 277h299l-76-277h-299z"/><glyph unicode="Ì" horiz-adv-x="688" d="M39 0l385 1434h315L354 0H39zm291 1792l274 117 133-363H524z"/><glyph unicode="Í" horiz-adv-x="688" d="M39 0l385 1434h315L354 0H39zm391 1546l330 363 262-117-330-246H430z"/><glyph unicode="Î" horiz-adv-x="688" d="M39 0l385 1434h315L354 0H39zm149 1546l338 322h295l166-322H762l-125 135-199-135H188z"/><glyph unicode="Ï" horiz-adv-x="688" d="M39 0l385 1434h315L354 0H39zm201 1546l75 277h299l-75-277H240zm438 0l76 277h299l-76-277H678z"/><glyph unicode="Ð" horiz-adv-x="1632" d="M51 582l76 278h170l154 574h417q377 0 562-185 155-155 155-420 0-330-235-565Q1086 0 598 0H66l155 582H51zm406-297h178q145 0 269.5 44.5T1114 459q143 143 143 358 0 144-83 227-105 105-330 105H690l-78-289h291l-76-278H537z"/><glyph unicode="Ñ" horiz-adv-x="1609" d="M25 0l385 1434h290l418-912 246 912h311L1290 0h-268L588 940 336 0H25zm604 1614q56 125 137 198.5t176 73.5q50 0 86-14.5t76-44.5q43-31 64-42t44-11q44 0 77.5 31t66.5 89l164-82q-56-125-137.5-198.5T1206 1540q-50 0-84.5 14.5T1044 1599q-44 32-64.5 43t-43.5 11q-44 0-77-31t-66-90z"/><glyph unicode="Ò" horiz-adv-x="1703" d="M137 610q0 160 63.5 313t174 271.5 274 191T999 1458q145 0 268.5-49t208-133.5 132-201.5 47.5-251q0-160-63.5-313t-174-271.5-274-191T793-25q-145 0-268.5 49t-208 133.5-132 201.5T137 610zm328 21q0-164 95.5-264.5T829 266q87 0 167 32t139 86 103 123 66.5 145.5T1327 803q0 164-95.5 264T963 1167q-109 0-204.5-49T600 991.5t-99-172T465 631zm307 1161l275 117 133-363H967z"/><glyph unicode="Ó" horiz-adv-x="1703" d="M137 610q0 160 63.5 313t174 271.5 274 191T999 1458q145 0 268.5-49t208-133.5 132-201.5 47.5-251q0-160-63.5-313t-174-271.5-274-191T793-25q-145 0-268.5 49t-208 133.5-132 201.5T137 610zm328 21q0-164 95.5-264.5T829 266q87 0 167 32t139 86 103 123 66.5 145.5T1327 803q0 164-95.5 264T963 1167q-109 0-204.5-49T600 991.5t-99-172T465 631zm383 915l330 363 262-117-330-246H848z"/><glyph unicode="Ô" horiz-adv-x="1703" d="M137 610q0 160 63.5 313t174 271.5 274 191T999 1458q145 0 268.5-49t208-133.5 132-201.5 47.5-251q0-160-63.5-313t-174-271.5-274-191T793-25q-145 0-268.5 49t-208 133.5-132 201.5T137 610zm328 21q0-164 95.5-264.5T829 266q87 0 167 32t139 86 103 123 66.5 145.5T1327 803q0 164-95.5 264T963 1167q-109 0-204.5-49T600 991.5t-99-172T465 631zm188 915l338 322h295l166-322h-225l-125 135-199-135H653z"/><glyph unicode="Õ" horiz-adv-x="1703" d="M137 610q0 160 63.5 313t174 271.5 274 191T999 1458q145 0 268.5-49t208-133.5 132-201.5 47.5-251q0-160-63.5-313t-174-271.5-274-191T793-25q-145 0-268.5 49t-208 133.5-132 201.5T137 610zm328 21q0-164 95.5-264.5T829 266q87 0 167 32t139 86 103 123 66.5 145.5T1327 803q0 164-95.5 264T963 1167q-109 0-204.5-49T600 991.5t-99-172T465 631zm186 983q56 125 137.5 198.5T965 1886q50 0 85.5-14.5t75.5-44.5q42-31 63.5-42t45.5-11q44 0 77 30.5t66 89.5l164-82q-56-125-137-198.5t-176-73.5q-50 0-84.5 14.5T1067 1599q-43 32-64.5 43t-44.5 11q-44 0-77-31t-66-90z"/><glyph unicode="Ö" horiz-adv-x="1703" d="M137 610q0 160 63.5 313t174 271.5 274 191T999 1458q145 0 268.5-49t208-133.5 132-201.5 47.5-251q0-160-63.5-313t-174-271.5-274-191T793-25q-145 0-268.5 49t-208 133.5-132 201.5T137 610zm328 21q0-164 95.5-264.5T829 266q87 0 167 32t139 86 103 123 66.5 145.5T1327 803q0 164-95.5 264T963 1167q-109 0-204.5-49T600 991.5t-99-172T465 631zm235 915l76 277h299l-76-277H700zm439 0l75 277h299l-75-277h-299z"/><glyph unicode="Ø" horiz-adv-x="1703" d="M-53-10l291 266Q137 409 137 610q0 160 63.5 313t174 271.5 274 191T999 1458q257 0 433-143l139 129h301l-307-283q90-146 90-338 0-160-63.5-313t-174-271.5-274-191T793-25q-244 0-418 131L248-10H-53zm506 639q0-93 30-166l711 653q-91 66-229 66-111 0-209.5-50.5t-163-131-102-178T453 629zm161-324q86-53 213-53 111 0 209.5 50.5t163 131 102 178T1339 805q0 76-22 147z"/><glyph unicode="Ù" horiz-adv-x="1564" d="M166 461q0 107 35 229l198 744h316L508 662q-23-81-23-156 0-108 65.5-173T735 268q141 0 234 90 93 93 139 267l217 809h315l-229-854q-74-279-221-426Q1013-23 702-23q-250 0-393 128T166 461zm588 1331l274 117 133-363H948z"/><glyph unicode="Ú" horiz-adv-x="1564" d="M166 461q0 107 35 229l198 744h316L508 662q-23-81-23-156 0-108 65.5-173T735 268q141 0 234 90 93 93 139 267l217 809h315l-229-854q-74-279-221-426Q1013-23 702-23q-250 0-393 128T166 461zm690 1085l330 363 262-117-330-246H856z"/><glyph unicode="Û" horiz-adv-x="1564" d="M166 461q0 107 35 229l198 744h316L508 662q-23-81-23-156 0-108 65.5-173T735 268q141 0 234 90 93 93 139 267l217 809h315l-229-854q-74-279-221-426Q1013-23 702-23q-250 0-393 128T166 461zm455 1085l337 322h295l166-322h-225l-125 135-199-135H621z"/><glyph unicode="Ü" horiz-adv-x="1564" d="M166 461q0 107 35 229l198 744h316L508 662q-23-81-23-156 0-108 65.5-173T735 268q141 0 234 90 93 93 139 267l217 809h315l-229-854q-74-279-221-426Q1013-23 702-23q-250 0-393 128T166 461zm512 1085l76 277h299l-76-277H678zm438 0l76 277h299l-76-277h-299z"/><glyph unicode="Ý" horiz-adv-x="1331" d="M201 1434h350l168-594 491 594h381L807 537 662 0H346l152 565zm534 112l330 363 262-117-330-246H735z"/><glyph unicode="Þ" horiz-adv-x="1411" d="M25 0l385 1434h315l-55-209h139q156 0 265-34.5t186-111.5q110-110 110-295 0-173-93-301.5t-249.5-193T674 225H401L340 0H25zm450 502h215q159 0 254.5 68t95.5 188q0 72-47 119-63 63-196 63H592z"/><glyph unicode="ß" horiz-adv-x="1294" d="M-6 0l276 1030q59 218 179 338 141 141 370 141 207 0 326-109t119-278q0-145-83.5-244.5T948 731q213-91 213-285 0-101-41.5-184t-124-145-218-94T465-4l65 242q92-3 159.5 13.5t105.5 48 55.5 70T868 455q0 148-235 172l55 204q144 33 213.5 100.5T971 1092q0 73-46.5 114T809 1247q-172 0-236-233L303 0H-6z"/><glyph unicode="à" horiz-adv-x="1204" d="M14 274q0 185 133.5 290.5T487 670q155 0 310-49l4 14q12 50 12 82 0 129-207 129-148 0-293-60l-49 246q188 78 408 78 219 0 331.5-87.5T1116 772q0-72-24-166L930 0H629l33 127Q524-20 334-20q-142 0-231 82.5T14 274zm310 35q0-52 39-84t104-32q94 0 171.5 64.5T743 414l9 28q-103 39-205 39-98 0-160.5-47T324 309zm161 1155l275 117 133-362H680z"/><glyph unicode="á" horiz-adv-x="1204" d="M14 274q0 185 133.5 290.5T487 670q155 0 310-49l4 14q12 50 12 82 0 129-207 129-148 0-293-60l-49 246q188 78 408 78 219 0 331.5-87.5T1116 772q0-72-24-166L930 0H629l33 127Q524-20 334-20q-142 0-231 82.5T14 274zm310 35q0-52 39-84t104-32q94 0 171.5 64.5T743 414l9 28q-103 39-205 39-98 0-160.5-47T324 309zm258 910l329 362 263-117-330-245H582z"/><glyph unicode="â" horiz-adv-x="1204" d="M14 274q0 185 133.5 290.5T487 670q155 0 310-49l4 14q12 50 12 82 0 129-207 129-148 0-293-60l-49 246q188 78 408 78 219 0 331.5-87.5T1116 772q0-72-24-166L930 0H629l33 127Q524-20 334-20q-142 0-231 82.5T14 274zm310 35q0-52 39-84t104-32q94 0 171.5 64.5T743 414l9 28q-103 39-205 39-98 0-160.5-47T324 309zm43 910l338 321h294l166-321H940l-125 135-199-135H367z"/><glyph unicode="ã" horiz-adv-x="1204" d="M14 274q0 185 133.5 290.5T487 670q155 0 310-49l4 14q12 50 12 82 0 129-207 129-148 0-293-60l-49 246q188 78 408 78 219 0 331.5-87.5T1116 772q0-72-24-166L930 0H629l33 127Q524-20 334-20q-142 0-231 82.5T14 274zm310 35q0-52 39-84t104-32q94 0 171.5 64.5T743 414l9 28q-103 39-205 39-98 0-160.5-47T324 309zm16 977q56 125 137 199t176 74q50 0 85.5-15t76.5-45q42-31 63.5-42t45.5-11q44 0 77 31t66 90l164-82q-56-125-137-199t-176-74q-49 0-84 14.5t-78 45.5q-42 31-63.5 42t-45.5 11q-44 0-77-31t-66-90z"/><glyph unicode="ä" horiz-adv-x="1204" d="M14 274q0 185 133.5 290.5T487 670q155 0 310-49l4 14q12 50 12 82 0 129-207 129-148 0-293-60l-49 246q188 78 408 78 219 0 331.5-87.5T1116 772q0-72-24-166L930 0H629l33 127Q524-20 334-20q-142 0-231 82.5T14 274zm310 35q0-52 39-84t104-32q94 0 171.5 64.5T743 414l9 28q-103 39-205 39-98 0-160.5-47T324 309zm75 910l76 276h299l-76-276H399zm439 0l75 276h299l-75-276H838z"/><glyph unicode="å" horiz-adv-x="1204" d="M14 274q0 185 133.5 290.5T487 670q155 0 310-49l4 14q12 50 12 82 0 129-207 129-148 0-293-60l-49 246q188 78 408 78 219 0 331.5-87.5T1116 772q0-72-24-166L930 0H629l33 127Q524-20 334-20q-142 0-231 82.5T14 274zm310 35q0-52 39-84t104-32q94 0 171.5 64.5T743 414l9 28q-103 39-205 39-98 0-160.5-47T324 309zm251 1118q0 111 80.5 193t194.5 82q102 0 163.5-60.5T1075 1489q0-112-80-193.5T801 1214q-102 0-164 61t-62 152zm132 3q0-44 26.5-73.5T805 1327q61 0 100 48.5t39 111.5q0 44-26.5 73t-71.5 29q-61 0-100-48t-39-111z"/><glyph unicode="æ" horiz-adv-x="1925" d="M14 274q0 185 133.5 290.5T487 670q155 0 310-49l4 14q12 50 12 82 0 129-207 129-148 0-293-60l-49 246q188 78 408 78 268 0 360-162 170 170 395 170 201 0 320-120.5T1866 690q0-116-56-250h-751q8-101 69.5-158t180.5-57q117 0 243 88l144-192q-72-66-182.5-106T1274-25q-142 0-249.5 53.5T856 186Q656-20 365-20q-166 0-258.5 80T14 274zm310 35q0-53 42-84.5T487 193q75 0 163 37t153 102q-9 43-12 94-124 55-244 55-98 0-160.5-47T324 309zm761 326h478q10 33 10 72 0 72-44.5 116.5T1393 868q-104 0-186.5-63.5T1085 635z"/><glyph unicode="ç" horiz-adv-x="1146" d="M86 471q0 175 88 324.5t237 236 322 86.5q311 0 451-241L946 709q-31 47-59 75.5t-73.5 48T709 852q-124 0-220-115t-96-266q0-104 61-167.5T608 240q69 0 126 26t122 82l160-203Q922 62 828 19T606-25L385-354 154-246 397 8Q252 61 169 182.5T86 471z"/><glyph unicode="è" horiz-adv-x="1243" d="M84 463q0 95 29.5 189.5t87 178 135 148 181.5 102 218 37.5q209 0 329-120t120-308q0-116-56-250H377q8-101 69.5-158T627 225q117 0 243 88l144-192Q840-25 592-25q-236 0-372 130.5T84 463zm319 172h478q10 33 10 72 0 72-44.5 116.5T711 868q-104 0-186.5-63.5T403 635zm97 829l274 117 133-362H694z"/><glyph unicode="é" horiz-adv-x="1243" d="M84 463q0 95 29.5 189.5t87 178 135 148 181.5 102 218 37.5q209 0 329-120t120-308q0-116-56-250H377q8-101 69.5-158T627 225q117 0 243 88l144-192Q840-25 592-25q-236 0-372 130.5T84 463zm319 172h478q10 33 10 72 0 72-44.5 116.5T711 868q-104 0-186.5-63.5T403 635zm183 584l329 362 263-117-330-245H586z"/><glyph unicode="ê" horiz-adv-x="1243" d="M84 463q0 95 29.5 189.5t87 178 135 148 181.5 102 218 37.5q209 0 329-120t120-308q0-116-56-250H377q8-101 69.5-158T627 225q117 0 243 88l144-192Q840-25 592-25q-236 0-372 130.5T84 463zm291 756l338 321h295l166-321H948l-125 135-198-135H375zm28-584h478q10 33 10 72 0 72-44.5 116.5T711 868q-104 0-186.5-63.5T403 635z"/><glyph unicode="ë" horiz-adv-x="1243" d="M84 463q0 95 29.5 189.5t87 178 135 148 181.5 102 218 37.5q209 0 329-120t120-308q0-116-56-250H377q8-101 69.5-158T627 225q117 0 243 88l144-192Q840-25 592-25q-236 0-372 130.5T84 463zm319 172h478q10 33 10 72 0 72-44.5 116.5T711 868q-104 0-186.5-63.5T403 635zm11 584l75 276h299l-75-276H414zm438 0l76 276h299l-76-276H852z"/><glyph unicode="ì" horiz-adv-x="618" d="M6 0l295 1098h311L317 0H6zm221 1464l275 117 133-362H422z"/><glyph unicode="í" horiz-adv-x="618" d="M6 0l295 1098h311L317 0H6zm297 1219l330 362 262-117-330-245H303z"/><glyph unicode="î" horiz-adv-x="618" d="M6 0l295 1098h311L317 0H6zm70 1219l338 321h295l165-321H649l-125 135-198-135H76z"/><glyph unicode="ï" horiz-adv-x="618" d="M6 0l295 1098h311L317 0H6zm109 1219l75 276h299l-75-276H115zm438 0l76 276h299l-76-276H553z"/><glyph unicode="ð" horiz-adv-x="1306" d="M78 457q0 147 72.5 271t196 195.5T614 995q180 0 310-121l-138 297-276-100-74 154 281 102-78 168h307l33-72 242 88 71-153-245-90 77-176q90-206 90-420 0-194-73-351T923.5 69.5 586-25q-226 0-367 133T78 457zm297 18q0-110 64-173.5T604 238q127 0 211 92t84 211q0 104-63.5 168.5T668 774q-124 0-208.5-88.5T375 475z"/><glyph unicode="ñ" horiz-adv-x="1267" d="M-6 0l293 1098h311l-31-115q150 135 299 135t236.5-85.5T1190 799q0-65-37-209L995 0H684l162 602q14 54 14 98 0 66-39.5 101T709 836q-89 0-150-59t-88-161L305 0H-6zm379 1286q56 125 137 199t176 74q50 0 85.5-15t76.5-45q43-31 64-42t44-11q44 0 77.5 31t66.5 90l164-82q-56-125-137.5-199T950 1212q-49 0-84 14.5t-78 45.5-64 42-44 11q-44 0-77-31t-66-90z"/><glyph unicode="ò" horiz-adv-x="1335" d="M86 483q0 121 50.5 237T271 923.5t202.5 141T721 1118q241 0 384.5-142.5T1249 610q0-121-50.5-237T1064 169.5t-202.5-141T614-25q-241 0-384.5 142.5T86 483zm305 9q0-118 65-184t173-66q90 0 164.5 58T906 440t38 162q0 118-64.5 184T707 852q-68 0-129-34t-101-87.5T414 614t-23-122zm131 972l275 117 133-362H717z"/><glyph unicode="ó" horiz-adv-x="1335" d="M86 483q0 121 50.5 237T271 923.5t202.5 141T721 1118q241 0 384.5-142.5T1249 610q0-121-50.5-237T1064 169.5t-202.5-141T614-25q-241 0-384.5 142.5T86 483zm305 9q0-118 65-184t173-66q90 0 164.5 58T906 440t38 162q0 118-64.5 184T707 852q-68 0-129-34t-101-87.5T414 614t-23-122zm197 727l330 362 262-117-330-245H588z"/><glyph unicode="ô" horiz-adv-x="1335" d="M86 483q0 121 50.5 237T271 923.5t202.5 141T721 1118q241 0 384.5-142.5T1249 610q0-121-50.5-237T1064 169.5t-202.5-141T614-25q-241 0-384.5 142.5T86 483zm299 736l338 321h295l166-321H958l-124 135-199-135H385zm6-727q0-118 65-184t173-66q90 0 164.5 58T906 440t38 162q0 118-64.5 184T707 852q-68 0-129-34t-101-87.5T414 614t-23-122z"/><glyph unicode="õ" horiz-adv-x="1335" d="M86 483q0 121 50.5 237T271 923.5t202.5 141T721 1118q241 0 384.5-142.5T1249 610q0-121-50.5-237T1064 169.5t-202.5-141T614-25q-241 0-384.5 142.5T86 483zm272 803q56 125 137.5 199t176.5 74q50 0 85.5-15t76.5-45q43-31 64-42t44-11q44 0 77 31t66 90l164-82q-56-125-137-199t-176-74q-49 0-84 14.5t-78 45.5-64 42-44 11q-44 0-77.5-31t-66.5-90zm33-794q0-118 65-184t173-66q90 0 164.5 58T906 440t38 162q0 118-64.5 184T707 852q-68 0-129-34t-101-87.5T414 614t-23-122z"/><glyph unicode="ö" horiz-adv-x="1335" d="M86 483q0 121 50.5 237T271 923.5t202.5 141T721 1118q241 0 384.5-142.5T1249 610q0-121-50.5-237T1064 169.5t-202.5-141T614-25q-241 0-384.5 142.5T86 483zm305 9q0-118 65-184t173-66q90 0 164.5 58T906 440t38 162q0 118-64.5 184T707 852q-68 0-129-34t-101-87.5T414 614t-23-122zm31 727l76 276h299l-76-276H422zm438 0l76 276h299l-76-276H860z"/><glyph unicode="ø" horiz-adv-x="1335" d="M-109-10l259 233Q86 342 86 483q0 121 50.5 237T271 923.5t202.5 141T721 1118q203 0 336-102l100 92h273l-250-227q69-117 69-271 0-121-50.5-237T1064 169.5t-202.5-141T614-25Q409-25 268 84L164-10h-273zm490 502q0-38 6-72l455 414q-52 28-127 28-60 0-114-23t-93.5-61-68.5-86.5-43.5-100T381 492zm102-226q56-35 138-35 74 0 138.5 35.5t106 90.5 65 119.5T954 602q0 53-8 86z"/><glyph unicode="ù" horiz-adv-x="1273" d="M84 299q0 65 37 209l158 590h311L428 496q-14-54-14-99 0-66 39.5-100.5T565 262q89 0 150 58.5T803 481l166 617h311L987 0H676l31 115Q557-20 408-20T171.5 65.5 84 299zm475 1165l275 117 133-362H754z"/><glyph unicode="ú" horiz-adv-x="1273" d="M84 299q0 65 37 209l158 590h311L428 496q-14-54-14-99 0-66 39.5-100.5T565 262q89 0 150 58.5T803 481l166 617h311L987 0H676l31 115Q557-20 408-20T171.5 65.5 84 299zm528 920l330 362 262-117-330-245H612z"/><glyph unicode="û" horiz-adv-x="1273" d="M84 299q0 65 37 209l158 590h311L428 496q-14-54-14-99 0-66 39.5-100.5T565 262q89 0 150 58.5T803 481l166 617h311L987 0H676l31 115Q557-20 408-20T171.5 65.5 84 299zm315 920l338 321h295l166-321H973l-125 135-199-135H399z"/><glyph unicode="ü" horiz-adv-x="1273" d="M84 299q0 65 37 209l158 590h311L428 496q-14-54-14-99 0-66 39.5-100.5T565 262q89 0 150 58.5T803 481l166 617h311L987 0H676l31 115Q557-20 408-20T171.5 65.5 84 299zm354 920l76 276h299l-76-276H438zm439 0l75 276h299l-75-276H877z"/><glyph unicode="ý" horiz-adv-x="1212" d="M-82-258L84-33q57-43 121-43 37 0 63.5 14T326-8L190 1098h318l51-746 412 746h336L627-27Q520-194 417-264t-243-70q-146 0-256 76zm686 1477l330 362 262-117-330-245H604z"/><glyph unicode="þ" horiz-adv-x="1380" d="M-94-328l487 1823h312L565 979q75 70 148 104.5t161 34.5q185 0 303.5-126.5T1296 647q0-142-51.5-268T1109 166.5 915 30 690-20q-123 0-204.5 46T346 160L217-328H-94zm508 803q0-104 66-168.5T649 242q129 0 227.5 111.5T975 627q0 106-62.5 167.5T745 856q-131 0-231-113T414 475z"/><glyph unicode="ÿ" horiz-adv-x="1212" d="M-82-258L84-33q57-43 121-43 37 0 63.5 14T326-8L190 1098h318l51-746 412 746h336L627-27Q520-194 417-264t-243-70q-146 0-256 76zm469 1477l76 276h299l-76-276H387zm438 0l76 276h299l-76-276H825z"/><glyph unicode="Œ" horiz-adv-x="2193" d="M137 604q0 329 236 565 265 265 751 265h1188l-76-281h-716l-78-293h624l-75-276h-625l-82-303h729L1937 0H854Q652 0 516 49T283 195Q137 341 137 604zm328 12q0-143 84-227 104-104 330-104h92l233 864h-117q-145 0-269.5-44.5T608 975q-69-69-106-162t-37-197z"/><glyph unicode="œ" horiz-adv-x="2105" d="M86 483q0 165 83 310.5t230 235 320 89.5q151 0 259-57t165-160q82 101 197 159t257 58q209 0 329-120t120-308q0-118-55-250h-752q8-101 69.5-158t180.5-57q118 0 244 88l143-192q-72-66-182.5-106T1454-25q-292 0-407 201-79-94-190-147.5T616-25q-241 0-385.5 142.5T86 483zm305 11q0-113 65-182.5T627 242q93 0 167.5 54.5t112 135.5T944 600q0 113-64.5 182.5T709 852q-93 0-167.5-54.5T429 662t-38-168zm875 141h477q10 33 10 72 0 72-44.5 116.5T1573 868q-104 0-186-63.5T1266 635z"/><glyph unicode="Ÿ" horiz-adv-x="1331" d="M201 1434h350l168-594 491 594h381L807 537 662 0H346l152 565zm325 112l76 277h299l-76-277H526zm439 0l75 277h299l-75-277H965z"/><glyph unicode="ˆ" d="M293 1219l338 321h295l166-321H866l-125 135-198-135H293z"/><glyph unicode="˜" d="M287 1286q56 125 137 199t176 74q50 0 85.5-15t76.5-45q43-31 64-42t44-11q44 0 77.5 31t66.5 90l164-82q-56-125-137.5-199T864 1212q-49 0-84 14.5t-78 45.5-64 42-44 11q-44 0-77-31t-66-90z"/><glyph horiz-adv-x="954"/><glyph horiz-adv-x="1909"/><glyph horiz-adv-x="954"/><glyph horiz-adv-x="1909"/><glyph horiz-adv-x="636"/><glyph horiz-adv-x="477"/><glyph horiz-adv-x="318"/><glyph horiz-adv-x="318"/><glyph horiz-adv-x="238"/><glyph horiz-adv-x="381"/><glyph horiz-adv-x="106"/><glyph unicode="‐" horiz-adv-x="843" d="M90 485l80 299h631l-80-299H90z"/><glyph unicode="‑" horiz-adv-x="843" d="M90 485l80 299h631l-80-299H90z"/><glyph unicode="‒" horiz-adv-x="843" d="M90 485l80 299h631l-80-299H90z"/><glyph unicode="–" horiz-adv-x="1087" d="M90 489l78 291h876l-77-291H90z"/><glyph unicode="—" horiz-adv-x="1845" d="M90 489l78 291h1634l-78-291H90z"/><glyph unicode="‘" horiz-adv-x="653" d="M190 786l74 277q53 199 165.5 288.5T729 1446l21-129q-236-20-267-203h127l-88-328H190z"/><glyph unicode="’" horiz-adv-x="653" d="M158 903q235 20 266 203H297l88 328h332l-74-277q-53-199-165.5-288.5T178 774z"/><glyph unicode="‚" horiz-adv-x="653" d="M-125-203Q110-183 141 0H14l88 328h332L360 51q-53-199-165-288.5T-104-332z"/><glyph unicode="“" horiz-adv-x="1173" d="M193 784l73 277q53 199 165.5 288.5T731 1444l21-129q-236-20-267-203h127l-88-328H193zm520 0l73 277q53 199 165.5 288.5T1251 1444l21-129q-235-20-266-203h127l-89-328H713z"/><glyph unicode="”" horiz-adv-x="1173" d="M160 903q235 20 266 203H299l88 328h332l-74-277q-53-199-165.5-288.5T180 774zm520 0q235 20 266 203H819l88 328h332l-74-277q-53-199-165.5-288.5T700 774z"/><glyph unicode="„" horiz-adv-x="1173" d="M-125-203Q110-183 141 0H14l88 328h332L360 51q-53-199-165-288.5T-104-332zm520 0Q631-183 662 0H535l88 328h331L881 51q-53-199-165.5-288.5T416-332z"/><glyph unicode="•" d="M266 647q0 94 42 182.5T431 977t179 59q111 0 174.5-64.5T848 799q0-94-42-182.5T683 469t-179-59q-111 0-174.5 64.5T266 647z"/><glyph unicode="…" horiz-adv-x="1785" d="M14 0l86 319h324L338 0H14zm572 0l86 319h323L909 0H586zm571 0l86 319h324L1481 0h-324z"/><glyph horiz-adv-x="381"/><glyph unicode="‹" horiz-adv-x="763" d="M94 522l4 17 486 477 178-164-361-350 164-328L315 63z"/><glyph unicode="›" horiz-adv-x="763" d="M-2 227l360 351-163 327 249 111 222-459-4-16L176 63z"/><glyph horiz-adv-x="477"/><glyph unicode="™" horiz-adv-x="1433" d="M229 1307l35 127h520l-34-127H561L426 803H283l135 504H229zm519-504l170 631h143l94-267 238 267h155l-170-631h-135l115 426-248-277h-12l-101 277-114-426H748z"/><glyph unicode="◼" horiz-adv-x="1095" d="M0 0v1096h1096V0H0z"/><glyph unicode="ﬁ" horiz-adv-x="1460" d="M47 0l225 831H141l72 267h129l14 59q91 352 445 352 128 0 213-30l-68-258q-67 26-135 26-120 0-154-119l-8-30h264l-71-267H584L358 0H47zm801 0l295 1098h311L1159 0H848zm319 1219l76 276h328l-76-276h-328z"/><glyph unicode="ﬂ" horiz-adv-x="1460" d="M47 0l225 831H141l72 267h129l14 59q91 352 445 352 128 0 213-30l-68-258q-67 26-135 26-120 0-154-119l-8-30h264l-71-267H584L358 0H47zm801 0l401 1495h312L1159 0H848z"/></font>
</defs>
</svg>
