<svg xmlns="http://www.w3.org/2000/svg"><defs><font id="gothamboldregular" horiz-adv-x="1617"><font-face units-per-em="2048" ascent="1638" descent="-410"/><glyph horiz-adv-x="0"/><glyph horiz-adv-x="682"/><glyph horiz-adv-x="614"/><glyph horiz-adv-x="614"/><glyph horiz-adv-x="614"/><glyph unicode="!" horiz-adv-x="663" d="M150 1393v41h364v-41l-96-906H246zM166 0v328h332V0H166z"/><glyph unicode="&quot;" horiz-adv-x="1064" d="M117 780l37 654h344v-11L274 780H117zm483 0l37 654h344v-11L758 780H600z"/><glyph unicode="#" horiz-adv-x="1433" d="M72 307v262h200l52 303H143v263h226l51 299h270l-51-299h297l51 299h270l-51-299h156V872h-201l-51-303h180V307h-225L1012 0H741l54 307H498L444 0H174l53 307H72zm471 262h297l51 303H594z"/><glyph unicode="$" horiz-adv-x="1323" d="M90 201l160 233q176-133 334-166v326q-230 62-335.5 161T143 1030q0 168 117 275.5T573 1434v118h213v-122q205-28 381-152l-137-240q-132 88-254 121V850q234-63 339.5-167T1221 408q0-168-118.5-276T786 2v-203H573V6Q301 42 90 201zm352 848q0-50 30.5-84.5T584 901v277q-71-10-106.5-44t-35.5-85zm334-791q146 21 146 133 0 54-32 89t-114 65V258z"/><glyph unicode="%" horiz-adv-x="1761" d="M92 1081q0 156 98 262.5T442 1450q153 0 249.5-105t96.5-260q0-156-98-262T438 717q-153 0-249.5 104.5T92 1081zM236 0l1046 1434h244L479 0H236zm71 1085q0-76 37.5-129t97.5-53q62 0 96.5 51t34.5 127-37.5 129.5T438 1264q-62 0-96.5-51.5T307 1085zm666-737q0 156 98 262.5T1323 717q153 0 249.5-105t96.5-260q0-156-98-262T1319-16q-153 0-249.5 104.5T973 348zm215 4q0-76 37.5-129t97.5-53q62 0 96.5 51t34.5 127-37.5 129-97.5 53q-62 0-96.5-51T1188 352z"/><glyph unicode="&amp;" horiz-adv-x="1425" d="M70 395q0 269 278 396-100 143-100 288 0 75 29.5 143t83.5 121 137.5 84 183.5 31q180 0 291.5-103t111.5-259q0-259-301-377l191-191q68 107 139 246l232-127q-105-191-189-303l211-211-231-162-166 168Q777-20 551-20q-137 0-246 49.5t-172 145T70 395zm317 13q0-76 56.5-123T588 238q102 0 207 81L520 598q-133-69-133-190zm150 657q0-48 19-87.5t65-92.5q98 37 144 81t46 111q0 63-37 99t-98 36q-63 0-101-40.5T537 1065z"/><glyph unicode="'" horiz-adv-x="585" d="M117 780l37 654h348v-11L279 780H117z"/><glyph unicode="(" horiz-adv-x="911" d="M121 588q0 292 140.5 506.5T688 1464l137-207q-210-147-302.5-301T430 588t92.5-368.5T825-82L688-289Q402-134 261.5 81T121 588z"/><glyph unicode=")" horiz-adv-x="911" d="M86-82Q296 65 388.5 219.5T481 588t-92.5 368T86 1257l137 207q286-155 427-369.5T791 588 650 81 223-289z"/><glyph unicode="*" horiz-adv-x="880" d="M104 1004l230 96-230 96 86 147 199-151-33 246h168l-32-246 198 151 86-147-229-96 229-96-86-148-198 152 32-246H356l33 246-199-152z"/><glyph unicode="+" horiz-adv-x="1310" d="M139 580v282h371v369h291V862h370V580H801V211H510v369H139z"/><glyph unicode="," horiz-adv-x="585" d="M53-203q105 10 157 62.5T254 0H127v328h332V51q0-197-95.5-288.5T80-332z"/><glyph unicode="-" horiz-adv-x="835" d="M102 485v299h631V485H102z"/><glyph unicode="." horiz-adv-x="585" d="M127 0v328h332V0H127z"/><glyph unicode="/" horiz-adv-x="1085" d="M-57-262l907 1896h264L207-262H-57z"/><glyph unicode="0" horiz-adv-x="1495" d="M111 715q0 208 79 377t226 267.5 334 98.5q141 0 260.5-57t201-155.5 127-234.5 45.5-292q0-208-79-377.5t-226-268T745-25 412 73 188.5 339 111 715zm323 4q0-200 87.5-329.5T750 260t226 128 85 327-87.5 329T745 1174t-226-127-85-328z"/><glyph unicode="1" horiz-adv-x="864" d="M49 1321l412 123h215V0H365v1124l-250-61z"/><glyph unicode="2" horiz-adv-x="1275" d="M100 0v250l478 391q140 116 193.5 187T825 985q0 89-52.5 137.5T633 1171q-80 0-144.5-44.5T340 979l-221 178q113 155 232 226t302 71q228 0 361-121t133-323q0-89-21.5-159t-74-137.5T938 591 770 453L537 272h624V0H100z"/><glyph unicode="3" horiz-adv-x="1271" d="M78 223l217 207q77-87 159-129.5T641 258q90 0 146.5 47.5T844 434q0 89-73 136.5T563 618H432l-49 201 342 344H162v271h968v-238L768 850q79-13 144-40t121.5-73 88-120 31.5-171q0-207-140-339T637-25Q288-25 78 223z"/><glyph unicode="4" horiz-adv-x="1411" d="M63 532l787 912h266V565h193V309h-193V0H815v309H115zm371 33h381v447z"/><glyph unicode="5" horiz-adv-x="1290" d="M88 190l191 228q86-77 168.5-116.5T621 262q111 0 175 52.5T860 463q0 93-68.5 144.5T606 659q-115 0-239-53L184 727l41 707h881v-277H496l-17-248q102 25 189 25 109 0 198-26.5t158-81T1131 682t38-209q0-228-148-363T625-25Q313-25 88 190z"/><glyph unicode="6" horiz-adv-x="1355" d="M111 674q0 135 24 252.5t74 215.5 123.5 168 177 109 229.5 39q139 0 243-39t206-119l-166-243q-78 60-142.5 87T729 1171q-128 0-200.5-90.5T440 840q67 43 134.5 67.5T737 932q145 0 257.5-51T1174 724.5t67-251.5q0-145-71.5-259T973 37.5 694-25q-259 0-413 154-83 83-126.5 211.5T111 674zm321-213q0-95 67.5-155T682 246t180.5 58.5T928 459q0 94-67.5 152.5T678 670t-180.5-57.5T432 461z"/><glyph unicode="7" horiz-adv-x="1267" d="M139 1161v273h1032v-238L528 0H172l641 1161H139z"/><glyph unicode="8" horiz-adv-x="1290" d="M92 395q0 129 57.5 211.5T324 743q-89 55-136 130t-47 186q0 169 140 282t364 113 364-113 140-282q0-111-46.5-186.5T967 743q116-61 173.5-139t57.5-201q0-131-72.5-228t-197-146T645-20q-158 0-283.5 50.5T164 176 92 395zm305 25q0-79 67-129.5T645 240t181 50.5T893 420q0 83-69 130.5T645 598t-179-47.5T397 420zm43 606q0-78 56.5-128T645 848q93 0 149 49.5t56 126.5q0 71-56 120.5T645 1194t-149-49-56-119z"/><glyph unicode="9" horiz-adv-x="1355" d="M115 954q0 220 152.5 362T662 1458q143 0 236.5-36t176.5-119q82-82 126-211t44-332q0-235-71-410.5t-213.5-275T618-25q-147 0-259.5 44T147 145l166 240q80-65 152.5-94T627 262q128 0 201.5 88T918 588q-117-99-291-99-235 0-373.5 123.5T115 954zm313 15q0-98 67-157.5T678 752q115 0 180.5 59.5T924 967q0 98-67.5 159.5T672 1188q-115 0-179.5-60T428 969z"/><glyph unicode=":" horiz-adv-x="606" d="M137 0v328h332V0H137zm0 770v328h332V770H137z"/><glyph unicode=";" horiz-adv-x="606" d="M63-203q105 10 157 62.5T264 0H137v328h332V51q0-197-95.5-288.5T90-332zm74 973v328h332V770H137z"/><glyph unicode="&lt;" horiz-adv-x="1310" d="M139 580v282l991 434v-288L438 723l692-285V145z"/><glyph unicode="=" horiz-adv-x="1310" d="M170 313v283h971V313H170zm0 533v282h971V846H170z"/><glyph unicode="&gt;" horiz-adv-x="1310" d="M180 145v289l692 285-692 285v292l991-434V580z"/><glyph unicode="?" horiz-adv-x="1114" d="M41 1231q201 221 502 221 226 0 360.5-112t134.5-314q0-95-30.5-168t-88-121T793 659.5 635 612l-23-125H403l-47 332 11 10q188 7 273 55t85 134q0 70-49.5 108.5T537 1165q-167 0-308-141zM336 0v328h332V0H336z"/><glyph unicode="@" horiz-adv-x="2007" d="M109 561q0 181 70 346t189.5 286 286 193 351.5 72q183 0 350-68t285-179.5T1828.5 951t69.5-304q0-125-32-224t-87.5-161.5-129-95.5-158.5-33q-207 0-313 123-137-123-304-123-161 0-267.5 108T500 528q0 141 64.5 260T734 974.5t224 67.5q181 0 283-139l23 109 241-39-96-551q-6-30-6-64 0-57 40-93t109-36q113 0 186.5 110.5T1812 647q0 141-62 273.5t-167.5 233-257 161.5-319.5 61q-136 0-261.5-41.5T520 1218t-172.5-175.5-113-224.5T195 561q0-167 62-316.5T427-14t262.5-172.5T1022-250q147 0 264.5 33.5T1524-113l41-65q-253-154-543-154-129 0-249.5 32.5T552-209 369-68.5 229 112t-88.5 213T109 561zm645-18q0-93 53-146t139-53q98 0 171 85.5t73 209.5q0 87-53.5 139.5T999 831q-101 0-173-83t-72-205z"/><glyph unicode="A" d="M49 0l615 1444h290L1569 0h-330l-131 322H502L371 0H49zm565 600h381l-190 465z"/><glyph unicode="B" horiz-adv-x="1478" d="M172 0v1434h666q219 0 346-100.5t127-270.5v-4q0-203-189-309 133-50 201-132.5t68-220.5v-4q0-192-144-292.5T854 0H172zm307 276h375q107 0 165 39t58 117v4q0 74-57.5 115T844 592H479V276zm0 578h291q227 0 227 152v4q0 71-53 109t-153 38H479V854z"/><glyph unicode="C" horiz-adv-x="1511" d="M109 713v4q0 203 94 372t266 269 387 100q190 0 323-57t242-164l-200-231q-88 79-176 120t-191 41q-179 0-297.5-129.5T438 721v-4q0-188 117.5-319.5T854 266q114 0 198 41t179 127l201-203q-119-128-255.5-192T844-25q-207 0-376 98T204 340t-95 373z"/><glyph unicode="D" horiz-adv-x="1601" d="M172 0v1434h559q166 0 309-55t242-150 155-226.5 56-281.5v-4q0-150-56-282t-155-228-242-151.5T731 0H172zm315 285h244q193 0 312.5 118.5T1163 713v4q0 191-119.5 311.5T731 1149H487V285z"/><glyph unicode="E" horiz-adv-x="1372" d="M172 0v1434h1081v-281H485V862h676V582H485V281h779V0H172z"/><glyph unicode="F" horiz-adv-x="1343" d="M172 0v1434h1092v-287H487V842h684V555H487V0H172z"/><glyph unicode="G" horiz-adv-x="1605" d="M109 713v4q0 151 57 287.5T321.5 1241t239 158.5T860 1458q186 0 315-48t248-148l-198-240q-91 75-174.5 110T850 1167q-171 0-291.5-131T438 721v-4q0-197 122-326t312-129q176 0 297 86v205H852v272h623V203Q1207-25 862-25q-165 0-305.5 56T318 185 164.5 419.5 109 713z"/><glyph unicode="H" horiz-adv-x="1556" d="M172 0v1434h315V866h582v568h315V0h-315v575H487V0H172z"/><glyph unicode="I" horiz-adv-x="688" d="M186 0v1434h316V0H186z"/><glyph unicode="J" horiz-adv-x="1155" d="M29 195l198 221q65-72 127.5-108T489 272q92 0 142.5 58.5T682 510v924h324V496q0-254-136.5-385T498-20Q209-20 29 195z"/><glyph unicode="K" horiz-adv-x="1495" d="M172 0v1434h315V807l582 627h381L866 825 1477 0h-379L653 610 487 438V0H172z"/><glyph unicode="L" horiz-adv-x="1267" d="M172 0v1434h315V287h715V0H172z"/><glyph unicode="M" horiz-adv-x="1777" d="M172 0v1434h340l377-607 377 607h340V0h-314v936L889 324h-8L481 930V0H172z"/><glyph unicode="N" d="M172 0v1434h291l672-883v883h311V0h-268L483 911V0H172z"/><glyph unicode="O" horiz-adv-x="1740" d="M109 713v4q0 151 57.5 287.5T324 1241t243 158.5 305 58.5q216 0 391-99t272-267.5 97-370.5v-4q0-151-58-287.5T1416 193 1173 34 868-25 563.5 33 322 190.5 166 426t-57 287zm329 4q0-122 55-225t155-164.5T872 266t223.5 60.5T1249 489t54 224v4q0 187-123.5 318.5T868 1167q-124 0-223-60T492 945t-54-224v-4z"/><glyph unicode="P" horiz-adv-x="1368" d="M172 0v1434h586q253 0 401-136.5T1307 938v-4q0-121-45-218t-124.5-159-184-94.5T727 430H487V0H172zm315 711h250q116 0 183 61t67 156v4q0 104-68 160.5T731 1149H487V711z"/><glyph unicode="Q" horiz-adv-x="1740" d="M109 713v4q0 151 57.5 287.5T324 1241t243 158.5 305 58.5q216 0 391-99t272-267.5 97-370.5v-4q0-228-127-412l148-125-201-223-158 141Q1103-25 868-25q-162 0-304.5 58T322 190.5 166 426t-57 287zm329 4q0-122 55-225t155-164.5T872 266q103 0 189 39L827 504l201 225 236-213q39 85 39 197v4q0 187-123.5 318.5T868 1167q-124 0-223-60T492 945t-54-224v-4z"/><glyph unicode="R" horiz-adv-x="1480" d="M172 0v1434h655q253 0 397-126t144-347v-5q0-167-82-279t-225-165L1411 0h-369L735 459H487V0H172zm315 737h320q114 0 178 55.5t64 147.5v4q0 100-65.5 152.5T801 1149H487V737z"/><glyph unicode="S" horiz-adv-x="1310" d="M74 209l186 223q212-174 428-174 97 0 152 36t55 99v4q0 42-22 70t-84.5 55.5T606 580q-68 17-117.5 32.5t-102.5 37-89 44.5-69.5 55-53.5 70.5-31.5 88.5-11.5 110v4q0 194 140.5 313T633 1454q306 0 532-182l-164-238q-205 142-372 142-88 0-136.5-35t-48.5-90v-4q0-69 60-105t250-84q115-30 194.5-64.5T1089 709t90-119.5 29-161.5v-4q0-209-144.5-326.5T682-20q-166 0-324 58T74 209z"/><glyph unicode="T" horiz-adv-x="1327" d="M70 1143v291h1187v-291H821V0H506v1143H70z"/><glyph unicode="U" horiz-adv-x="1548" d="M150 614v820h315V623q0-173 81-264t228-91 228 88 81 256v822h316V625q0-319-166.5-483.5T770-23q-294 0-457 162.5T150 614z"/><glyph unicode="V" horiz-adv-x="1536" d="M49 1434h348L772 424l375 1010h340L907-10H629z"/><glyph unicode="W" horiz-adv-x="2297" d="M61 1434h338l297-971 322 975h270l322-975 297 971h329L1747-10h-274l-324 938L825-10H551z"/><glyph unicode="X" horiz-adv-x="1499" d="M63 0l500 729-479 705h369l301-465 303 465h358L936 733 1436 0h-369L745 492 422 0H63z"/><glyph unicode="Y" horiz-adv-x="1466" d="M25 1434h368l342-576 348 576h359L891 571V0H575v565z"/><glyph unicode="Z" horiz-adv-x="1449" d="M129 0v240l789 917H154v277h1169v-240L535 276h788V0H129z"/><glyph unicode="[" horiz-adv-x="952" d="M170-266v1700h661v-244H469V-23h362v-243H170z"/><glyph unicode="\" horiz-adv-x="1085" d="M-29 1634h265l907-1896H879z"/><glyph unicode="]" horiz-adv-x="952" d="M121-23h362v1213H121v244h661V-266H121v243z"/><glyph unicode="^" horiz-adv-x="1024" d="M102 1010l304 424h212l304-424H696l-186 239-186-239H102z"/><glyph unicode="_" horiz-adv-x="1228" d="M-4-90h1237v-238H-4v238z"/><glyph unicode="`" horiz-adv-x="1024" d="M225 1464l269 117 231-362H487z"/><glyph unicode="a" horiz-adv-x="1212" d="M74 315v4q0 174 119.5 262.5T516 670q138 0 268-45v18q0 98-59.5 149.5T549 844q-141 0-303-60l-78 238q100 44 198 66t228 22q249 0 369-122t120-351V0H782v119Q656-20 451-20q-162 0-269.5 89T74 315zm301 13q0-62 47-97.5T545 195q108 0 175.5 53.5T788 387v55q-87 41-198 41-101 0-158-39t-57-112v-4z"/><glyph unicode="b" horiz-adv-x="1382" d="M139 0v1495h312V940q133 178 342 178 97 0 186-37.5T1138 973t112-179.5 42-242.5v-4q0-133-41-242.5T1140 125 981 17.5 793-20q-205 0-342 163V0H139zm307 547q0-134 78-218.5T713 244q112 0 190 84t78 219v4q0 133-78 218t-190 85q-111 0-189-84.5T446 551v-4z"/><glyph unicode="c" horiz-adv-x="1169" d="M86 543v4q0 156 73 286t206 207.5 297 77.5q149 0 253-46.5T1100 934L909 729q-58 61-115 91t-135 30q-115 0-190.5-87.5T393 551v-4q0-129 77-216t202-87q74 0 132 29t120 87l182-184q-89-98-192.5-149.5T657-25q-162 0-293.5 76.5T159 258 86 543z"/><glyph unicode="d" horiz-adv-x="1382" d="M90 547v4q0 133 41.5 242.5T243 973t159 107.5 188 37.5q204 0 342-164v541h311V0H932v158Q799-20 590-20q-97 0-186 37.5T244.5 125 132 304.5 90 547zm311 0q0-133 78.5-218T670 244q111 0 188.5 84.5T936 547v4q0 134-77.5 218.5T670 854q-112 0-190.5-84.5T401 551v-4z"/><glyph unicode="e" horiz-adv-x="1255" d="M86 543v4q0 156 68.5 286T348 1040.5t281 77.5q133 0 237.5-49t168-133 96-189.5T1163 522v-4q0-20-4-78H395q23-105 93.5-160T664 225q78 0 139.5 26.5T930 338l178-158Q943-25 659-25q-249 0-411 159T86 543zm305 92h469q-14 107-74.5 170T629 868q-95 0-157-62.5T391 635z"/><glyph unicode="f" horiz-adv-x="782" d="M63 831v256h130v70q0 352 339 352 127 0 222-30v-258q-73 26-142 26-112 0-112-119v-43h252V831H504V0H193v831H63z"/><glyph unicode="g" horiz-adv-x="1382" d="M90 602v4q0 119 40.5 217.5t109 162 156 98T578 1118q118 0 200-42.5T932 954v144h311V248q0-305-150-442.5T631-332q-270 0-486 115L252 16Q431-84 623-84q313 0 313 299v53q-74-89-157-133.5T578 90q-97 0-184.5 35T238 223.5 130 385 90 602zm311 0q0-113 76-183.5T668 348t191.5 71.5T936 602v4q0 111-76.5 182.5T668 860t-191-71-76-183v-4z"/><glyph unicode="h" horiz-adv-x="1275" d="M139 0v1495h312V942q64 82 138.5 129t182.5 47q176 0 274.5-108.5T1145 711V0H834v612q0 109-49.5 166.5T645 836q-91 0-142.5-57.5T451 612V0H139z"/><glyph unicode="i" horiz-adv-x="618" d="M145 1219v276h328v-276H145zM154 0v1098h311V0H154z"/><glyph unicode="j" horiz-adv-x="618" d="M-23-78q37-6 66-6 111 0 111 127v1055h311V18q0-352-352-352-71 0-136 12v244zm168 1297v276h328v-276H145z"/><glyph unicode="k" horiz-adv-x="1212" d="M139 0v1495h312V698l364 400h373L770 666 1202 0H846L559 449 451 334V0H139z"/><glyph unicode="l" horiz-adv-x="618" d="M154 0v1495h311V0H154z"/><glyph unicode="m" horiz-adv-x="1945" d="M139 0v1098h312V942q64 82 139.5 129t183.5 47q107 0 186.5-45T1083 944q148 174 361 174 175 0 273-103.5t98-299.5V0h-312v612q0 110-47 167t-135 57q-89 0-138.5-57.5T1133 612V0H821v612q0 110-47 167t-135 57q-89 0-138.5-57.5T451 612V0H139z"/><glyph unicode="n" horiz-adv-x="1275" d="M139 0v1098h312V942q64 82 138.5 129t182.5 47q176 0 274.5-108.5T1145 711V0H834v612q0 109-49.5 166.5T645 836q-91 0-142.5-57.5T451 612V0H139z"/><glyph unicode="o" horiz-adv-x="1359" d="M86 543v4q0 117 45.5 222t124 182T445 1073t237 45q167 0 303-75.5T1197.5 837t76.5-286v-4q0-156-77-287T983 52 678-25q-167 0-303 76T162.5 257 86 543zm307 4q0-125 81.5-214T682 244q129 0 207 86.5T967 543v4q0 125-81.5 214T678 850q-129 0-207-86.5T393 551v-4z"/><glyph unicode="p" horiz-adv-x="1382" d="M139-328v1426h312V940q133 178 342 178 97 0 186-37.5T1138 973t112-179.5 42-242.5v-4q0-133-41-242.5T1140 125 981 17.5 793-20q-205 0-342 163v-471H139zm307 875q0-134 78-218.5T713 244q112 0 190 84t78 219v4q0 133-78 218t-190 85q-111 0-189-84.5T446 551v-4z"/><glyph unicode="q" horiz-adv-x="1382" d="M90 547v4q0 133 41.5 242.5T243 973t159 107.5 188 37.5q204 0 342-164v144h311V-328H932v486Q799-20 590-20q-97 0-186 37.5T244.5 125 132 304.5 90 547zm311 0q0-133 78.5-218T670 244q111 0 188.5 84.5T936 547v4q0 134-77.5 218.5T670 854q-112 0-190.5-84.5T401 551v-4z"/><glyph unicode="r" horiz-adv-x="856" d="M139 0v1098h312V877q100 241 330 241h20V793h-17q-159 0-246-97t-87-290V0H139z"/><glyph unicode="s" horiz-adv-x="1028" d="M53 145l133 205q181-131 346-131 66 0 99 22t33 60v4q0 11-3.5 21T649 344.5 632.5 360t-24 14-27.5 12-32.5 12-34.5 11-38.5 11.5T436 432q-54 16-94 31.5t-86.5 43T179 567t-50 83.5T109 762v4q0 162 114.5 255t286.5 93q104 0 212.5-33.5T920 987L801 772Q625 874 504 874q-55 0-85-21t-30-54v-4q0-26 28.5-48.5t63-36T579 675q7-2 11-3.5t10.5-3.5 11.5-4q55-18 94.5-34t88-44.5 78-60.5 50.5-80.5T944 338v-4q0-175-116-264.5T524-20q-121 0-243.5 41T53 145z"/><glyph unicode="t" horiz-adv-x="849" d="M59 831v267h131v280h312v-280h258V831H502V362q0-54 24-80t76-26q84 0 154 39V45Q649-18 510-18q-154 0-237 74.5T190 311v520H59z"/><glyph unicode="u" horiz-adv-x="1275" d="M131 387v711h311V485q0-109 49.5-166T631 262q91 0 142.5 57.5T825 485v613h312V0H825v156Q761 74 686.5 27T504-20Q328-20 229.5 88.5T131 387z"/><glyph unicode="v" horiz-adv-x="1228" d="M41 1098h330l245-736 248 736h324L756-8H473z"/><glyph unicode="w" horiz-adv-x="1763" d="M49 1098h316l176-666 207 670h268l209-672 180 668h309L1372-8h-280L881 666 666-8H387z"/><glyph unicode="x" horiz-adv-x="1196" d="M47 0l385 557-371 541h334l205-320 207 320h326L762 563 1149 0H815L594 342 373 0H47z"/><glyph unicode="y" horiz-adv-x="1228" d="M41 1098h330l250-748 239 748h324L762-27q-64-169-143.5-238T401-334q-147 0-276 76L229-33q71-43 133-43 40 0 64.5 15.5T471-4z"/><glyph unicode="z" horiz-adv-x="1153" d="M102 0v219l568 627H121v252h936V879L487 252h570V0H102z"/><glyph unicode="{" horiz-adv-x="1003" d="M100 469v238h54q122 0 173.5 46.5T379 918q0 18-3 72t-3 69q0 82 22.5 143t76 112.5T619 1403t233 61l55-207q-81-23-130.5-45.5t-76-52.5-35-62-8.5-83q0-20 3.5-75t3.5-77q0-109-53-174T451 588q106-35 159.5-100.5T664 313q0-22-3.5-76.5T657 162q0-51 8.5-83t35-62.5 76-53T907-82l-55-207q-139 24-233 61t-147.5 89-76 113T373 117q0 15 3 69t3 72q0 118-51.5 164.5T154 469h-54z"/><glyph unicode="|" horiz-adv-x="716" d="M236-262v1896h245V-262H236z"/><glyph unicode="}" horiz-adv-x="1003" d="M96-82q81 23 130.5 45.5t76 53 35 62.5 8.5 83q0 20-3 74.5t-3 76.5q0 109 53.5 174.5T553 588q-107 35-160 100t-53 174q0 22 3 77t3 75q0 51-8.5 83t-35 62-76 52.5T96 1257l56 207q139-24 233-61t147.5-88.5 76-112.5 22.5-143q0-15-3-69t-3-72q0-118 51.5-164.5T850 707h53V469h-53q-122 0-173.5-46.5T625 258q0-18 3-72t3-69q0-82-22.5-143t-76-113T385-228t-233-61z"/><glyph unicode="~" horiz-adv-x="1044" d="M100 510q39 141 96 212t158 71q54 0 115.5-20T582 733t80-20q44 0 68 23t48 77l166-51q-39-141-96-212t-158-71q-54 0-115 20t-112 40-80 20q-44 0-68.5-23T266 459z"/><glyph unicode="¡" horiz-adv-x="663" d="M150 0v41l96 905h172l96-905V0H150zm16 1106v328h332v-328H166z"/><glyph unicode="¢" horiz-adv-x="1189" d="M96 725q0 156 73 287t205.5 208.5T670 1298h12l29 148h213l-35-180q122-42 221-152L926 915q-52 52-101 76L713 426q110 13 221 115l176-179Q931 161 672 156L639-12H426l39 200q-165 61-267 207T96 725zm301 4q0-87 34-156.5T528 463l111 567q-106-9-174-95t-68-206z"/><glyph unicode="£" horiz-adv-x="1318" d="M123 0v207l156 51v289H123v260h156v166q0 227 126.5 354T764 1454q161 0 270-62t191-173l-240-193q-55 71-104.5 103T768 1161q-78 0-124-52t-46-144V807h467V547H598V272h623V0H123z"/><glyph unicode="¤" horiz-adv-x="1474" d="M100 444v207h154q-2 20-2 64 0 51 2 76H100v206h193q65 210 220 335.5T889 1458q122 0 219.5-35.5t161.5-90 123-136.5l-238-180q-62 83-124.5 122.5T883 1178q-180 0-260-181h376V791H573q-2-23-2-72 0-45 2-68h426V444H618q39-91 109-139.5T895 256q84 0 143.5 39T1171 424l226-166q-98-138-216.5-210.5T895-25q-229 0-386.5 126.5T289 444H100z"/><glyph unicode="¥" horiz-adv-x="1404" d="M29 1434h362l316-531 317 531h352L934 758h297V537H854V410h377V188H854V0H551v188H174v222h377v127H174v221h293z"/><glyph unicode="§" horiz-adv-x="1294" d="M113 705q0 173 182 241-86 69-86 189 0 148 111 233.5t309 85.5q299 0 477-194l-168-168q-148 135-301 135-67 0-101-20.5t-34-55.5q0-25 15.5-41.5T582 1075t145-39q248-55 351.5-123T1182 729q0-173-183-242 86-69 86-188 0-148-110.5-233.5T666-20q-300 0-478 194l168 168q148-135 301-135 67 0 101.5 20.5T793 283q0 25-15.5 41.5t-64.5 34T567 397q-248 55-351 123T113 705zm272 45q0-40 48.5-67T592 629q145-37 205-37 53 0 82.5 25t29.5 67q0 40-48.5 67T702 805q-145 37-204 37-53 0-83-25t-30-67z"/><glyph unicode="¨" horiz-adv-x="1024" d="M143 1219v276h299v-276H143zm439 0v276h299v-276H582z"/><glyph unicode="©" horiz-adv-x="1699" d="M109 715q0 150 58 287t157 237 237 159.5 291 59.5 290.5-59 235.5-158 155.5-235.5T1591 719q0-200-98-371T1223.5 76 848-25 473.5 75 206 345t-97 370zm86 0q0-180 84.5-331t235-239T848 57q138 0 260.5 52.5t209 141.5 137 211 50.5 257-50 256.5-136 209.5-208 139.5-259 51.5q-138 0-260.5-52.5t-209-141-137-210.5T195 715zm260 10q0 172 115.5 291T864 1135q106 0 178.5-31t133.5-90l-113-131q-98 88-199 88-97 0-161-71t-64-173 63.5-173T864 483q61 0 106 22.5t97 69.5l115-114q-66-71-141-106.5T858 319q-172 0-287.5 117.5T455 725z"/><glyph unicode="ª" horiz-adv-x="798" d="M100 567v135h570V567H100zm6 437q0 96 66 145t178 49q74 0 148-24v10q0 53-33.5 81.5T367 1294q-78 0-166-32l-43 129q107 49 235 49 269 0 269-260V829H496v66q-68-78-183-78-90 0-148.5 49.5T106 1004zm166 8q0-36 25.5-56t67.5-20q60 0 97.5 30t37.5 76v31q-59 23-111 23-55 0-86-21.5t-31-62.5z"/><glyph unicode="«" horiz-adv-x="1320" d="M84 541v16l344 459 238-115-267-350 267-350L428 82zm557 0v16l344 459 238-115-267-350 267-350L985 82z"/><glyph unicode="­" horiz-adv-x="835" d="M102 485v299h631V485H102z"/><glyph unicode="®" horiz-adv-x="1699" d="M109 715q0 150 58 287t157 237 237 159.5 291 59.5 290.5-59 235.5-158 155.5-235.5T1591 719q0-200-98-371T1223.5 76 848-25 473.5 75 206 345t-97 370zm86 0q0-180 84.5-331t235-239T848 57q138 0 260.5 52.5t209 141.5 137 211 50.5 257-50 256.5-136 209.5-208 139.5-259 51.5q-138 0-260.5-52.5t-209-141-137-210.5T195 715zm350-371v789h350q142 0 225.5-69.5T1204 872q0-93-45.5-154.5T1034 627l193-283h-203L856 598H719V344H545zm174 404h174q65 0 100 31t35 83q0 57-36.5 87T889 979H719V748z"/><glyph unicode="¯" horiz-adv-x="1024" d="M143 1229v215h738v-215H143z"/><glyph unicode="°" horiz-adv-x="983" d="M137 1100q0 139 107.5 242.5T492 1446t247-103.5T846 1100 739 857.5 492 754 244.5 857.5 137 1100zm166 0q0-78 54.5-135.5T492 907t134 57.5 54 135.5-54 135-134 57-134.5-57-54.5-135z"/><glyph unicode="±" horiz-adv-x="1257" d="M76 219l211 205q159-166 360-166 100 0 155.5 45.5T858 428q0 81-70.5 122.5T588 592H430v262h166q106 0 164.5 46t58.5 122q0 69-55.5 111.5T612 1176q-84 0-151.5-42T319 1010l-217 184q105 132 222.5 198t291.5 66q231 0 371.5-107.5T1128 1071q0-231-188-334 108-47 167.5-120.5T1167 424q0-199-139-324T643-25q-173 0-317 64T76 219z"/><glyph unicode="´" horiz-adv-x="1024" d="M299 1219l231 362 269-117-262-245H299z"/><glyph unicode="µ" horiz-adv-x="1740" d="M109 715q0 122 36.5 234.5t105 204.5T412 1314.5t211.5 106T872 1458q217 0 391.5-99t271.5-268 97-372q0-155-61.5-295T1399 182l364-368v-21h-463L1085 4Q975-25 868-25q-130 0-248 37.5T409.5 118 249 277 145 480.5 109 715zm329 4q0-123 55-226.5t155-165T872 266q188 0 309.5 130T1303 715q0 123-55 226.5T1092.5 1106 868 1167q-188 0-309-129.5T438 719z"/><glyph unicode="¶" horiz-adv-x="1208" d="M72 950q0 225 155 354.5T637 1434h399V0H721v471h-49q-130 0-239 30.5t-190 89T117 741 72 950z"/><glyph unicode="·" horiz-adv-x="585" d="M127 471v328h332V471H127z"/><glyph unicode="¸" horiz-adv-x="1024" d="M242-246L424 20h229L502-354z"/><glyph unicode="º" horiz-adv-x="798" d="M84 1128q0 133 91.5 224.5T401 1444t224-90.5 90-223.5q0-132-91.5-223.5T397 815q-134 0-223.5 90T84 1128zm20-561v135h590V567H104zm148 563q0-69 41.5-118T401 963t106 47.5 40 117.5q0 69-42 118.5T397 1296t-105.5-48-39.5-118z"/><glyph unicode="»" horiz-adv-x="1320" d="M98 197l267 350L98 897l238 119 344-459v-16L336 82zm557 0l267 350-267 350 238 119 344-459v-16L893 82z"/><glyph unicode="¿" horiz-adv-x="1114" d="M76 408q0 95 30.5 168t88 120.5 126.5 77T479 821l23 125h209l47-332-10-10q-188-7-273.5-54.5T389 416q0-70 50-109t139-39q165 0 307 142l188-207Q872-18 571-18 345-18 210.5 94T76 408zm370 698v328h332v-328H446z"/><glyph unicode="À" d="M49 0l615 1444h290L1569 0h-330l-131 322H502L371 0H49zm391 1792l269 117 231-363H702zM614 600h381l-190 465z"/><glyph unicode="Á" d="M49 0l615 1444h290L1569 0h-330l-131 322H502L371 0H49zm565 600h381l-190 465zm64 946l231 363 269-117-263-246H678z"/><glyph unicode="Â" d="M49 0l615 1444h290L1569 0h-330l-131 322H502L371 0H49zm361 1546l252 322h294l252-322H969l-162 135-162-135H410zm204-946h381l-190 465z"/><glyph unicode="Ã" d="M49 0l615 1444h290L1569 0h-330l-131 322H502L371 0H49zm338 1577q39 141 96 212t158 71q54 0 115-20t112-40 80-20q44 0 68.5 23t48.5 77l166-51q-39-141-96-212t-158-71q-54 0-115 20t-112 40-80 20q-44 0-68.5-23t-48.5-77zm227-977h381l-190 465z"/><glyph unicode="Ä" d="M49 0l615 1444h290L1569 0h-330l-131 322H502L371 0H49zm391 1546v277h299v-277H440zm174-946h381l-190 465zm265 946v277h299v-277H879z"/><glyph unicode="Å" d="M49 0l598 1407q-86 76-86 180 0 98 74.5 169t173.5 71 173.5-71 74.5-169q0-104-86-180L1569 0h-330l-131 322H502L371 0H49zm565 600h381l-190 465zm68 987q0-53 37-90t90-37 90 37 37 90-37 90-90 37-90-37-37-90z"/><glyph unicode="Æ" horiz-adv-x="2140" d="M18 0l773 1434h1230v-281h-716V862h624V582h-624V281h727V0H991v322H510L340 0H18zm639 600h334v561h-37z"/><glyph unicode="Ç" horiz-adv-x="1511" d="M109 715q0 204 94 373.5T469 1358t387 100q190 0 323-57t242-164l-200-231q-88 79-176 120t-191 41q-179 0-297.5-130T438 719q0-190 117.5-321.5T854 266q114 0 198 41t179 127l201-203q-111-119-235.5-182T897-23L764-354 504-246 668-4Q420 53 264.5 251.5T109 715z"/><glyph unicode="È" horiz-adv-x="1372" d="M172 0v1434h1081v-281H485V862h676V582H485V281h779V0H172zm215 1792l268 117 232-363H649z"/><glyph unicode="É" horiz-adv-x="1372" d="M172 0v1434h1081v-281H485V862h676V582H485V281h779V0H172zm369 1546l231 363 268-117-262-246H541z"/><glyph unicode="Ê" horiz-adv-x="1372" d="M172 0v1434h1081v-281H485V862h676V582H485V281h779V0H172zm137 1546l252 322h295l252-322H868l-161 135-162-135H309z"/><glyph unicode="Ë" horiz-adv-x="1372" d="M172 0v1434h1081v-281H485V862h676V582H485V281h779V0H172zm168 1546v277h299v-277H340zm438 0v277h299v-277H778z"/><glyph unicode="Ì" horiz-adv-x="688" d="M-25 1792l269 117 231-363H238zM186 0v1434h316V0H186z"/><glyph unicode="Í" horiz-adv-x="688" d="M186 0v1434h316V0H186zm27 1546l231 363 269-117-262-246H213z"/><glyph unicode="Î" horiz-adv-x="688" d="M-55 1546l252 322h295l251-322H504l-162 135-162-135H-55zM186 0v1434h316V0H186z"/><glyph unicode="Ï" horiz-adv-x="688" d="M186 0v1434h316V0H186zm0 1546v277h299v-277H186zm439 0v277h299v-277H625z"/><glyph unicode="Ð" horiz-adv-x="1662" d="M80 582v278h153v574h560q221 0 395.5-94t270-256.5T1554 719q0-151-56-283.5T1343 207 1101.5 55.5 793 0H233v582H80zm465-297h248q193 0 312.5 119T1225 715q0 193-119.5 313.5T793 1149H545V860h311V582H545V285z"/><glyph unicode="Ñ" d="M172 0v1434h291l672-883v883h311V0h-268L483 911V0H172zm215 1577q39 141 96 212t158 71q54 0 115-20t112-40 80-20q44 0 68.5 23t48.5 77l166-51q-39-141-96-212t-158-71q-54 0-115 20t-112 40-80 20q-44 0-68.5-23t-48.5-77z"/><glyph unicode="Ò" horiz-adv-x="1740" d="M109 713v4q0 151 57.5 287.5T324 1241t243 158.5 305 58.5q216 0 391-99t272-267.5 97-370.5v-4q0-151-58-287.5T1416 193 1173 34 868-25 563.5 33 322 190.5 166 426t-57 287zm329 4q0-122 55-225t155-164.5T872 266t223.5 60.5T1249 489t54 224v4q0 187-123.5 318.5T868 1167q-124 0-223-60T492 945t-54-224v-4zm43 1075l269 117 231-363H743z"/><glyph unicode="Ó" horiz-adv-x="1740" d="M109 713v4q0 151 57.5 287.5T324 1241t243 158.5 305 58.5q216 0 391-99t272-267.5 97-370.5v-4q0-151-58-287.5T1416 193 1173 34 868-25 563.5 33 322 190.5 166 426t-57 287zm329 4q0-122 55-225t155-164.5T872 266t223.5 60.5T1249 489t54 224v4q0 187-123.5 318.5T868 1167q-124 0-223-60T492 945t-54-224v-4zm322 829l231 363 269-117-263-246H760z"/><glyph unicode="Ô" horiz-adv-x="1740" d="M109 713v4q0 151 57.5 287.5T324 1241t243 158.5 305 58.5q216 0 391-99t272-267.5 97-370.5v-4q0-151-58-287.5T1416 193 1173 34 868-25 563.5 33 322 190.5 166 426t-57 287zm329 4q0-122 55-225t155-164.5T872 266t223.5 60.5T1249 489t54 224v4q0 187-123.5 318.5T868 1167q-124 0-223-60T492 945t-54-224v-4zm33 829l252 322h295l252-322h-240l-162 135-161-135H471z"/><glyph unicode="Õ" horiz-adv-x="1740" d="M109 713v4q0 151 57.5 287.5T324 1241t243 158.5 305 58.5q216 0 391-99t272-267.5 97-370.5v-4q0-151-58-287.5T1416 193 1173 34 868-25 563.5 33 322 190.5 166 426t-57 287zm329 4q0-122 55-225t155-164.5T872 266t223.5 60.5T1249 489t54 224v4q0 187-123.5 318.5T868 1167q-124 0-223-60T492 945t-54-224v-4zm11 860q39 141 95.5 212t157.5 71q54 0 115.5-20t112.5-40 80-20q44 0 68 23t48 77l166-51q-39-141-96-212t-158-71q-54 0-115 20t-112 40-80 20q-44 0-68.5-23t-48.5-77z"/><glyph unicode="Ö" horiz-adv-x="1740" d="M109 713v4q0 151 57.5 287.5T324 1241t243 158.5 305 58.5q216 0 391-99t272-267.5 97-370.5v-4q0-151-58-287.5T1416 193 1173 34 868-25 563.5 33 322 190.5 166 426t-57 287zm329 4q0-122 55-225t155-164.5T872 266t223.5 60.5T1249 489t54 224v4q0 187-123.5 318.5T868 1167q-124 0-223-60T492 945t-54-224v-4zm64 829v277h299v-277H502zm438 0v277h299v-277H940z"/><glyph unicode="Ø" horiz-adv-x="1740" d="M92-10l201 233q-88 98-136 224.5T109 715q0 122 36.5 234.5t105 204.5T412 1314.5t211.5 106T872 1458q221 0 396-102l80 88h301l-201-234q89-98 136.5-224t47.5-267q0-152-58-289t-158-237-243-159-305-59Q649-25 473 78l-80-88H92zm340 729q0-139 72-252l567 657q-95 50-203 50-189 0-312.5-134T432 719zm238-410q93-49 202-49 189 0 313 134t124 321q0 139-72 252z"/><glyph unicode="Ù" horiz-adv-x="1548" d="M150 614v820h315V623q0-173 81-264t228-91 228 88 81 256v822h316V625q0-319-166.5-483.5T770-23q-294 0-457 162.5T150 614zm266 1168l268 116 231-362H678z"/><glyph unicode="Ú" horiz-adv-x="1548" d="M150 614v820h315V623q0-173 81-264t228-91 228 88 81 256v822h316V625q0-319-166.5-483.5T770-23q-294 0-457 162.5T150 614zm483 922l231 362 269-116-263-246H633z"/><glyph unicode="Û" horiz-adv-x="1548" d="M150 614v820h315V623q0-173 81-264t228-91 228 88 81 256v822h316V625q0-319-166.5-483.5T770-23q-294 0-457 162.5T150 614zm225 932l252 322h295l252-322H934l-162 135-162-135H375z"/><glyph unicode="Ü" horiz-adv-x="1548" d="M150 614v820h315V623q0-173 81-264t228-91 228 88 81 256v822h316V625q0-319-166.5-483.5T770-23q-294 0-457 162.5T150 614zm256 932v277h299v-277H406zm438 0v277h299v-277H844z"/><glyph unicode="Ý" horiz-adv-x="1466" d="M25 1434h368l342-576 348 576h359L891 571V0H575v565zm587 102l232 362 268-116-262-246H612z"/><glyph unicode="Þ" horiz-adv-x="1378" d="M172 0v1434h315v-209h271q254 0 401.5-136.5T1307 727q0-122-45-219.5T1137.5 348t-184-94.5T727 221H487V0H172zm315 502h250q116 0 183 61t67 158q0 106-68 162.5T731 940H487V502z"/><glyph unicode="ß" horiz-adv-x="1269" d="M139 0v1030q0 225 136 352t368 127q214 0 335.5-112.5T1100 1110q0-64-14-116.5t-42-92.5-58.5-69-72.5-58q269-116 269-364 0-204-154-314.5T612-4v233q127 6 194.5 54.5T874 420q0 83-71.5 134T612 621v204q85 53 133 114.5t48 141.5q0 77-44.5 121.5T629 1247q-80 0-130-56t-50-149V0H139z"/><glyph unicode="à" horiz-adv-x="1212" d="M74 315v4q0 174 119.5 262.5T516 670q138 0 268-45v18q0 98-59.5 149.5T549 844q-141 0-303-60l-78 238q100 44 198 66t228 22q249 0 369-122t120-351V0H782v119Q656-20 451-20q-162 0-269.5 89T74 315zm184 1149l268 117 232-362H520zM375 328q0-62 47-97.5T545 195q108 0 175.5 53.5T788 387v55q-87 41-198 41-101 0-158-39t-57-112v-4z"/><glyph unicode="á" horiz-adv-x="1212" d="M74 315v4q0 174 119.5 262.5T516 670q138 0 268-45v18q0 98-59.5 149.5T549 844q-141 0-303-60l-78 238q100 44 198 66t228 22q249 0 369-122t120-351V0H782v119Q656-20 451-20q-162 0-269.5 89T74 315zm301 13q0-62 47-97.5T545 195q108 0 175.5 53.5T788 387v55q-87 41-198 41-101 0-158-39t-57-112v-4zm90 891l231 362 269-117-263-245H465z"/><glyph unicode="â" horiz-adv-x="1212" d="M74 315v4q0 174 119.5 262.5T516 670q138 0 268-45v18q0 98-59.5 149.5T549 844q-141 0-303-60l-78 238q100 44 198 66t228 22q249 0 369-122t120-351V0H782v119Q656-20 451-20q-162 0-269.5 89T74 315zm129 904l252 321h295l251-321H762l-162 135-162-135H203zm172-891q0-62 47-97.5T545 195q108 0 175.5 53.5T788 387v55q-87 41-198 41-101 0-158-39t-57-112v-4z"/><glyph unicode="ã" horiz-adv-x="1212" d="M74 315v4q0 174 119.5 262.5T516 670q138 0 268-45v18q0 98-59.5 149.5T549 844q-141 0-303-60l-78 238q100 44 198 66t228 22q249 0 369-122t120-351V0H782v119Q656-20 451-20q-162 0-269.5 89T74 315zm110 934q39 141 96 212t158 71q54 0 115-20t112-40 80-20q44 0 68.5 23t48.5 77l166-51q-38-141-95.5-211.5T774 1219q-54 0-115 19.5T547 1278t-80 20q-44 0-68.5-23t-48.5-77zm191-921q0-62 47-97.5T545 195q108 0 175.5 53.5T788 387v55q-87 41-198 41-101 0-158-39t-57-112v-4z"/><glyph unicode="ä" horiz-adv-x="1212" d="M74 315v4q0 174 119.5 262.5T516 670q138 0 268-45v18q0 98-59.5 149.5T549 844q-141 0-303-60l-78 238q100 44 198 66t228 22q249 0 369-122t120-351V0H782v119Q656-20 451-20q-162 0-269.5 89T74 315zm159 904v276h299v-276H233zm142-891q0-62 47-97.5T545 195q108 0 175.5 53.5T788 387v55q-87 41-198 41-101 0-158-39t-57-112v-4zm297 891v276h299v-276H672z"/><glyph unicode="å" horiz-adv-x="1212" d="M74 315v4q0 174 119.5 262.5T516 670q138 0 268-45v18q0 98-59.5 149.5T549 844q-141 0-303-60l-78 238q100 44 198 66t228 22q249 0 369-122t120-351V0H782v119Q656-20 451-20q-162 0-269.5 89T74 315zm280 1139q0 98 74.5 169t173.5 71 173.5-71 74.5-169-74.5-169-173.5-71-173.5 71-74.5 169zm21-1126q0-62 47-97.5T545 195q108 0 175.5 53.5T788 387v55q-87 41-198 41-101 0-158-39t-57-112v-4zm100 1126q0-52 37.5-89.5T602 1327t89.5 37.5T729 1454t-37.5 89.5T602 1581t-89.5-37.5T475 1454z"/><glyph unicode="æ" horiz-adv-x="1947" d="M74 322q0 173 119.5 260.5T516 670q138 0 268-45v18q0 98-59.5 149.5T549 844q-141 0-303-60l-78 238q100 44 198 66t228 22q259 0 373-139 144 147 362 147 130 0 232.5-49T1727 936t95.5-190 32.5-226q0-22-4-80h-764q25-105 94.5-160t174.5-55q78 0 139.5 26.5T1622 338l178-158Q1635-25 1352-25q-125 0-233 43.5T934 141Q715-20 487-20q-186 0-299.5 91T74 322zm301 12q0-63 46.5-99T545 199q147 0 280 104-31 74-39 141-90 39-196 39-102 0-158.5-37.5T375 334zm708 301h469q-14 107-74.5 170T1321 868q-95 0-157-62.5T1083 635z"/><glyph unicode="ç" horiz-adv-x="1169" d="M86 545q0 157 73 287.5t206 208 297 77.5q149 0 253-46.5T1100 934L909 729q-58 61-115 91t-135 30q-115 0-190.5-88T393 549q0-130 77-217.5T672 244q74 0 132 29t120 87l182-184q-83-90-174.5-140.5T709-23L575-354 315-246 483 0Q304 54 195 203T86 545z"/><glyph unicode="è" horiz-adv-x="1255" d="M86 543v4q0 156 68.5 286T348 1040.5t281 77.5q133 0 237.5-49t168-133 96-189.5T1163 522v-4q0-20-4-78H395q23-105 93.5-160T664 225q78 0 139.5 26.5T930 338l178-158Q943-25 659-25q-249 0-411 159T86 543zm164 921l268 117 232-362H512zm141-829h469q-14 107-74.5 170T629 868q-95 0-157-62.5T391 635z"/><glyph unicode="é" horiz-adv-x="1255" d="M86 543v4q0 156 68.5 286T348 1040.5t281 77.5q133 0 237.5-49t168-133 96-189.5T1163 522v-4q0-20-4-78H395q23-105 93.5-160T664 225q78 0 139.5 26.5T930 338l178-158Q943-25 659-25q-249 0-411 159T86 543zm305 92h469q-14 107-74.5 170T629 868q-95 0-157-62.5T391 635zm113 584l231 362 269-117-263-245H504z"/><glyph unicode="ê" horiz-adv-x="1255" d="M86 543v4q0 156 68.5 286T348 1040.5t281 77.5q133 0 237.5-49t168-133 96-189.5T1163 522v-4q0-20-4-78H395q23-105 93.5-160T664 225q78 0 139.5 26.5T930 338l178-158Q943-25 659-25q-249 0-411 159T86 543zm141 676l252 321h295l252-321H786l-161 135-162-135H227zm164-584h469q-14 107-74.5 170T629 868q-95 0-157-62.5T391 635z"/><glyph unicode="ë" horiz-adv-x="1255" d="M86 543v4q0 156 68.5 286T348 1040.5t281 77.5q133 0 237.5-49t168-133 96-189.5T1163 522v-4q0-20-4-78H395q23-105 93.5-160T664 225q78 0 139.5 26.5T930 338l178-158Q943-25 659-25q-249 0-411 159T86 543zm172 676v276h299v-276H258zm133-584h469q-14 107-74.5 170T629 868q-95 0-157-62.5T391 635zm305 584v276h299v-276H696z"/><glyph unicode="ì" horiz-adv-x="618" d="M-55 1464l268 117 231-362H207zM154 0v1098h311V0H154z"/><glyph unicode="í" horiz-adv-x="618" d="M154 0v1098h311V0H154zm20 1219l232 362 268-117-262-245H174z"/><glyph unicode="î" horiz-adv-x="618" d="M154 0v1098h311V0H154zm0 1219l252 321h294l252-321H713l-162 135-162-135H154z"/><glyph unicode="ï" horiz-adv-x="618" d="M-59 1219v276h299v-276H-59zM154 0v1098h311V0H154zm225 1219v276h299v-276H379z"/><glyph unicode="ð" horiz-adv-x="1327" d="M86 514q0 213 131.5 347T555 995q130 0 252-65l-178 237-234-96-114 154 235 94-131 176h350l47-68 205 84 113-153-209-84 166-236q97-137 138.5-252t41.5-247q0-115-40-217t-113-179.5T899.5 20 653-25q-121 0-226.5 42t-180 114.5-117.5 172T86 514zm303-6q0-114 77-192t198-78q123 0 196.5 76.5T934 508q0 113-75 189.5T662 774q-123 0-198-75t-75-191z"/><glyph unicode="ñ" horiz-adv-x="1275" d="M139 0v1098h312V942q64 82 138.5 129t182.5 47q176 0 274.5-108.5T1145 711V0H834v612q0 109-49.5 166.5T645 836q-91 0-142.5-57.5T451 612V0H139zm86 1249q39 141 96 212t158 71q54 0 115-20t112-40 80-20q44 0 68.5 23t48.5 77l166-51q-38-141-95.5-211.5T815 1219q-54 0-115 19.5T588 1278t-80 20q-44 0-68.5-23t-48.5-77z"/><glyph unicode="ò" horiz-adv-x="1359" d="M86 543v4q0 117 45.5 222t124 182T445 1073t237 45q167 0 303-75.5T1197.5 837t76.5-286v-4q0-156-77-287T983 52 678-25q-167 0-303 76T162.5 257 86 543zm213 921l268 117 232-362H561zm94-917q0-125 81.5-214T682 244q129 0 207 86.5T967 543v4q0 125-81.5 214T678 850q-129 0-207-86.5T393 551v-4z"/><glyph unicode="ó" horiz-adv-x="1359" d="M86 543v4q0 117 45.5 222t124 182T445 1073t237 45q167 0 303-75.5T1197.5 837t76.5-286v-4q0-156-77-287T983 52 678-25q-167 0-303 76T162.5 257 86 543zm307 4q0-125 81.5-214T682 244q129 0 207 86.5T967 543v4q0 125-81.5 214T678 850q-129 0-207-86.5T393 551v-4zm168 672l232 362 268-117-262-245H561z"/><glyph unicode="ô" horiz-adv-x="1359" d="M86 543v4q0 117 45.5 222t124 182T445 1073t237 45q167 0 303-75.5T1197.5 837t76.5-286v-4q0-156-77-287T983 52 678-25q-167 0-303 76T162.5 257 86 543zm195 676l251 321h295l252-321H840l-162 135-162-135H281zm112-672q0-125 81.5-214T682 244q129 0 207 86.5T967 543v4q0 125-81.5 214T678 850q-129 0-207-86.5T393 551v-4z"/><glyph unicode="õ" horiz-adv-x="1359" d="M86 543v4q0 117 45.5 222t124 182T445 1073t237 45q167 0 303-75.5T1197.5 837t76.5-286v-4q0-156-77-287T983 52 678-25q-167 0-303 76T162.5 257 86 543zm172 706q39 141 96 212t158 71q54 0 115-20t112-40 80-20q44 0 68.5 23t48.5 77l166-51q-38-141-95.5-211.5T848 1219q-54 0-115 19.5T621 1278t-80 20q-44 0-68.5-23t-48.5-77zm135-702q0-125 81.5-214T682 244q129 0 207 86.5T967 543v4q0 125-81.5 214T678 850q-129 0-207-86.5T393 551v-4z"/><glyph unicode="ö" horiz-adv-x="1359" d="M86 543v4q0 117 45.5 222t124 182T445 1073t237 45q167 0 303-75.5T1197.5 837t76.5-286v-4q0-156-77-287T983 52 678-25q-167 0-303 76T162.5 257 86 543zm225 676v276h299v-276H311zm82-672q0-125 81.5-214T682 244q129 0 207 86.5T967 543v4q0 125-81.5 214T678 850q-129 0-207-86.5T393 551v-4zm357 672v276h299v-276H750z"/><glyph unicode="ø" horiz-adv-x="1359" d="M55-10l164 188Q86 333 86 545q0 157 77 288t214 208 305 77q160 0 293-71l57 61h273l-166-190q135-157 135-369 0-157-77-288.5T983 52 678-25q-157 0-295 72l-55-57H55zm330 559q0-75 33-146l377 431q-52 24-117 24-131 0-212-89t-81-220zm182-291q55-22 115-22 131 0 212 89t81 220q0 74-33 145z"/><glyph unicode="ù" horiz-adv-x="1275" d="M131 387v711h311V485q0-109 49.5-166T631 262q91 0 142.5 57.5T825 485v613h312V0H825v156Q761 74 686.5 27T504-20Q328-20 229.5 88.5T131 387zm158 1077l268 117 231-362H551z"/><glyph unicode="ú" horiz-adv-x="1275" d="M131 387v711h311V485q0-109 49.5-166T631 262q91 0 142.5 57.5T825 485v613h312V0H825v156Q761 74 686.5 27T504-20Q328-20 229.5 88.5T131 387zm354 832l232 362 268-117-262-245H485z"/><glyph unicode="û" horiz-adv-x="1275" d="M131 387v711h311V485q0-109 49.5-166T631 262q91 0 142.5 57.5T825 485v613h312V0H825v156Q761 74 686.5 27T504-20Q328-20 229.5 88.5T131 387zm107 832l251 321h295l252-321H797l-162 135-162-135H238z"/><glyph unicode="ü" horiz-adv-x="1275" d="M131 387v711h311V485q0-109 49.5-166T631 262q91 0 142.5 57.5T825 485v613h312V0H825v156Q761 74 686.5 27T504-20Q328-20 229.5 88.5T131 387zm137 832v276h299v-276H268zm439 0v276h299v-276H707z"/><glyph unicode="ý" horiz-adv-x="1228" d="M41 1098h330l250-748 239 748h324L762-27q-64-169-143.5-238T401-334q-147 0-276 76L229-33q71-43 133-43 40 0 64.5 15.5T471-4zm428 121l231 362 269-117-262-245H469z"/><glyph unicode="þ" horiz-adv-x="1382" d="M139-328v1823h312V940q133 178 342 178 97 0 186-38t159-107.5T1250 793t42-244q0-108-27-200.5T1191 189 1081 74.5t-136.5-71T793-20q-205 0-342 163v-471H139zm307 877q0-136 77.5-220.5T713 244t190 84.5T981 549t-78 220.5T713 854t-189.5-84.5T446 549z"/><glyph unicode="ÿ" horiz-adv-x="1228" d="M41 1098h330l250-748 239 748h324L762-27q-64-169-143.5-238T401-334q-147 0-276 76L229-33q71-43 133-43 40 0 64.5 15.5T471-4zm205 121v276h299v-276H246zm438 0v276h299v-276H684z"/><glyph unicode="Œ" horiz-adv-x="2201" d="M109 715q0 151 56 283.5T320 1227t241.5 151.5T870 1434h1213v-281h-717V862h625V582h-625V281h727V0H870Q649 0 474.5 94t-270 256.5T109 715zm329 4q0-193 119.5-313.5T870 285h183v864H870q-193 0-312.5-119T438 719z"/><glyph unicode="œ" horiz-adv-x="2115" d="M86 545q0 156 78 288t213 208.5 295 76.5q130 0 238.5-50.5T1096 926q69 90 172 141t229 51q130 0 232.5-49T1895 936t95.5-190 32.5-226q0-22-4-80h-764q25-105 94.5-160t174.5-55q78 0 139.5 26.5T1790 338l178-158Q1803-25 1520-25q-136 0-246.5 51T1090 170q-76-91-188.5-143T659-25q-115 0-221 45T255 141 132 322.5 86 545zm307 4q0-127 78.5-216T672 244q125 0 199.5 86.5T946 545q0 127-78 216t-200 89q-125 0-200-87t-75-214zm858 86h469q-14 107-74.5 170T1489 868q-95 0-157-62.5T1251 635z"/><glyph unicode="Ÿ" horiz-adv-x="1466" d="M25 1434h368l342-576 348 576h359L891 571V0H575v565zm340 112v277h299v-277H365zm438 0v277h299v-277H803z"/><glyph unicode="ˆ" horiz-adv-x="1024" d="M113 1219l252 321h294l252-321H672l-162 135-162-135H113z"/><glyph unicode="˜" horiz-adv-x="1024" d="M90 1249q39 141 96 212t158 71q54 0 115-20t112-40 80-20q44 0 68.5 23t48.5 77l166-51q-38-141-95.5-211.5T680 1219q-54 0-115 19.5T453 1278t-80 20q-44 0-68.5-23t-48.5-77z"/><glyph horiz-adv-x="954"/><glyph horiz-adv-x="1909"/><glyph horiz-adv-x="954"/><glyph horiz-adv-x="1909"/><glyph horiz-adv-x="636"/><glyph horiz-adv-x="477"/><glyph horiz-adv-x="318"/><glyph horiz-adv-x="318"/><glyph horiz-adv-x="238"/><glyph horiz-adv-x="381"/><glyph horiz-adv-x="106"/><glyph unicode="‐" horiz-adv-x="835" d="M102 485v299h631V485H102z"/><glyph unicode="‑" horiz-adv-x="835" d="M102 485v299h631V485H102z"/><glyph unicode="‒" horiz-adv-x="835" d="M102 485v299h631V485H102z"/><glyph unicode="–" horiz-adv-x="1081" d="M102 489v291h877V489H102z"/><glyph unicode="—" horiz-adv-x="1839" d="M102 489v291h1635V489H102z"/><glyph unicode="‘" horiz-adv-x="585" d="M117 784v277q0 197 95.5 288.5T496 1444l26-129q-105-10-156.5-62.5T322 1112h127V784H117z"/><glyph unicode="’" horiz-adv-x="585" d="M63 903q105 10 157 62.5t44 140.5H137v328h332v-277q0-197-95.5-288.5T90 774z"/><glyph unicode="‚" horiz-adv-x="585" d="M53-203q105 10 157 62.5T254 0H127v328h332V51q0-197-95.5-288.5T80-332z"/><glyph unicode="“" horiz-adv-x="1105" d="M117 784v277q0 197 95.5 288.5T496 1444l26-129q-105-10-156.5-62.5T322 1112h127V784H117zm520 0v277q0 197 95.5 288.5T1016 1444l26-129q-105-10-156.5-62.5T842 1112h127V784H637z"/><glyph unicode="”" horiz-adv-x="1105" d="M63 903q105 10 157 62.5t44 140.5H137v328h332v-277q0-197-95.5-288.5T90 774zm521 0q105 10 156.5 62.5T784 1106H657v328h332v-277q0-197-95.5-288.5T610 774z"/><glyph unicode="„" horiz-adv-x="1105" d="M53-203q105 10 157 62.5T254 0H127v328h332V51q0-197-95.5-288.5T80-332zm520 0q105 10 157 62.5T774 0H647v328h332V51q0-197-95.5-288.5T600-332z"/><glyph unicode="•" horiz-adv-x="1024" d="M207 721q0 126 89.5 215.5T512 1026t215.5-89.5T817 721t-89.5-215.5T512 416t-215.5 89.5T207 721z"/><glyph unicode="…" horiz-adv-x="1720" d="M127 0v319h324V0H127zm571 0v319h324V0H698zm572 0v319h323V0h-323z"/><glyph horiz-adv-x="381"/><glyph unicode="‹" horiz-adv-x="763" d="M84 541v16l344 459 238-115-267-350 267-350L428 82z"/><glyph unicode="›" horiz-adv-x="763" d="M98 197l267 350L98 897l238 119 344-459v-16L336 82z"/><glyph horiz-adv-x="477"/><glyph unicode="™" horiz-adv-x="1413" d="M53 1307v127h520v-127H385V803H242v504H53zm654-504v631h151l166-267 166 267h147V803h-135v426l-174-277h-12l-174 277V803H707z"/><glyph unicode="◼" horiz-adv-x="1095" d="M0 0v1096h1096V0H0z"/><glyph unicode="ﬁ" horiz-adv-x="1400" d="M63 831v256h130v70q0 352 339 352 127 0 222-30v-258q-73 26-142 26-112 0-112-119v-43h252V831H504V0H193v831H63zm865 388v276h327v-276H928zM936 0v1098h311V0H936z"/><glyph unicode="ﬂ" horiz-adv-x="1400" d="M63 831v256h130v70q0 352 339 352 127 0 222-30v-258q-73 26-142 26-112 0-112-119v-43h252V831H504V0H193v831H63zM936 0v1495h311V0H936z"/></font>
</defs>
</svg>
