<svg xmlns="http://www.w3.org/2000/svg"><defs><font id="gothammediumregular" horiz-adv-x="1372"><font-face units-per-em="2048" ascent="1638" descent="-410"/><glyph horiz-adv-x="0"/><glyph horiz-adv-x="682"/><glyph horiz-adv-x="614"/><glyph horiz-adv-x="614"/><glyph horiz-adv-x="614"/><glyph unicode="!" horiz-adv-x="618" d="M164 1362v72h291v-72l-76-909H242zM174 0v281h272V0H174z"/><glyph unicode="&quot;" horiz-adv-x="997" d="M123 821l47 613h281v-11L252 821H123zm448 0l50 613h280v-11L700 821H571z"/><glyph unicode="#" horiz-adv-x="1433" d="M80 330v213h221l59 356H156v213h241l56 322h219l-56-322h336l54 322h219l-56-322h183V899h-219l-60-356h205V330h-242L979 0H760l57 330H481L426 0H207l57 330H80zm438 213h336l61 356H580z"/><glyph unicode="$" horiz-adv-x="1314" d="M100 207l131 186q186-150 361-176v401q-230 60-334 156.5T154 1040q0 165 118.5 272T584 1434v118h178v-122q209-25 385-156l-115-193q-134 101-278 131V823q234-59 339-159t105-265q0-167-119.5-273.5T762 2v-203H584V4Q317 34 100 207zm295 848q0-68 42-111.5T592 866v361q-94-7-145.5-54.5T395 1055zm359-846q96 7 149 54.5T956 385q0 72-43 116.5T754 580V209z"/><glyph unicode="%" horiz-adv-x="1738" d="M98 1081q0 154 95.5 261.5T438 1450q148 0 242-106t94-259q0-154-95.5-261T434 717q-148 0-242 105.5T98 1081zM244 0l1048 1434h203L446 0H244zm37 1085q0-90 44.5-150.5T438 874q70 0 112 59t42 148q0 90-45 150.5T434 1292q-70 0-111.5-59T281 1085zm684-737q0 154 95.5 261.5T1305 717q148 0 241.5-106t93.5-259q0-154-95.5-261T1300-16q-148 0-241.5 105.5T965 348zm182 4q0-90 45-150.5t113-60.5q70 0 111.5 59t41.5 148q0 90-45 150.5T1300 559q-70 0-111.5-59T1147 352z"/><glyph unicode="&amp;" horiz-adv-x="1425" d="M80 391q0 274 305 404-62 80-90.5 151T266 1096q0 152 113 257t299 105q168 0 274.5-99t106.5-249q0-255-316-375l246-250q80 119 154 277l190-100q-99-199-194-328l225-230-186-133-191 195Q788-20 547-20 344-20 212 92.5T80 391zm254 8q0-92 67.5-151.5T573 188q140 0 271 125L524 639q-96-41-143-103.5T334 399zm168 686q0-55 23.5-101.5T610 870q114 41 170 95t56 131q0 74-45.5 119T672 1260q-76 0-123-49t-47-126z"/><glyph unicode="'" horiz-adv-x="550" d="M123 821l47 613h285v-11L254 821H123z"/><glyph unicode="(" horiz-adv-x="901" d="M129 588q0 287 142 504t425 372l109-166q-221-147-324.5-315.5T377 588t103.5-395T805-123L696-289Q129 23 129 588z"/><glyph unicode=")" horiz-adv-x="901" d="M98-123Q319 24 422.5 193T526 588 422.5 982.5 98 1298l109 166q567-313 567-876 0-564-567-877z"/><glyph unicode="*" horiz-adv-x="880" d="M119 1008l233 102-233 102 74 125 204-149-28 250h143l-29-250 205 149 74-125-234-102 234-102-74-125-205 149 29-250H369l28 250-204-149z"/><glyph unicode="+" horiz-adv-x="1310" d="M145 608v226h394v391h233V834h393V608H772V217H539v391H145z"/><glyph unicode="," horiz-adv-x="550" d="M70-193Q259-155 244 0H139v281h273V43q0-166-78.5-247T96-297z"/><glyph unicode="-" horiz-adv-x="835" d="M115 506v244h606V506H115z"/><glyph unicode="." horiz-adv-x="550" d="M139 0v281h273V0H139z"/><glyph unicode="/" horiz-adv-x="1067" d="M-51-262l925 1896h216L164-262H-51z"/><glyph unicode="0" horiz-adv-x="1482" d="M117 715q0 206 77 374.5T415 1358t328 100 327.5-99 219.5-266.5 76-373.5q0-154-45.5-290t-126-236.5-199-159T739-25q-184 0-327 99T193 341t-76 374zm260 4q0-144 44.5-261T550 272t193-69 192.5 68.5 127 184.5 43.5 259-44.5 260-129 186.5T739 1231t-192-68.5-126.5-184T377 719z"/><glyph unicode="1" horiz-adv-x="811" d="M53 1321l385 123h176V0H365v1188l-259-72z"/><glyph unicode="2" horiz-adv-x="1255" d="M100 0v199l494 419q151 127 209.5 210t58.5 178q0 103-65 163t-166 60q-94 0-169-51t-163-164l-178 139q73 103 141.5 165.5t165 99T649 1454q214 0 343.5-118.5T1122 1024q0-68-15.5-126T1065 790.5 989.5 686 887 583 750 467L455 221h682V0H100z"/><glyph unicode="3" horiz-adv-x="1265" d="M88 227l176 164q79-94 170-141t207-47q107 0 177.5 60.5T889 422q0 106-88 164.5T559 645H442l-41 158 387 411H168v220h948v-189L717 836q87-12 159-39t133-73.5 95.5-121.5 34.5-172q0-200-140-327.5T637-25Q295-25 88 227z"/><glyph unicode="4" horiz-adv-x="1394" d="M74 502l796 942h215V528h205V322h-205V0H844v322H121zm299 26h471v568z"/><glyph unicode="5" horiz-adv-x="1273" d="M96 195l156 182q187-172 369-172 129 0 206.5 68T905 455q0 110-81.5 174.5T608 694q-131 0-264-63L193 731l40 703h857v-224H451l-23-336q112 41 227 41 107 0 196.5-28t157.5-83 106-142 38-199q0-221-146-354.5T623-25Q323-25 96 195z"/><glyph unicode="6" horiz-adv-x="1343" d="M117 676q0 133 24.5 250.5t75 215 122.5 168T511.5 1419t219.5 39q133 0 235.5-40t202.5-120l-135-194q-82 64-152.5 94.5T723 1229q-155 0-245-125.5T379 774q68 67 147.5 105.5T721 918q141 0 253.5-52T1155 709.5t68-244.5q0-142-70.5-254.5t-192-174T690-25q-246 0-399 150-87 89-130.5 216T117 676zm270-223q0-114 82-187t215-73q131 0 209 73.5T971 455q0 110-80.5 181T678 707q-130 0-210.5-73.5T387 453z"/><glyph unicode="7" horiz-adv-x="1247" d="M139 1212v222h1008v-191L500 0H217l643 1212H139z"/><glyph unicode="8" horiz-adv-x="1290" d="M98 391q0 244 258 352-209 109-209 322 0 166 141.5 277.5T645 1454t356.5-111.5T1143 1065q0-213-209-322 125-58 191.5-140.5T1192 397q0-190-154-303.5T645-20q-156 0-280 50.5T169.5 175 98 391zm246 17q0-94 82-156t219-62 219 62 82 156q0 98-85.5 158.5T645 627t-215.5-60.5T344 408zm45 634q0-95 72.5-155T645 827t183.5 60 72.5 153q0 86-71 144.5T645 1243q-113 0-184.5-58T389 1042z"/><glyph unicode="9" horiz-adv-x="1343" d="M121 961q0 214 149.5 355.5T655 1458q132 0 226.5-37t171.5-114q85-85 129.5-215t44.5-334q0-231-72.5-407.5t-213-276T612-25q-140 0-249 44.5T154 147l137 193q83-70 159.5-102.5T618 205q156 0 248.5 124T965 655Q839 504 629 504q-230 0-369 124.5T121 961zm252 12q0-115 80-186.5T666 715q132 0 211 75t79 185q0 116-82 191t-217 75q-130 0-207-76t-77-192z"/><glyph unicode=":" horiz-adv-x="571" d="M150 0v281h272V0H150zm0 801v280h272V801H150z"/><glyph unicode=";" horiz-adv-x="571" d="M80-193Q269-155 254 0H150v281h272V43q0-166-78.5-247T106-297zm70 994v280h272V801H150z"/><glyph unicode="&lt;" horiz-adv-x="1310" d="M143 610v221l977 453v-235L389 723l731-328V158z"/><glyph unicode="=" horiz-adv-x="1310" d="M176 350v230h959V350H176zm0 512v230h959V862H176z"/><glyph unicode="&gt;" horiz-adv-x="1310" d="M190 158v235l732 326-732 328v237l977-453V610z"/><glyph unicode="?" horiz-adv-x="1107" d="M49 1225q200 227 494 227 217 0 348-113t131-305q0-94-32-168.5t-89.5-123-129.5-79T610 618l-20-165H424l-41 331 10 11q379 15 379 231 0 89-63 143t-172 54q-181 0-334-162zM365 0v281h274V0H365z"/><glyph unicode="@" horiz-adv-x="2007" d="M109 561q0 181 70 346t189.5 286 286 193 351.5 72q184 0 350.5-67.5t284.5-179T1828.5 952t69.5-305q0-125-32-224t-87.5-160.5-126-93.5-151.5-32q-112 0-188 40.5T1198 281q-140-144-317-144-158 0-264.5 107T510 524q0 105 39.5 201T653 888.5 802 996t173 40q191 0 289-151l24 123 199-31-90-516q-11-68-11-88 0-67 43-106.5t117-39.5q116 0 193.5 109.5T1817 647q0 112-39 220.5T1665 1068t-172 162.5-224.5 110T1006 1380q-172 0-324-65t-259.5-175-170-261T190 561q0-168 62-318T422.5-16.5 687-190t335-64q147 0 265.5 33.5T1528-117l37-61q-253-154-543-154-129 0-249.5 32.5T552-209 369-68.5 229 112t-88.5 213T109 561zm610-24q0-104 60-163t157-59q113 0 198 96t85 228q0 97-61 159t-154 62q-115 0-200-93.5T719 537z"/><glyph unicode="A" horiz-adv-x="1617" d="M61 0l631 1444h234L1556 0h-266l-145 346H467L319 0H61zm498 569h494l-248 574z"/><glyph unicode="B" horiz-adv-x="1478" d="M184 0v1434h643q217 0 344-99t127-268q0-216-204-322 137-46 210.5-128.5T1378 395q0-190-143-292.5T848 0H184zm248 223h418q131 0 203.5 51t72.5 148q0 94-74 144t-221 50H432V223zm0 606h344q125 0 198 50t73 147q0 88-65.5 136T795 1210H432V829z"/><glyph unicode="C" horiz-adv-x="1511" d="M121 715q0 152 55 288.5t151 237 235 159 298 58.5q185 0 316.5-57.5T1421 1235l-161-186q-94 86-190 132t-212 46q-134 0-243-67.5t-169.5-184T385 719t60.5-257T615 276t243-69q124 0 217.5 46T1270 393l162-164q-80-83-158.5-136t-186-85.5T850-25q-154 0-290 58T328 189.5 176.5 425 121 715z"/><glyph unicode="D" horiz-adv-x="1601" d="M184 0v1434h535q166 0 309-55t242-150 155-227 56-283-56-283.5T1270 207 1028 55.5 719 0H184zm252 229h283q224 0 361 136t137 350q0 215-137.5 352T719 1204H436V229z"/><glyph unicode="E" d="M184 0v1434h1063v-226H436V836h719V610H436V225h821V0H184z"/><glyph unicode="F" horiz-adv-x="1343" d="M184 0v1434h1067v-230H436V813h723V584H436V0H184z"/><glyph unicode="G" horiz-adv-x="1605" d="M121 715q0 150 55.5 286T328 1238t235 160.5 297 59.5q180 0 307.5-47.5T1411 1264l-160-191q-92 78-182.5 116T850 1227q-129 0-236.5-68.5t-168-185T385 719q0-225 134.5-369.5T872 205q203 0 347 108v269H852v219h610V199Q1201-25 864-25q-220 0-390.5 97.5T212 338t-91 377z"/><glyph unicode="H" horiz-adv-x="1556" d="M184 0v1434h252V838h684v596h252V0h-252v604H436V0H184z"/><glyph unicode="I" horiz-adv-x="649" d="M199 0v1434h252V0H199z"/><glyph unicode="J" horiz-adv-x="1144" d="M43 211l166 170q67-84 134.5-126T498 213q105 0 166 71.5T725 494v940h258V487q0-248-130.5-377.5T502-20Q211-20 43 211z"/><glyph unicode="K" horiz-adv-x="1484" d="M184 0v1434h252V713l682 721h309L831 817 1454 0h-305L659 645 436 416V0H184z"/><glyph unicode="L" horiz-adv-x="1267" d="M184 0v1434h252V229h754V0H184z"/><glyph unicode="M" horiz-adv-x="1777" d="M184 0v1434h269l436-678 436 678h268V0h-252v1028L889 352h-8l-449 672V0H184z"/><glyph unicode="N" horiz-adv-x="1617" d="M184 0v1434h234l768-992v992h248V0h-211L432 1020V0H184z"/><glyph unicode="O" horiz-adv-x="1740" d="M121 715q0 202 95 371.5T484 1357t388 101q161 0 301.5-58.5t238-158.5 153-235.5T1620 719t-56-287.5-154-237-239.5-160T868-25 566.5 34 329 193 176.5 428.5 121 715zm264 4q0-140 61.5-256.5t174-186T872 207t250.5 68.5 172.5 184 61 255.5-62 256.5-174.5 186T868 1227t-250.5-68.5-172-184T385 719z"/><glyph unicode="P" horiz-adv-x="1368" d="M184 0v1434h566q250 0 397-131t147-351q0-157-78.5-270t-206-167T721 461H436V0H184zm252 688h293q142 0 225.5 71t83.5 187q0 125-82.5 191.5T729 1204H436V688z"/><glyph unicode="Q" horiz-adv-x="1740" d="M121 715q0 202 95 371.5T484 1357t388 101q161 0 301.5-58.5t238-158.5 153-235.5T1620 719q0-246-145-443l163-139-161-180-172 154Q1109-25 868-25q-161 0-301.5 59T329 193 176.5 428.5 121 715zm264 4q0-140 61.5-256.5t174-186T872 207q137 0 246 69L872 485l162 185 248-226q74 115 74 271 0 140-62 256.5t-174.5 186T868 1227t-250.5-68.5-172-184T385 719z"/><glyph unicode="R" horiz-adv-x="1480" d="M184 0v1434h639q247 0 390-122t143-333q0-172-92-282.5T1014 543L1401 0h-297L752 500H436V0H184zm252 723h369q135 0 215 66t80 176q0 117-78 178t-219 61H436V723z"/><glyph unicode="S" horiz-adv-x="1310" d="M88 209l152 180q107-93 215-139.5T692 203q117 0 185.5 49.5T946 385q0 55-25 91t-95.5 68T623 606q-98 24-167.5 48T324 712.5 225 791t-58.5 105-21.5 140q0 186 137.5 302T635 1454q297 0 520-180l-135-191q-199 148-389 148-107 0-170.5-49T397 1059q0-86 68.5-132.5T737 831q239-58 350-153t111-268q0-199-141.5-314.5T686-20Q344-20 88 209z"/><glyph unicode="T" horiz-adv-x="1327" d="M82 1200v234h1163v-234H791V0H537v1200H82z"/><glyph unicode="U" horiz-adv-x="1550" d="M162 608v826h252V618q0-197 95.5-303T776 209q170 0 265.5 102t95.5 297v826h252V621q0-314-164.5-479T772-23q-285 0-447.5 162T162 608z"/><glyph unicode="V" horiz-adv-x="1536" d="M61 1434h279L772 332l430 1102h273L879-10H657z"/><glyph unicode="W" horiz-adv-x="2285" d="M74 1434h272L688 371l352 1067h213l353-1067 342 1063h264L1712-10h-217l-352 1030L791-10H573z"/><glyph unicode="X" horiz-adv-x="1492" d="M76 0l522 729-502 705h297l357-514 358 514h289L897 733 1417 0h-297L743 543 365 0H76z"/><glyph unicode="Y" horiz-adv-x="1466" d="M37 1434h297l401-635 406 635h289L860 571V0H606v565z"/><glyph unicode="Z" horiz-adv-x="1437" d="M133 0v186l846 1024H160v224h1147v-187L461 223h846V0H133z"/><glyph unicode="[" horiz-adv-x="929" d="M180-266v1700h629v-195H416V-72h393v-194H180z"/><glyph unicode="\" horiz-adv-x="1067" d="M-23 1634h216l925-1896H903z"/><glyph unicode="]" horiz-adv-x="929" d="M121-72h393v1311H121v195h631V-266H121v194z"/><glyph unicode="^" horiz-adv-x="1024" d="M115 1010l309 426h176l309-426H719l-209 270-209-270H115z"/><glyph unicode="_" horiz-adv-x="1228" d="M-4-135h1237v-193H-4v193z"/><glyph unicode="`" horiz-adv-x="1024" d="M254 1454l225 100 217-335H504z"/><glyph unicode="a" horiz-adv-x="1202" d="M82 311v4q0 169 120.5 259T520 664q156 0 299-46v27q0 113-68.5 172.5T553 877q-146 0-309-68l-68 199q100 45 194.5 67.5T588 1098q236 0 355.5-118.5T1063 641V0H817v133Q686-23 467-23q-162 0-273.5 89T82 311zm246 13q0-74 59-117t150-43q124 0 205 63.5T823 391v68q-108 43-248 43-117 0-182-45.5T328 328v-4z"/><glyph unicode="b" d="M156 0v1495h247V901q144 203 367 203 97 0 187-38t161-107.5 113.5-178T1274 541t-42.5-239.5-113-178.5T958 15 770-23q-222 0-367 191V0H156zm241 541q0-154 93-251t223-97q131 0 220 95.5t89 252.5q0 156-89.5 252T713 889t-223-97-93-251z"/><glyph unicode="c" horiz-adv-x="1169" d="M96 537q0 153 72 283t201.5 207 287.5 77q145 0 248.5-48T1090 918L936 752q-63 66-128 100.5T655 887q-133 0-222-101t-89-245q0-148 91.5-249.5T668 190q82 0 149 35t131 101l150-148q-88-99-191.5-151T655-25q-158 0-286.5 76T168 255.5 96 537z"/><glyph unicode="d" d="M100 541q0 131 42 239.5t112.5 178 160 107.5 187.5 38q220 0 369-191v582h248V0H971v180Q827-23 602-23q-96 0-185.5 38T256 123 142.5 301.5 100 541zm250 0q0-155 91-251.5T662 193q129 0 221 97t92 251-92 251-221 97q-132 0-222-95t-90-253z"/><glyph unicode="e" horiz-adv-x="1236" d="M96 539q0 155 67 284t189 205 273 76q125 0 225.5-47T1014 929t96-185.5 33-223.5q0-17-4-67H344q21-130 105-202.5T655 178q88 0 157 31.5T948 307l146-129Q926-25 651-25q-156 0-282 70T169.5 244.5 96 539zm246 77h555q-13 126-84.5 205.5T623 901q-112 0-187.5-78.5T342 616z"/><glyph unicode="f" horiz-adv-x="770" d="M74 868v207h137v78q0 176 85 265t247 89q104 0 200-28v-209q-80 26-145 26-143 0-143-163v-60h286V868H459V0H211v868H74z"/><glyph unicode="g" d="M100 594q0 117 41.5 215T252 970.5t157 98.5 183 35q126 0 216.5-49.5T971 920v161h248V221q0-553-582-553-270 0-483 129l92 187q184-115 385-115 166 0 254 85t88 247v84q-74-96-164.5-147.5T592 86q-96 0-184 34.5t-157 98-110 161T100 594zm250 2q0-133 88.5-217T657 295q132 0 225 84t93 215q0 133-92.5 217T657 895q-131 0-219-83t-88-216z"/><glyph unicode="h" horiz-adv-x="1269" d="M156 0v1495h247V913q131 191 338 191 181 0 283-112.5T1126 688V0H879v614q0 126-61 195.5T647 879q-109 0-176.5-72.5T403 610V0H156z"/><glyph unicode="i" horiz-adv-x="585" d="M160 1247v236h266v-236H160zM170 0v1081h248V0H170z"/><glyph unicode="j" horiz-adv-x="585" d="M-16-125q37-6 69-6 117 0 117 131v1081h248V-14q0-320-316-320-53 0-118 10v199zm176 1372v236h266v-236H160z"/><glyph unicode="k" horiz-adv-x="1191" d="M156 0v1495h247V602l449 479h301L723 641 1167 0H881L555 467 403 309V0H156z"/><glyph unicode="l" horiz-adv-x="585" d="M170 0v1495h248V0H170z"/><glyph unicode="m" horiz-adv-x="1945" d="M156 0v1081h247V918q62 86 139.5 136t190.5 50q114 0 196-51t126-140q146 191 366 191 178 0 278.5-108.5T1800 690V0h-248v614q0 128-57 196.5T1333 879q-104 0-167.5-70.5T1102 610V0H854v616q0 125-58 194t-161 69q-104 0-168-73t-64-198V0H156z"/><glyph unicode="n" horiz-adv-x="1269" d="M156 0v1081h247V913q131 191 338 191 181 0 283-112.5T1126 688V0H879v614q0 126-61 195.5T647 879q-109 0-176.5-72.5T403 610V0H156z"/><glyph unicode="o" horiz-adv-x="1345" d="M96 537q0 115 44 219.5t120 181T444 1059t230 45 229.5-44.5 183-120 119-179.5 43.5-219-44-219-120-180.5T901 20 670-25q-162 0-294 76T170 255.5 96 537zm248 4q0-147 93.5-249T674 190q147 0 237 100t90 247-93.5 248.5T670 887q-146 0-236-100t-90-246z"/><glyph unicode="p" d="M156-328v1409h247V901q144 203 367 203 97 0 187-38t161-107.5 113.5-178T1274 541t-42.5-239.5-113-178.5T958 15 770-23q-222 0-367 191v-496H156zm241 869q0-154 93-251t223-97q131 0 220 95.5t89 252.5q0 156-89.5 252T713 889t-223-97-93-251z"/><glyph unicode="q" d="M100 541q0 131 42 239.5t112.5 178 160 107.5 187.5 38q220 0 369-191v168h248V-328H971v508Q827-23 602-23q-96 0-185.5 38T256 123 142.5 301.5 100 541zm250 0q0-155 91-251.5T662 193q129 0 221 97t92 251-92 251-221 97q-132 0-222-95t-90-253z"/><glyph unicode="r" horiz-adv-x="845" d="M156 0v1081h247V838q54 128 150 199 89 65 212 65h21V840h-14q-168 0-268.5-109.5T403 412V0H156z"/><glyph unicode="s" horiz-adv-x="1024" d="M68 141l110 168q177-133 354-133 79 0 123.5 31.5T700 293v4q0 28-16.5 50T634 386t-66.5 29-84.5 27q-16 5-24 7-57 16-97.5 30.5t-89.5 41-79 57.5-51 79.5T121 766v4q0 150 109.5 240t275.5 90q100 0 205-32.5T903 977l-98-176Q637 903 500 903q-71 0-111.5-30T348 795v-4q0-26 15-47t55.5-40.5 64.5-28 88-29.5q14-5 21-7 56-17 96.5-32.5t89-43T856 505t51-78 21-103v-5q0-164-112.5-251.5T526-20q-118 0-238.5 41.5T68 141z"/><glyph unicode="t" horiz-adv-x="839" d="M70 868v213h137v297h248v-297h290V868H455V338q0-135 133-135 80 0 153 37V37q-96-55-223-55-311 0-311 317v569H70z"/><glyph unicode="u" horiz-adv-x="1269" d="M143 393v688h248V467q0-126 61-195t171-69q109 0 176 72t67 196v610h248V0H866v168Q735-23 528-23 347-23 245 89.5T143 393z"/><glyph unicode="v" horiz-adv-x="1218" d="M53 1081h266l291-794 293 794h260L721-8H498z"/><glyph unicode="w" horiz-adv-x="1763" d="M66 1081h253l218-741 239 745h211l242-745 221 741h248L1343-8h-221L881 731 637-8H416z"/><glyph unicode="x" horiz-adv-x="1187" d="M61 0l398 549-383 532h270l250-356 250 356h264L727 555 1126 0H856L590 379 326 0H61z"/><glyph unicode="y" horiz-adv-x="1220" d="M53 1081h264l308-802 280 802h258L733-31q-65-166-145.5-234.5T377-334q-134 0-256 66l84 184q74-41 145-41 53 0 88.5 28T504 0z"/><glyph unicode="z" horiz-adv-x="1146" d="M106 0v170l625 709H129v202h918V911L422 203h625V0H106z"/><glyph unicode="{" horiz-adv-x="997" d="M106 494v188h54q126 0 178.5 52T391 907q0 18-2 75.5t-2 72.5q0 83 20.5 144t72 113.5 143 89.5 229.5 62l43-164q-93-26-147.5-50.5t-84-59.5-38.5-72-9-98q0-20 2.5-75t2.5-77q0-115-53.5-180.5T408 588q108-35 160.5-100T621 307q0-22-2.5-76.5T616 156q0-61 9-98.5t38.5-72 84-59.5T895-125l-43-164q-138 25-230 62t-143 90-71.5 114T387 121q0 15 2 72t2 75q0 121-52.5 173.5T160 494h-54z"/><glyph unicode="|" horiz-adv-x="677" d="M240-262v1896h198V-262H240z"/><glyph unicode="}" horiz-adv-x="997" d="M102-125q93 26 147.5 51t84 59.5 38.5 72 9 98.5q0 20-2 74.5t-2 76.5q0 115 53.5 181T590 588q-108 35-160.5 100T377 868q0 22 2 77t2 75q0 61-9 98t-38.5 72-84 59.5T102 1300l43 164q138-25 229.5-62t143-89.5 72-113.5 20.5-144q0-15-2-72.5t-2-75.5q0-121 52.5-173T838 682h53V494h-53q-126 0-179-52.5T606 268q0-18 2-75t2-72q0-83-20.5-144T518-137t-143-90-230-62z"/><glyph unicode="~" horiz-adv-x="1013" d="M121 512q36 130 87.5 192T350 766q62 0 162-41t131-41q42 0 66 23t47 79l137-41q-36-132-87.5-194T664 489q-62 0-162 41t-131 41q-42 0-66-23t-47-79z"/><glyph unicode="¡" horiz-adv-x="618" d="M164 0v72l78 909h137l76-909V0H164zm10 1153v281h272v-281H174z"/><glyph unicode="¢" horiz-adv-x="1189" d="M106 725q0 153 72 282.5t201 206 287 76.5h18l31 156h180l-37-182q129-37 242-160L950 944q-81 77-143 100L678 383q6-2 20-2 137 8 260 131l144-141q-86-98-190-152t-244-55q-17 0-25 2L610-12H430l41 207q-163 59-264 204T106 725zm242 4q0-103 47-186.5T522 416l127 659h-4q-128-6-212.5-105.5T348 729z"/><glyph unicode="£" horiz-adv-x="1318" d="M129 0v160l162 49v360H129v213h162v189q0 225 124 354t347 129q158 0 263.5-60t188.5-169l-192-154q-60 77-118.5 113.5T764 1221q-102 0-160.5-68.5T545 965V782h510V569H545V219h665V0H129z"/><glyph unicode="¤" horiz-adv-x="1474" d="M106 461v174h158q-2 27-2 80 0 63 4 94H106v174h193q64 214 217 344.5T881 1458q91 0 167-19.5t136-57.5 106-84 90-109l-190-141q-70 96-141.5 141T874 1233q-107 0-189-66.5T561 983h438V809H520q-4-58-4-90 0-26 4-84h479V461H557q42-122 129-191t205-69q66 0 121.5 24t98 63.5T1204 395l180-131q-63-91-129-151.5t-160-99T889-25q-223 0-379.5 132T293 461H106z"/><glyph unicode="¥" horiz-adv-x="1404" d="M39 1434h293l375-600 374 600h285L891 723h328V541H823V391h396V209H823V0H582v209H186v182h396v150H186v182h326z"/><glyph unicode="§" horiz-adv-x="1294" d="M119 717q0 180 219 239-113 72-113 197 0 138 107.5 219.5T627 1454q289 0 473-194l-142-140q-156 146-329 146-82 0-124-28.5t-42-74.5 55-77 215-68q242-55 342.5-122T1176 717q0-180-220-240 113-72 113-196 0-138-107-219.5T668-20q-289 0-473 194l141 139q155-145 330-145 82 0 123.5 28t41.5 74-55 77.5T561 416q-241 55-341.5 122T119 717zm223 35q0-46 55-80t185-66q143-37 213-37 72 0 114.5 32t42.5 81q0 46-54.5 79.5T713 827q-145 37-213 37-72 0-115-32t-43-80z"/><glyph unicode="¨" horiz-adv-x="1024" d="M182 1219v241h252v-241H182zm408 0v241h252v-241H590z"/><glyph unicode="©" horiz-adv-x="1699" d="M109 715q0 150 58 287t157 237 237 159.5 291 59.5 290.5-59 235.5-158 155.5-235.5T1591 719q0-200-98-371T1223.5 76 848-25 473.5 75 206 345t-97 370zm77 0q0-136 51-259t138.5-212.5 210.5-142T848 49q186 0 339 90t239.5 243.5T1513 719q0 182-86 334.5T1189 1295t-337 89q-186 0-339.5-90t-240-243.5T186 715zm279 10q0 168 112.5 285.5T862 1128q102 0 173-30.5t132-89.5l-96-111q-102 92-209 92-104 0-172.5-76T621 727q0-109 69-185.5T862 465q65 0 113 23.5t100 72.5l99-96q-66-69-139.5-104T858 326q-168 0-280.5 115.5T465 725z"/><glyph unicode="ª" horiz-adv-x="798" d="M109 578v118h553V578H109zm6 434q0 94 66.5 143t178.5 49q74 0 156-22v10q0 60-37 92.5T373 1317q-73 0-170-39l-39 111q108 51 229 51 129 0 194.5-64.5T653 1190V838H514v69q-72-82-188-82-90 0-150.5 49.5T115 1012zm141 6q0-42 29.5-65t76.5-23q66 0 110 34.5t44 88.5v37q-64 22-129 22-62 0-96.5-25t-34.5-69z"/><glyph unicode="«" horiz-adv-x="1241" d="M90 532v17l340 450 188-96-270-360 270-363-188-96zm516 0v17l338 450 189-96-271-360 271-363-189-96z"/><glyph unicode="­" horiz-adv-x="835" d="M115 506v244h606V506H115z"/><glyph unicode="®" horiz-adv-x="1699" d="M109 715q0 150 58 287t157 237 237 159.5 291 59.5 290.5-59 235.5-158 155.5-235.5T1591 719q0-200-98-371T1223.5 76 848-25 473.5 75 206 345t-97 370zm77 0q0-136 51-259t138.5-212.5 210.5-142T848 49q186 0 339 90t239.5 243.5T1513 719q0 182-86 334.5T1189 1295t-337 89q-186 0-339.5-90t-240-243.5T186 715zm365-365v776h346q137 0 218-65.5t81-181.5q0-92-48.5-152T1016 643l209-293h-176L860 618H698V350H551zm147 398h193q72 0 112.5 32.5T1044 870q0 59-40 91t-113 32H698V748z"/><glyph unicode="¯" horiz-adv-x="1024" d="M162 1229v182h700v-182H162z"/><glyph unicode="°" horiz-adv-x="964" d="M141 1114q0 133 103 232.5t237 99.5q136 0 239-99.5T823 1114q0-134-103-234T481 780q-134 0-237 100t-103 234zm148 0q0-81 55-140t137-59q83 0 139 59t56 140q0 80-56 138.5T481 1311q-82 0-137-58.5T289 1114z"/><glyph unicode="±" horiz-adv-x="1249" d="M80 225l174 162q163-184 387-184 118 0 187 56.5T897 412q0 99-82.5 151.5T582 616H428v213h160q124 0 197 56.5t73 150.5q0 87-67 141t-181 54q-97 0-173-45t-152-135l-176 143q100 130 218 197t287 67q221 0 357.5-108t136.5-277q0-234-213-338 252-97 252-325 0-190-138-312.5T637-25q-169 0-312 66.5T80 225z"/><glyph unicode="´" horiz-adv-x="1024" d="M328 1219l217 335 225-100-250-235H328z"/><glyph unicode="µ" horiz-adv-x="1740" d="M121 715q0 202 95 371.5T484 1357t388 101q161 0 301.5-58.5t238-158.5 153-235.5T1620 719q0-161-64.5-305T1374 166l359-356v-17h-369L1126 20q-124-45-258-45-161 0-301.5 59T329 193 176.5 428.5 121 715zm264 4q0-140 61.5-256.5t174-186T872 207t250.5 68.5 172.5 184 61 255.5-62 256.5-174.5 186T868 1227t-250.5-68.5-172-184T385 719z"/><glyph unicode="¶" horiz-adv-x="1140" d="M82 967q0 217 152.5 342T637 1434h326V0H709v500h-37q-171 0-302.5 52T160 711 82 967z"/><glyph unicode="·" horiz-adv-x="550" d="M139 487v281h273V487H139z"/><glyph unicode="¸" horiz-adv-x="1024" d="M268-248L453 20h186L485-338z"/><glyph unicode="º" horiz-adv-x="798" d="M90 1133q0 130 89.5 220.5T401 1444q131 0 219.5-89.5T709 1135t-90-221-222-91q-131 0-219 90t-88 220zm14-555v118h590V578H104zm129 557q0-76 48-130.5T401 950q73 0 118.5 53t45.5 130q0 76-48 130t-120 54q-73 0-118.5-52.5T233 1135z"/><glyph unicode="»" horiz-adv-x="1241" d="M109 178l270 361-270 362 188 98 338-450v-17L297 84zm514 0l270 361-270 362 188 98 340-450v-17L811 84z"/><glyph unicode="¿" horiz-adv-x="1107" d="M86 399q0 94 32 168.5t89.5 123 129.5 79T498 815l20 166h166l41-332-10-10q-379-15-379-231 0-89 63-143t172-54q181 0 334 162l154-164Q859-18 565-18 348-18 217 94.5T86 399zm383 754v281h274v-281H469z"/><glyph unicode="À" horiz-adv-x="1617" d="M61 0l631 1444h234L1556 0h-266l-145 346H467L319 0H61zm408 1788l225 100 217-336H719zm90-1219h494l-248 574z"/><glyph unicode="Á" horiz-adv-x="1617" d="M61 0l631 1444h234L1556 0h-266l-145 346H467L319 0H61zm498 569h494l-248 574zm148 983l217 336 225-100-250-236H707z"/><glyph unicode="Â" horiz-adv-x="1617" d="M61 0l631 1444h234L1556 0h-266l-145 346H467L319 0H61zm396 1550l237 299h230l237-299H965l-158 138-158-138H457zm102-981h494l-248 574z"/><glyph unicode="Ã" horiz-adv-x="1617" d="M61 0l631 1444h234L1556 0h-266l-145 346H467L319 0H61zm361 1573q36 132 87.5 194t141.5 62q61 0 162-41t133-41q42 0 65 22.5t48 79.5l137-43q-36-130-87.5-192T967 1552q-61 0-162 41t-133 41q-42 0-65-22.5t-48-79.5zM559 569h494l-248 574z"/><glyph unicode="Ä" horiz-adv-x="1617" d="M61 0l631 1444h234L1556 0h-266l-145 346H467L319 0H61zm418 1552v242h252v-242H479zm80-983h494l-248 574zm328 983v242h252v-242H887z"/><glyph unicode="Å" horiz-adv-x="1617" d="M61 0l611 1401q-97 72-97 180 0 91 70.5 158t163.5 67 163-66.5 70-158.5q0-108-96-180L1556 0h-266l-145 346H467L319 0H61zm498 569h494l-248 574zm123 1012q0-53 37-90t90-37 90 37 37 90-37 90-90 37-90-37-37-90z"/><glyph unicode="Æ" horiz-adv-x="2140" d="M25 0l800 1434h1190v-226h-766V836h674V610h-674V225h776V0H997v346H475L285 0H25zm571 569h401v645h-41z"/><glyph unicode="Ç" horiz-adv-x="1511" d="M121 715q0 152 55 288.5t151 237 235 159 298 58.5q185 0 316.5-57.5T1421 1235l-161-186q-94 86-190 132t-212 46q-134 0-243-67.5t-169.5-184T385 719t60.5-257T615 276t243-69q124 0 217.5 46T1270 393l162-164q-113-118-238.5-181.5T895-23L760-338l-215 90L707-10Q449 37 285 239.5T121 715z"/><glyph unicode="È" d="M184 0v1434h1063v-226H436V836h719V610H436V225h821V0H184zm236 1788l225 100 217-336H670z"/><glyph unicode="É" d="M184 0v1434h1063v-226H436V836h719V610H436V225h821V0H184zm383 1552l217 336 226-100-250-236H567z"/><glyph unicode="Ê" d="M184 0v1434h1063v-226H436V836h719V610H436V225h821V0H184zm174 1552l238 299h229l238-299H866l-157 138-158-138H358z"/><glyph unicode="Ë" d="M184 0v1434h1063v-226H436V836h719V610H436V225h821V0H184zm197 1552v242h252v-242H381zm407 0v242h252v-242H788z"/><glyph unicode="Ì" horiz-adv-x="649" d="M-12 1788l225 100 217-336H238zM199 0v1434h252V0H199z"/><glyph unicode="Í" horiz-adv-x="649" d="M199 0v1434h252V0H199zm22 1552l217 336 226-100-250-236H221z"/><glyph unicode="Î" horiz-adv-x="649" d="M-27 1552l238 299h229l238-299H481l-157 138-158-138H-27zM199 0v1434h252V0H199z"/><glyph unicode="Ï" horiz-adv-x="649" d="M199 0v1434h252V0H199zm0 1552v242h252v-242H199zm407 0v242h252v-242H606z"/><glyph unicode="Ð" horiz-adv-x="1662" d="M92 608v226h154v600h534q166 0 309-55t242-150 155-227 56-283-56-283.5T1331 207 1089 55.5 780 0H246v608H92zm404-379h284q224 0 361 136t137 350q0 215-137 352t-361 137H496V834h360V608H496V229z"/><glyph unicode="Ñ" horiz-adv-x="1617" d="M184 0v1434h234l768-992v992h248V0h-211L432 1020V0H184zm238 1573q36 132 87.5 194t141.5 62q61 0 162-41t133-41q42 0 65 22.5t48 79.5l137-43q-36-130-87.5-192T967 1552q-61 0-162 41t-133 41q-42 0-65-22.5t-48-79.5z"/><glyph unicode="Ò" horiz-adv-x="1740" d="M121 715q0 202 95 371.5T484 1357t388 101q161 0 301.5-58.5t238-158.5 153-235.5T1620 719t-56-287.5-154-237-239.5-160T868-25 566.5 34 329 193 176.5 428.5 121 715zm264 4q0-140 61.5-256.5t174-186T872 207t250.5 68.5 172.5 184 61 255.5-62 256.5-174.5 186T868 1227t-250.5-68.5-172-184T385 719zm131 1069l225 100 217-336H766z"/><glyph unicode="Ó" horiz-adv-x="1740" d="M121 715q0 202 95 371.5T484 1357t388 101q161 0 301.5-58.5t238-158.5 153-235.5T1620 719t-56-287.5-154-237-239.5-160T868-25 566.5 34 329 193 176.5 428.5 121 715zm264 4q0-140 61.5-256.5t174-186T872 207t250.5 68.5 172.5 184 61 255.5-62 256.5-174.5 186T868 1227t-250.5-68.5-172-184T385 719zm397 833l217 336 226-100-250-236H782z"/><glyph unicode="Ô" horiz-adv-x="1740" d="M121 715q0 202 95 371.5T484 1357t388 101q161 0 301.5-58.5t238-158.5 153-235.5T1620 719t-56-287.5-154-237-239.5-160T868-25 566.5 34 329 193 176.5 428.5 121 715zm264 4q0-140 61.5-256.5t174-186T872 207t250.5 68.5 172.5 184 61 255.5-62 256.5-174.5 186T868 1227t-250.5-68.5-172-184T385 719zm133 833l238 299h229l238-299h-197l-158 138-157-138H518z"/><glyph unicode="Õ" horiz-adv-x="1740" d="M121 715q0 202 95 371.5T484 1357t388 101q161 0 301.5-58.5t238-158.5 153-235.5T1620 719t-56-287.5-154-237-239.5-160T868-25 566.5 34 329 193 176.5 428.5 121 715zm264 4q0-140 61.5-256.5t174-186T872 207t250.5 68.5 172.5 184 61 255.5-62 256.5-174.5 186T868 1227t-250.5-68.5-172-184T385 719zm98 854q36 131 88 193.5t142 62.5q61 0 162-41t133-41q42 0 64.5 22.5t47.5 79.5l137-43q-36-130-87.5-192t-141.5-62q-61 0-162 41t-133 41q-42 0-64.5-22.5T621 1532z"/><glyph unicode="Ö" horiz-adv-x="1740" d="M121 715q0 202 95 371.5T484 1357t388 101q161 0 301.5-58.5t238-158.5 153-235.5T1620 719t-56-287.5-154-237-239.5-160T868-25 566.5 34 329 193 176.5 428.5 121 715zm264 4q0-140 61.5-256.5t174-186T872 207t250.5 68.5 172.5 184 61 255.5-62 256.5-174.5 186T868 1227t-250.5-68.5-172-184T385 719zm156 833v242h252v-242H541zm407 0v242h252v-242H948z"/><glyph unicode="Ø" horiz-adv-x="1740" d="M104-10l203 229q-89 97-137.5 225.5T121 715q0 202 95 371.5T484 1357t388 101q234 0 418-123l99 109h247l-202-230q90-97 138-225t48-270q0-151-56-287.5t-154-237-239.5-160T868-25Q636-25 451 98L352-10H104zm275 729q0-169 96-307l655 739q-118 80-262 80-105 0-197-41t-155.5-110.5-100-163T379 719zm231-436q118-80 262-80 140 0 253 69.5T1300 459t62 256q0 169-96 307z"/><glyph unicode="Ù" horiz-adv-x="1550" d="M162 608v826h252V618q0-197 95.5-303T776 209q170 0 265.5 102t95.5 297v826h252V621q0-314-164.5-479T772-23q-285 0-447.5 162T162 608zm287 1170l225 100 217-336H698z"/><glyph unicode="Ú" horiz-adv-x="1550" d="M162 608v826h252V618q0-197 95.5-303T776 209q170 0 265.5 102t95.5 297v826h252V621q0-314-164.5-479T772-23q-285 0-447.5 162T162 608zm497 934l218 336 225-100-250-236H659z"/><glyph unicode="Û" horiz-adv-x="1550" d="M162 608v826h252V618q0-197 95.5-303T776 209q170 0 265.5 102t95.5 297v826h252V621q0-314-164.5-479T772-23q-285 0-447.5 162T162 608zm262 942l238 299h229l237-299H932l-158 138-158-138H424z"/><glyph unicode="Ü" horiz-adv-x="1550" d="M162 608v826h252V618q0-197 95.5-303T776 209q170 0 265.5 102t95.5 297v826h252V621q0-314-164.5-479T772-23q-285 0-447.5 162T162 608zm284 942v242h252v-242H446zm408 0v242h252v-242H854z"/><glyph unicode="Ý" horiz-adv-x="1466" d="M37 1434h297l401-635 406 635h289L860 571V0H606v565zm600 108l217 336 225-100-250-236H637z"/><glyph unicode="Þ" horiz-adv-x="1378" d="M184 0v1434h252v-226h314q250 0 397-130t147-349q0-119-45-213.5T1125.5 361 944 269.5 721 238H436V0H184zm252 463h293q141 0 225 71.5t84 188.5q0 125-82.5 191.5T729 981H436V463z"/><glyph unicode="ß" horiz-adv-x="1269" d="M156 0v1028q0 222 131 351.5T643 1509q204 0 322-109.5t118-277.5q0-128-61-211.5T858 770q311-106 311-367 0-198-151.5-306.5T606-4v190q151 5 233.5 62T922 410q0 98-85 157.5T606 645v168q232 112 232 287 0 90-56.5 144T631 1298q-102 0-166-71.5T401 1036V0H156z"/><glyph unicode="à" horiz-adv-x="1202" d="M82 311v4q0 169 120.5 259T520 664q156 0 299-46v27q0 113-68.5 172.5T553 877q-146 0-309-68l-68 199q100 45 194.5 67.5T588 1098q236 0 355.5-118.5T1063 641V0H817v133Q686-23 467-23q-162 0-273.5 89T82 311zm194 1143l226 100 217-335H526zm52-1130q0-74 59-117t150-43q124 0 205 63.5T823 391v68q-108 43-248 43-117 0-182-45.5T328 328v-4z"/><glyph unicode="á" horiz-adv-x="1202" d="M82 311v4q0 169 120.5 259T520 664q156 0 299-46v27q0 113-68.5 172.5T553 877q-146 0-309-68l-68 199q100 45 194.5 67.5T588 1098q236 0 355.5-118.5T1063 641V0H817v133Q686-23 467-23q-162 0-273.5 89T82 311zm246 13q0-74 59-117t150-43q124 0 205 63.5T823 391v68q-108 43-248 43-117 0-182-45.5T328 328v-4zm153 895l217 335 226-100-250-235H481z"/><glyph unicode="â" horiz-adv-x="1202" d="M82 311v4q0 169 120.5 259T520 664q156 0 299-46v27q0 113-68.5 172.5T553 877q-146 0-309-68l-68 199q100 45 194.5 67.5T588 1098q236 0 355.5-118.5T1063 641V0H817v133Q686-23 467-23q-162 0-273.5 89T82 311zm166 908l237 299h230l237-299H756l-158 137-158-137H248zm80-895q0-74 59-117t150-43q124 0 205 63.5T823 391v68q-108 43-248 43-117 0-182-45.5T328 328v-4z"/><glyph unicode="ã" horiz-adv-x="1202" d="M82 311v4q0 169 120.5 259T520 664q156 0 299-46v27q0 113-68.5 172.5T553 877q-146 0-309-68l-68 199q100 45 194.5 67.5T588 1098q236 0 355.5-118.5T1063 641V0H817v133Q686-23 467-23q-162 0-273.5 89T82 311zm133 928q36 132 87.5 194t141.5 62q61 0 162-41t133-41q42 0 65 23t48 80l137-43q-36-130-87.5-192T760 1219q-61 0-162 40.5T465 1300q-42 0-65-22.5t-48-79.5zm113-915q0-74 59-117t150-43q124 0 205 63.5T823 391v68q-108 43-248 43-117 0-182-45.5T328 328v-4z"/><glyph unicode="ä" horiz-adv-x="1202" d="M82 311v4q0 169 120.5 259T520 664q156 0 299-46v27q0 113-68.5 172.5T553 877q-146 0-309-68l-68 199q100 45 194.5 67.5T588 1098q236 0 355.5-118.5T1063 641V0H817v133Q686-23 467-23q-162 0-273.5 89T82 311zm188 908v241h252v-241H270zm58-895q0-74 59-117t150-43q124 0 205 63.5T823 391v68q-108 43-248 43-117 0-182-45.5T328 328v-4zm350 895v241h252v-241H678z"/><glyph unicode="å" horiz-adv-x="1202" d="M82 311v4q0 169 120.5 259T520 664q156 0 299-46v27q0 113-68.5 172.5T553 877q-146 0-309-68l-68 199q100 45 194.5 67.5T588 1098q236 0 355.5-118.5T1063 641V0H817v133Q686-23 467-23q-162 0-273.5 89T82 311zm246 13q0-74 59-117t150-43q124 0 205 63.5T823 391v68q-108 43-248 43-117 0-182-45.5T328 328v-4zm39 1116q0 92 70 158.5t163 66.5 163.5-67 70.5-158q0-92-70.5-159T600 1214t-163 67-70 159zm106 0q0-52 37.5-89.5T600 1313t89.5 37.5T727 1440t-37.5 89.5T600 1567t-89.5-37.5T473 1440z"/><glyph unicode="æ" horiz-adv-x="1949" d="M82 317q0 168 121 257.5T520 664q156 0 299-46v27q0 113-68.5 172.5T553 877q-146 0-309-68l-68 199q100 45 193 67.5t213 22.5q279 0 381-178 66 87 163.5 135.5T1341 1104q124 0 223-47t161-128 95-185.5 33-223.5q0-42-2-67h-794q21-130 105-202.5t204-72.5q89 0 158.5 31.5T1661 307l145-129Q1634-25 1362-25q-125 0-234.5 49T944 160Q723-23 492-23q-187 0-298.5 89.5T82 317zm246 11q0-77 59-120.5T537 164q172 0 317 135-33 84-41 166-101 37-238 37-117 0-182-45.5T328 328zm725 288h557q-13 126-84.5 205.5T1335 901q-114 0-189-78.5T1053 616z"/><glyph unicode="ç" horiz-adv-x="1169" d="M96 537q0 153 72 283t201.5 207 287.5 77q145 0 248.5-48T1090 918L936 752q-63 66-128 100.5T655 887q-133 0-222-101t-89-245q0-148 91.5-249.5T668 190q82 0 149 35t131 101l150-148q-84-91-177-142.5T698-23L565-338l-217 90L512-6Q327 40 211.5 190.5T96 537z"/><glyph unicode="è" horiz-adv-x="1236" d="M96 539q0 155 67 284t189 205 273 76q125 0 225.5-47T1014 929t96-185.5 33-223.5q0-17-4-67H344q21-130 105-202.5T655 178q88 0 157 31.5T948 307l146-129Q926-25 651-25q-156 0-282 70T169.5 244.5 96 539zm189 915l225 100 217-335H535zm57-838h555q-13 126-84.5 205.5T623 901q-112 0-187.5-78.5T342 616z"/><glyph unicode="é" horiz-adv-x="1236" d="M96 539q0 155 67 284t189 205 273 76q125 0 225.5-47T1014 929t96-185.5 33-223.5q0-17-4-67H344q21-130 105-202.5T655 178q88 0 157 31.5T948 307l146-129Q926-25 651-25q-156 0-282 70T169.5 244.5 96 539zm246 77h555q-13 126-84.5 205.5T623 901q-112 0-187.5-78.5T342 616zm168 603l217 335 225-100-250-235H510z"/><glyph unicode="ê" horiz-adv-x="1236" d="M96 539q0 155 67 284t189 205 273 76q125 0 225.5-47T1014 929t96-185.5 33-223.5q0-17-4-67H344q21-130 105-202.5T655 178q88 0 157 31.5T948 307l146-129Q926-25 651-25q-156 0-282 70T169.5 244.5 96 539zm172 680l238 299h229l238-299H776l-158 137-157-137H268zm74-603h555q-13 126-84.5 205.5T623 901q-112 0-187.5-78.5T342 616z"/><glyph unicode="ë" horiz-adv-x="1236" d="M96 539q0 155 67 284t189 205 273 76q125 0 225.5-47T1014 929t96-185.5 33-223.5q0-17-4-67H344q21-130 105-202.5T655 178q88 0 157 31.5T948 307l146-129Q926-25 651-25q-156 0-282 70T169.5 244.5 96 539zm195 680v241h252v-241H291zm51-603h555q-13 126-84.5 205.5T623 901q-112 0-187.5-78.5T342 616zm356 603v241h252v-241H698z"/><glyph unicode="ì" horiz-adv-x="585" d="M-43 1454l225 100 217-335H207zM170 0v1081h248V0H170z"/><glyph unicode="í" horiz-adv-x="585" d="M170 0v1081h248V0H170zm16 1219l217 335 226-100-250-235H186z"/><glyph unicode="î" horiz-adv-x="585" d="M170 0v1081h248V0H170zm0 1219l238 299h229l237-299H678l-158 137-158-137H170z"/><glyph unicode="ï" horiz-adv-x="585" d="M-37 1219v241h252v-241H-37zM170 0v1081h248V0H170zm201 1219v241h252v-241H371z"/><glyph unicode="ð" horiz-adv-x="1314" d="M96 510q0 214 135.5 349.5T571 995q83 0 148.5-20.5T856 911l-215 293-244-108-98 129 248 108-119 162h285l49-72 203 88 96-129-209-90 182-264q95-134 137.5-249.5T1214 528q0-112-39.5-212t-111-176T884 19.5 647-25q-235 0-393 156T96 510zm244-6q0-130 90-224t227-94q139 0 226.5 92T971 504q0 131-90.5 220T649 813q-139 0-224-87.5T340 504z"/><glyph unicode="ñ" horiz-adv-x="1269" d="M156 0v1081h247V913q131 191 338 191 181 0 283-112.5T1126 688V0H879v614q0 126-61 195.5T647 879q-109 0-176.5-72.5T403 610V0H156zm100 1239q36 132 87.5 194t141.5 62q61 0 162-41t133-41q42 0 65 23t48 80l137-43q-36-130-87.5-192T801 1219q-61 0-162 40.5T506 1300q-42 0-65-22.5t-48-79.5z"/><glyph unicode="ò" horiz-adv-x="1345" d="M96 537q0 115 44 219.5t120 181T444 1059t230 45 229.5-44.5 183-120 119-179.5 43.5-219-44-219-120-180.5T901 20 670-25q-162 0-294 76T170 255.5 96 537zm230 917l225 100 217-335H575zm18-913q0-147 93.5-249T674 190q147 0 237 100t90 247-93.5 248.5T670 887q-146 0-236-100t-90-246z"/><glyph unicode="ó" horiz-adv-x="1345" d="M96 537q0 115 44 219.5t120 181T444 1059t230 45 229.5-44.5 183-120 119-179.5 43.5-219-44-219-120-180.5T901 20 670-25q-162 0-294 76T170 255.5 96 537zm248 4q0-147 93.5-249T674 190q147 0 237 100t90 247-93.5 248.5T670 887q-146 0-236-100t-90-246zm231 678l218 335 225-100-250-235H575z"/><glyph unicode="ô" horiz-adv-x="1345" d="M96 537q0 115 44 219.5t120 181T444 1059t230 45 229.5-44.5 183-120 119-179.5 43.5-219-44-219-120-180.5T901 20 670-25q-162 0-294 76T170 255.5 96 537zm223 682l238 299h229l238-299H827l-157 137-158-137H319zm25-678q0-147 93.5-249T674 190q147 0 237 100t90 247-93.5 248.5T670 887q-146 0-236-100t-90-246z"/><glyph unicode="õ" horiz-adv-x="1345" d="M96 537q0 115 44 219.5t120 181T444 1059t230 45 229.5-44.5 183-120 119-179.5 43.5-219-44-219-120-180.5T901 20 670-25q-162 0-294 76T170 255.5 96 537zm189 702q36 132 87.5 194t141.5 62q61 0 162-41t133-41q42 0 65 23t48 80l137-43q-36-130-88-192t-142-62q-61 0-161.5 40.5T535 1300q-42 0-65-22.5t-48-79.5zm59-698q0-147 93.5-249T674 190q147 0 237 100t90 247-93.5 248.5T670 887q-146 0-236-100t-90-246z"/><glyph unicode="ö" horiz-adv-x="1345" d="M96 537q0 115 44 219.5t120 181T444 1059t230 45 229.5-44.5 183-120 119-179.5 43.5-219-44-219-120-180.5T901 20 670-25q-162 0-294 76T170 255.5 96 537zm246 682v241h252v-241H342zm2-678q0-147 93.5-249T674 190q147 0 237 100t90 247-93.5 248.5T670 887q-146 0-236-100t-90-246zm406 678v241h251v-241H750z"/><glyph unicode="ø" horiz-adv-x="1345" d="M66-10l163 182Q96 327 96 537q0 115 44 219.5t120 181T444 1059t230 45q171 0 309-88l72 78h225l-166-187q135-154 135-366 0-115-44-219t-120-180.5T901 20 670-25q-169 0-310 88l-69-73H66zm272 551q0-107 51-189l449 492q-70 49-168 49-147 0-239.5-101T338 541zm172-308q74-49 164-49 148 0 241 102t93 251q0 106-52 190z"/><glyph unicode="ù" horiz-adv-x="1269" d="M143 393v688h248V467q0-126 61-195t171-69q109 0 176 72t67 196v610h248V0H866v168Q735-23 528-23 347-23 245 89.5T143 393zm170 1057l226 100 217-336H563z"/><glyph unicode="ú" horiz-adv-x="1269" d="M143 393v688h248V467q0-126 61-195t171-69q109 0 176 72t67 196v610h248V0H866v168Q735-23 528-23 347-23 245 89.5T143 393zm367 821l217 336 225-100-250-236H510z"/><glyph unicode="û" horiz-adv-x="1269" d="M143 393v688h248V467q0-126 61-195t171-69q109 0 176 72t67 196v610h248V0H866v168Q735-23 528-23 347-23 245 89.5T143 393zm140 826l237 299h230l237-299H791l-158 137-158-137H283z"/><glyph unicode="ü" horiz-adv-x="1269" d="M143 393v688h248V467q0-126 61-195t171-69q109 0 176 72t67 196v610h248V0H866v168Q735-23 528-23 347-23 245 89.5T143 393zm162 826v241h252v-241H305zm408 0v241h252v-241H713z"/><glyph unicode="ý" horiz-adv-x="1220" d="M53 1081h264l308-802 280 802h258L733-31q-65-166-145.5-234.5T377-334q-134 0-256 66l84 184q74-41 145-41 53 0 88.5 28T504 0zm447 133l217 336 225-100-250-236H500z"/><glyph unicode="þ" d="M156-328v1823h247V901q144 203 367 203 97 0 187-38t161-107.5 113.5-178T1274 541t-42.5-239.5-113-178.5T958 15 770-23q-222 0-367 191v-496H156zm241 869q0-154 93-251t223-97q131 0 220 95.5t89 252.5q0 156-89.5 252T713 889t-223-97-93-251z"/><glyph unicode="ÿ" horiz-adv-x="1220" d="M53 1081h264l308-802 280 802h258L733-31q-65-166-145.5-234.5T377-334q-134 0-256 66l84 184q74-41 145-41 53 0 88.5 28T504 0zm228 138v241h251v-241H281zm407 0v241h252v-241H688z"/><glyph unicode="Œ" horiz-adv-x="2248" d="M121 715q0 151 56 283.5T332 1227t242 151.5 309 55.5h1241v-226h-766V836h674V610h-674V225h776V0H883Q717 0 574 55T332 205 177 432t-56 283zm264 4q0-215 137.5-352.5T883 229h223v975H883q-224 0-361-135.5T385 719z"/><glyph unicode="œ" horiz-adv-x="2129" d="M96 537q0 115 44.5 219.5t120.5 181T443.5 1059t224.5 45q138 0 253-62.5T1108 872q66 107 174 169.5t240 62.5q123 0 222-47t161.5-128 95.5-185.5 33-223.5q0-17-4-67h-795q21-130 105.5-202.5T1546 178q89 0 158.5 31.5T1841 307l146-129Q1815-25 1544-25q-141 0-256.5 62T1104 209q-72-107-190-170.5T657-25q-153 0-282 75.5t-204 205T96 537zm248 4q0-147 92.5-249T668 190q143 0 231 100.5T987 537q0 147-92 248.5T664 887q-143 0-231.5-100T344 541zm889 75h557q-14 126-85 205.5T1516 901q-114 0-189.5-78.5T1233 616z"/><glyph unicode="Ÿ" horiz-adv-x="1466" d="M37 1434h297l401-635 406 635h289L860 571V0H606v565zm366 116v242h252v-242H403zm408 0v242h252v-242H811z"/><glyph unicode="ˆ" horiz-adv-x="1024" d="M160 1219l237 299h230l237-299H668l-158 137-158-137H160z"/><glyph unicode="˜" horiz-adv-x="1024" d="M125 1239q36 132 87.5 194t141.5 62q61 0 162-41t133-41q42 0 65 23t48 80l137-43q-36-130-87.5-192T670 1219q-61 0-162 40.5T375 1300q-42 0-65-22.5t-48-79.5z"/><glyph horiz-adv-x="944"/><glyph horiz-adv-x="1888"/><glyph horiz-adv-x="944"/><glyph horiz-adv-x="1888"/><glyph horiz-adv-x="629"/><glyph horiz-adv-x="472"/><glyph horiz-adv-x="314"/><glyph horiz-adv-x="314"/><glyph horiz-adv-x="236"/><glyph horiz-adv-x="377"/><glyph horiz-adv-x="104"/><glyph unicode="‐" horiz-adv-x="835" d="M115 506v244h606V506H115z"/><glyph unicode="‑" horiz-adv-x="835" d="M115 506v244h606V506H115z"/><glyph unicode="‒" horiz-adv-x="835" d="M115 506v244h606V506H115z"/><glyph unicode="–" horiz-adv-x="1081" d="M115 510v235h852V510H115z"/><glyph unicode="—" horiz-adv-x="1839" d="M115 510v235h1609V510H115z"/><glyph unicode="‘" horiz-adv-x="550" d="M129 864v240q0 167 78 247.5t237 92.5l27-107q-189-35-174-190h104V864H129z"/><glyph unicode="’" horiz-adv-x="550" d="M80 961q189 35 174 192H150v281h272v-240q0-166-78.5-247T106 854z"/><glyph unicode="‚" horiz-adv-x="550" d="M70-193Q259-155 244 0H139v281h273V43q0-166-78.5-247T96-297z"/><glyph unicode="“" horiz-adv-x="1026" d="M129 864v240q0 167 78 247.5t237 92.5l27-107q-189-35-174-190h104V864H129zm475 0v240q0 166 78.5 247t237.5 93l26-107q-188-35-176-190h107V864H604z"/><glyph unicode="”" horiz-adv-x="1026" d="M80 961q189 35 174 192H150v281h272v-240q0-166-78.5-247T106 854zm475 0q189 35 174 192H625v281h272v-240q0-167-78-247.5T582 854z"/><glyph unicode="„" horiz-adv-x="1026" d="M70-193Q259-155 244 0H139v281h273V43q0-166-78.5-247T96-297zm475 0Q734-155 719 0H614v281h273V43q0-166-78.5-247T571-297z"/><glyph unicode="•" horiz-adv-x="1005" d="M213 721q0 120 85 204.5t204 84.5q120 0 205.5-84.5T793 721t-85.5-204.5T502 432q-119 0-204 84.5T213 721z"/><glyph unicode="…" horiz-adv-x="1622" d="M139 0v274h267V0H139zm539 0v274h266V0H678zm539 0v274h266V0h-266z"/><glyph horiz-adv-x="377"/><glyph unicode="‹" horiz-adv-x="724" d="M90 532v17l340 450 188-96-270-360 270-363-188-96z"/><glyph unicode="›" horiz-adv-x="724" d="M109 178l270 361-270 362 188 98 338-450v-17L297 84z"/><glyph horiz-adv-x="472"/><glyph unicode="™" horiz-adv-x="1413" d="M53 1323v111h510v-111H369V803H248v520H53zm645-520v631h129l191-299 190 299h125V803h-116v448l-195-303h-12l-195 303V803H698z"/><glyph unicode="◼" horiz-adv-x="1085" d="M0 0v1085h1085V0H0z"/><glyph unicode="ﬁ" horiz-adv-x="1355" d="M74 868v207h137v78q0 176 85 265t247 89q104 0 200-28v-209q-80 26-145 26-143 0-143-163v-60h286V868H459V0H211v868H74zm856 379v236h266v-236H930zM940 0v1081h248V0H940z"/><glyph unicode="ﬂ" horiz-adv-x="1355" d="M74 868v207h137v78q0 176 85 265t247 89q104 0 200-28v-209q-80 26-145 26-143 0-143-163v-60h286V868H459V0H211v868H74zM940 0v1495h248V0H940z"/></font>
</defs>
</svg>
