<svg xmlns="http://www.w3.org/2000/svg"><defs><font id="gothamblackitalic" horiz-adv-x="1665"><font-face units-per-em="2048" ascent="1638" descent="-410"/><glyph horiz-adv-x="0"/><glyph horiz-adv-x="682"/><glyph horiz-adv-x="567"/><glyph horiz-adv-x="567"/><glyph horiz-adv-x="567"/><glyph unicode="!" horiz-adv-x="659" d="M-20 0l92 348h405L383 0H-20zm225 467l92 793 47 174h444l-49-174-331-793H205z"/><glyph unicode="&quot;" horiz-adv-x="1105" d="M137 698l195 736h418l-2-11-406-725H137zm531 0l196 736h418l-2-11-406-725H668z"/><glyph unicode="#" horiz-adv-x="1427" d="M6 276l74 330h211l80 230H178l74 329h235l95 269h297l-95-269h258l95 269h297l-95-269h168l-73-329h-209l-82-230h194l-73-330h-236L930 0H633l98 276H471L375 0H78l96 276H6zm569 322h277l86 246H662z"/><glyph unicode="$" horiz-adv-x="1343" d="M-39 250l238 248q159-132 327-168l76 250q-98 30-166 63t-121.5 78.5T235 828t-26 141q0 96 44.5 181.5t123.5 148 195.5 99T827 1434h19l35 118h213l-41-141q215-50 364-180l-219-266q-106 88-244 131l-71-236q95-31 160.5-64t118.5-78.5 78.5-106.5 25.5-140q0-209-173-340T643 0h-10l-58-201H362l64 219Q136 72-39 250zm637 762q0-34 24-55.5t85-43.5l61 211q-84 0-127-31.5t-43-80.5zm115-701q81 3 123.5 33.5T879 428q0 33-21.5 55T778 528z"/><glyph unicode="%" horiz-adv-x="1890" d="M139 0l1411 1434h289L426 0H139zm23 1010q0 83 30.5 162.5t83.5 142 132 101 170 38.5q159 0 250.5-93.5T920 1120q0-83-30.5-162.5t-83-142-131.5-101T506 676q-161 0-252.5 93T162 1010zm239 10q0-58 31-93.5t84-35.5q72 0 119 67.5t47 151.5q0 58-31 93.5t-84 35.5q-72 0-119-68t-47-151zm656-707q0 83 30.5 163t83.5 142.5 132 101 170 38.5q159 0 250.5-93t91.5-241q0-83-30.5-162.5t-83.5-142-132-101T1399-20q-159 0-250.5 93.5T1057 313zm237 11q0-57 31.5-93t83.5-36q73 0 120.5 68t47.5 151q0 57-31.5 93t-83.5 36q-73 0-120.5-67.5T1294 324z"/><glyph unicode="&amp;" horiz-adv-x="1433" d="M27 373q0 160 108.5 275.5T438 827q-65 127-65 238 0 167 126 281t328 114q189 0 307.5-102t118.5-260q0-265-354-393l125-170q75 81 147 188l232-162q-86-133-201-254l117-157-260-179-101 142Q745-23 520-23 291-23 159 83.5T27 373zm374 30q0-58 45-94.5T569 272q96 0 211 68L586 616q-185-77-185-213zm295 648q0-72 47-146 104 39 148.5 79.5T936 1083q0 46-29.5 76.5T829 1190q-59 0-96-40.5t-37-98.5z"/><glyph unicode="'" horiz-adv-x="577" d="M137 698l195 736h424l-2-11-406-725H137z"/><glyph unicode="(" horiz-adv-x="931" d="M92 444q0 179 62 340.5T329 1074t266.5 226T936 1460l115-264q-285-126-433.5-325T469 455q0-140 61.5-264T717-68L496-293Q92 15 92 444z"/><glyph unicode=")" horiz-adv-x="931" d="M-102-23Q90 61 223.5 185T418 443t61 276q0 140-61 263.5T231 1241l224 225q401-308 401-737 0-179-62-340.5T619.5 99t-266-226T14-287z"/><glyph unicode="*" horiz-adv-x="892" d="M186 1069l277 21-230 157 158 156 156-229 20 274 209-55-119-250 250 121 58-213-277-21 230-158-158-153-156 229-20-274-209 55 119 248-250-119z"/><glyph unicode="+" horiz-adv-x="1331" d="M141 549l92 344h345l94 352h358l-94-352h344l-92-344H844l-94-352H391l94 352H141z"/><glyph unicode="," horiz-adv-x="618" d="M-152-188Q79-165 117 4H-41L68 403h403L379 59q-36-134-97-217.5T119-287t-254-51z"/><glyph unicode="-" horiz-adv-x="854" d="M68 469l92 342h671l-90-342H68z"/><glyph unicode="." horiz-adv-x="618" d="M-41 0L66 399h405L362 0H-41z"/><glyph unicode="/" horiz-adv-x="1095" d="M-297-262l1397 1896h340L43-262h-340z"/><glyph unicode="0" horiz-adv-x="1486" d="M102 553q0 136 36 269t106 248 164.5 203T629 1411.5t266 50.5q132 0 240.5-44.5T1317 1295t113-184.5 40-229.5q0-172-57.5-335T1254 255 1002 49 676-29q-174 0-305.5 76.5t-200 208T102 553zm404 20q0-122 55.5-186.5T711 322q79 0 147.5 51t113 130 70 172.5T1067 858q0 123-56.5 187.5T860 1110q-79 0-147.5-51T600 928.5t-69-173T506 573z"/><glyph unicode="1" horiz-adv-x="880" d="M172 0l283 1059-240-58-8 322 455 121h288L563 0H172z"/><glyph unicode="2" horiz-adv-x="1284" d="M-68 0l84 307 729 475q91 61 128.5 110.5T911 995q0 55-36 86t-103 31q-145 0-326-178l-231 244q254 278 594 278 231 0 367.5-113.5T1313 1047q0-139-83.5-255.5T936 547L586 324h571L1069 0H-68z"/><glyph unicode="3" horiz-adv-x="1251" d="M-49 248l270 223q122-160 303-160 104 0 172 51t68 119q0 131-223 131H403l-8 205 402 295H260l86 322h1036l-77-285-439-305q138-38 214.5-126t76.5-222q0-234-176-379.5T524-29Q138-29-49 248z"/><glyph unicode="4" horiz-adv-x="1390" d="M14 569l975 875h420l-231-869h182l-82-296h-180L1022 0H641l74 279H57zm443 4h338l108 408z"/><glyph unicode="5" horiz-adv-x="1253" d="M-45 227l250 234q155-152 342-152 111 0 180.5 56.5T797 504q0 68-54.5 110.5T584 657q-107 0-203-59L178 739l228 695h946l-88-328H637l-66-199q86 29 183 29 199 0 320.5-107.5T1196 539q0-118-47.5-221.5t-132-180T807 17 535-27q-172 0-332.5 74T-45 227z"/><glyph unicode="6" horiz-adv-x="1339" d="M100 512q0 199 72.5 391T381 1231q229 229 563 229 281 0 463-155l-199-281q-57 51-130.5 81T928 1135q-166 0-279-113-79-79-121-197 58 49 145 81t183 32q113 0 205.5-44.5T1211 759t57-210q0-155-82.5-287.5T960 51 649-27q-124 0-228 37.5T248 117Q100 265 100 512zm371-76q0-68 45-110 52-52 133-52 98 0 163 69t65 159q0 71-48 115.5T705 662q-102 0-168-67t-66-159z"/><glyph unicode="7" horiz-adv-x="1257" d="M-8 0l864 1100H209l90 334h1106l-82-299L446 0H-8z"/><glyph unicode="8" horiz-adv-x="1359" d="M49 381q0 148 92.5 246.5T399 770q-75 44-115 114.5T244 1040q0 77 37.5 150T388 1322.5t180.5 95.5 246.5 36q236 0 383.5-111.5T1346 1063q0-130-81.5-221T1038 709q99-41 155-115.5t56-179.5q0-185-172.5-309.5T625-20q-157 0-287.5 48T128 168.5 49 381zm393 47q-1-70 58.5-113T647 272q93 0 157 47.5T868 442q1 70-57.5 112T664 596q-93 0-157.5-47.5T442 428zm152 571q-1-66 52-105.5T778 854q83 0 141 46t58 116q1 65-51 105t-133 40q-83 0-141-46t-58-116z"/><glyph unicode="9" horiz-adv-x="1339" d="M10 139l199 279q143-119 289-119 163 0 280 117 79 76 117 186-57-49-143-79.5T569 492q-175 0-293 103.5T158 881q0 121 49 229t131.5 185 197 122 240.5 45q121 0 227.5-37.5T1178 1319q149-149 149-410 0-193-74-381t-211-325Q812-27 487-27 206-27 10 139zm539 789q0-73 49-117.5T725 766q99 0 164 68t65 163q0 67-43 113-49 49-133 49-100 0-164.5-68T549 928z"/><glyph unicode=":" horiz-adv-x="628" d="M-37 0L72 399h403L369 0H-37zm191 709l106 399h406L557 709H154z"/><glyph unicode=";" horiz-adv-x="628" d="M-147-193Q83-170 121 0H-37L72 399h403L383 55q-36-134-97-217.5T123-291t-254-51zm301 902l106 399h406L557 709H154z"/><glyph unicode="&lt;" horiz-adv-x="1318" d="M139 539l99 362 1126 406-102-379-730-226 611-223-92-346z"/><glyph unicode="=" horiz-adv-x="1308" d="M78 274l92 342h1006l-91-342H78zm147 551l92 342h1008l-92-342H225z"/><glyph unicode="&gt;" horiz-adv-x="1318" d="M41 133l102 379 729 225-610 224 92 346 912-406-99-362z"/><glyph unicode="?" horiz-adv-x="1105" d="M137 0l94 348h404L541 0H137zm62 1274q101 87 232 133.5t274 46.5q210 0 336-106.5t126-266.5q0-179-128-300T653 618l-61-151H344l37 344 18 16q373 31 373 179 0 47-34.5 74.5T635 1108q-134 0-277-111z"/><glyph unicode="@" horiz-adv-x="1976" d="M96 479q0 196 77.5 377t210 314.5 320 213.5 396.5 80q189 0 346-55.5t260.5-151 160-223T1923 762q0-163-43-290t-115-202.5-158.5-114T1425 117q-109 0-190 46t-121 122Q965 121 788 121q-136 0-226.5 95.5T471 473q0 123 41.5 233.5t110 188 160 123T971 1063q176 0 264-148l43 138 301-82-164-520q-31-96 1.5-150.5T1534 246q51 0 103.5 34.5t98 98T1810 544t29 224q0 126-51 237.5T1644.5 1201 1411 1333.5t-311 48.5q-192 0-364-73.5t-293-196-192-288T180 479q0-211 96-373.5t271-252T948-236q209 0 420 93l33-76q-212-96-455-96-249 0-442.5 99.5T203 64.5 96 479zm705 56q0-66 38-105t103-39q89 0 156 77t67 183q0 63-40 102.5T1022 793q-90 0-155.5-76.5T801 535z"/><glyph unicode="A" horiz-adv-x="1587" d="M-152 0l998 1444h389L1458 0h-418l-34 256H453L281 0h-433zm805 565h320l-51 412z"/><glyph unicode="B" horiz-adv-x="1462" d="M-25 0l385 1434h596q114 0 204-18.5t148-50 96.5-76 54.5-93.5 16-106q0-136-85.5-233T1153 723q100-35 158.5-108t58.5-179q0-195-165.5-315.5T719 0H-25zm474 319h301q102 0 161.5 42T971 471q0 113-176 113H520zm147 543h268q104 0 160.5 39t56.5 107q0 106-172 106H662z"/><glyph unicode="C" horiz-adv-x="1488" d="M104 598q0 127 39.5 252.5t117.5 235 184.5 194 250 133.5 303.5 49q215 0 365.5-96.5T1581 1100l-344-185q-90 185-289 185-116 0-215.5-66t-156-174.5T520 627q0-135 80-215t207-80q90 0 162 36t145 109l268-237Q1145-29 782-29q-301 0-489.5 171.5T104 598z"/><glyph unicode="D" horiz-adv-x="1558" d="M-25 0l385 1434h463q376 0 561-185 156-156 156-420 0-330-235-565Q1041 0 553 0H-25zm494 352h131q125 0 232.5 38T1010 498q58 58 90.5 136.5T1133 797q0 124-72 196-85 88-281 88H666z"/><glyph unicode="E" horiz-adv-x="1370" d="M-25 0l385 1434h1149l-92-338H664l-60-217h684l-84-314H520l-61-227h766L1135 0H-25z"/><glyph unicode="F" horiz-adv-x="1335" d="M-25 0l385 1434h1147l-94-349H666l-66-243h676l-88-330H512L375 0H-25z"/><glyph unicode="G" horiz-adv-x="1560" d="M102 604q0 170 67.5 326.5t186.5 274T648.5 1392t373.5 70q203 0 358.5-69.5T1616 1219l-266-258q-147 147-355 147-212 0-349.5-142.5T508 621q0-145 91.5-225.5T829 315q108 0 191 39l57 193H801l76 291h657l-205-723Q1081-29 793-29 688-29 589.5-6T402 67.5t-155.5 123-105.5 179T102 604z"/><glyph unicode="H" horiz-adv-x="1550" d="M-25 0l385 1434h400L614 897h506l144 537h399L1278 0H879l147 545H520L375 0H-25z"/><glyph unicode="I" horiz-adv-x="665" d="M-14 0l385 1434h397L383 0H-14z"/><glyph unicode="J" horiz-adv-x="1163" d="M-84 227l270 236q55-74 109.5-106.5T416 324q88 0 153 65 31 31 55.5 83.5T678 633l215 801h395l-233-877q-42-155-91-254T842 131Q683-25 403-25q-153 0-282 66T-84 227z"/><glyph unicode="K" horiz-adv-x="1478" d="M-25 0l385 1434h400L604 860l592 574h506l-676-629L1346 0H915L709 553 461 326 375 0H-25z"/><glyph unicode="L" horiz-adv-x="1263" d="M-25 0l385 1434h400L469 348h684L1059 0H-25z"/><glyph unicode="M" horiz-adv-x="1773" d="M-25 0l385 1434h402l190-555 488 555h446L1501 0h-399l219 823-514-561h-8L588 819 369 0H-25z"/><glyph unicode="N" horiz-adv-x="1599" d="M-25 0l385 1434h371l371-797 215 797h395L1327 0H979L592 825 371 0H-25z"/><glyph unicode="O" d="M106 616q0 130 40.5 255T264 1101.5 444.5 1288t237 126.5T961 1460q150 0 278.5-49.5t217-135 138.5-204 50-254.5q0-108-29-214t-81.5-199-130-172.5T1234 95 1027 5.5 791-27q-200 0-357 84.5t-242.5 231T106 616zm406 31q0-141 82.5-229T825 330q91 0 170.5 41T1127 478t82 147 30 161q0 141-82.5 229.5T926 1104q-90 0-169.5-41.5T624.5 955 542 808t-30-161z"/><glyph unicode="P" horiz-adv-x="1376" d="M-25 0l385 1434h469q340 0 492-152 113-113 113-293 0-175-89.5-306.5t-251-201T721 412H485L375 0H-25zm592 721h150q146 0 227.5 60t81.5 163q0 59-41 100-56 56-170 56H668z"/><glyph unicode="Q" d="M106 616q0 130 40.5 255T264 1101.5 444.5 1288t237 126.5T961 1460q150 0 278.5-49.5t217-135 138.5-204 50-254.5q0-158-62-307t-174-268l109-148-283-186-92 141Q979-27 791-27q-200 0-357 84.5t-242.5 231T106 616zm404 27q0-144 82.5-232.5T823 322q47 0 103 18L768 553l285 188 123-192q63 111 63 233 0 144-82.5 233T926 1104q-91 0-170.5-41.5T623 954.5t-83-148T510 643z"/><glyph unicode="R" horiz-adv-x="1474" d="M-25 0l385 1434h541q344 0 494-150 110-110 110-293 0-185-107.5-317T1075 483L1296 0H858L668 434H492L375 0H-25zm598 745h228q134 0 214.5 53.5T1096 944q0 56-37 96-50 50-176 50H668z"/><glyph unicode="S" horiz-adv-x="1320" d="M-47 238l256 264q210-195 442-195 72 0 117 29t45 78q0 42-45.5 72.5T573 575q-91 35-154.5 69.5t-115.5 81T226 833t-25 138q0 140 78.5 251.5T497 1396t312 62q365 0 588-213l-246-274q-182 157-379 157-70 0-113-29t-43-73q0-41 43-68t197-88q90-34 153-68.5t115.5-81.5 78.5-109 26-140q0-220-171.5-358T618-25q-208 0-378 68.5T-47 238z"/><glyph unicode="T" horiz-adv-x="1320" d="M172 1085l94 349h1256l-92-349H999L709 0H309l293 1085H172z"/><glyph unicode="U" horiz-adv-x="1556" d="M121 475q0 101 33 230l196 729h402L549 676q-21-79-21-135 0-98 59-153.5T752 332q116 0 192 76 77 74 121 237l213 789h401l-227-848q-76-281-223-428Q1044-27 700-27q-276 0-427.5 132.5T121 475z"/><glyph unicode="V" horiz-adv-x="1513" d="M223 1434h434l80-902 563 902h449L784-10H414z"/><glyph unicode="W" horiz-adv-x="2256" d="M240 1434h411l27-830 496 834h344l55-834 471 830h432L1610-10h-357l-65 815L686-10H332z"/><glyph unicode="X" horiz-adv-x="1460" d="M-154 0l699 750-297 684h436l158-404 354 404h479l-663-713L1327 0H889L717 442 328 0h-482z"/><glyph unicode="Y" horiz-adv-x="1386" d="M186 1434h428l142-537 432 537h475L862 512 725 0H326l149 555z"/><glyph unicode="Z" horiz-adv-x="1394" d="M-74 0L2 289l913 809H244l92 336h1218l-77-289-914-809h699L1171 0H-74z"/><glyph unicode="[" horiz-adv-x="958" d="M-53-266l456 1700h709l-72-265H680L365-2h360l-70-264H-53z"/><glyph unicode="\" horiz-adv-x="1095" d="M223 1634h314L961-262H647z"/><glyph unicode="]" horiz-adv-x="958" d="M-137-266L-66-2h361l313 1171H248l71 265h709L571-266h-708z"/><glyph unicode="^" horiz-adv-x="1024" d="M182 1010l408 422h262l182-422H782l-102 198-209-198H182z"/><glyph unicode="_" horiz-adv-x="1228" d="M-240-328l64 238h1237l-64-238H-240z"/><glyph unicode="`" horiz-adv-x="1024" d="M455 1464l366 117 113-379H682z"/><glyph unicode="a" horiz-adv-x="1222" d="M2 279q0 181 132.5 286T489 670q141 0 281-43l4 14q10 45 10 68 0 118-190 118-161 0-299-55l-55 283q191 67 436 67t369-91.5T1169 770q0-74-22-160L983 0H600l31 119Q556 49 479.5 13T311-23Q173-23 87.5 59.5T2 279zm379 40q0-47 30.5-74.5T492 217q74 0 139 58t88 143l10 37q-74 24-145 24-93 0-148-43t-55-117z"/><glyph unicode="b" horiz-adv-x="1376" d="M-43 0l399 1495h389L610 991q145 142 316 142 170 0 281.5-123T1319 678q0-145-49-276.5T1140 177 949.5 29.5 723-25q-220 0-336 177L346 0H-43zm506 496q0-89 53.5-143T655 299q110 0 190.5 93T926 616q0 89-52 142t-137 53q-112 0-193-94t-81-221z"/><glyph unicode="c" horiz-adv-x="1153" d="M57 459q0 183 89 337.5t242 244 335 89.5q184 0 304-83.5T1194 827L889 670q-29 69-74 104t-117 35q-108 0-187-101t-79-229q0-83 48-133.5T602 295q60 0 108 24.5T811 397l238-207Q958 84 845 28.5T575-27q-228 0-373 132.5T57 459z"/><glyph unicode="d" horiz-adv-x="1376" d="M57 430q0 145 49 276.5T236 931t190.5 147.5T653 1133q220 0 336-177l144 539h389L1122 0H733l33 117Q617-25 451-25 281-25 169 98T57 430zm394 62q0-89 51.5-142T639 297q112 0 193 94t81 221q0 89-53.5 143T721 809q-110 0-190-93t-80-224z"/><glyph unicode="e" horiz-adv-x="1230" d="M57 465q0 98 29.5 195T174 842t137 150 186 103 226 38 211.5-37.5 148-102.5 83.5-145.5 28-173.5q0-113-43-228H416q6-86 58-134t149-48q114 0 235 88l180-213Q847-27 586-27q-245 0-387 133.5T57 465zm385 180h396q10 30 10 60 0 61-39.5 101T696 846q-81 0-150.5-52.5T442 645z"/><glyph unicode="f" horiz-adv-x="856" d="M27 0l215 795H111l84 313h129l6 22q52 200 167 289.5t308 89.5q141 0 248-36l-72-273q-73 25-131 25-59 0-92-25.5t-47-79.5l-6-18h249l-82-307H631L416 0H27z"/><glyph unicode="g" horiz-adv-x="1368" d="M-96-180L78 63Q266-51 471-51q147 0 229 82 59 59 93 178l6 24Q649 98 463 98q-103 0-191.5 43t-146 132T68 481q0 171 75.5 319.5t210 239T649 1130q224 0 336-180l41 158h389l-235-881q-39-148-84-237.5T983-170q-84-83-204-122.5T487-332q-158 0-316 42T-96-180zm551 729q0-78 49-124t131-46q110 0 186 80.5T897 647q0 78-50 127t-134 49q-110 0-184-82.5T455 549z"/><glyph unicode="h" horiz-adv-x="1294" d="M-43 0l399 1495h389L608 981q144 152 318 152 150 0 235.5-89t85.5-243q0-71-33-199L1055 0H666l155 580q13 47 13 90 0 56-31.5 86T711 786q-152 0-207-200L346 0H-43z"/><glyph unicode="i" horiz-adv-x="616" d="M-35 0l297 1108h389L354 0H-35zm318 1208l77 287h406l-78-287H283z"/><glyph unicode="j" horiz-adv-x="620" d="M-274-319l67 258q28-7 49-7 60 0 94.5 36T-6 92l272 1016h389L369 43q-58-211-171-294t-307-83q-83 0-165 15zm559 1527l77 287h406l-78-287H285z"/><glyph unicode="k" horiz-adv-x="1226" d="M-43 0l401 1495h390L551 764l371 344h469L881 653 1098 0H682L563 393 418 264 346 0H-43z"/><glyph unicode="l" horiz-adv-x="616" d="M-35 0l402 1495h389L354 0H-35z"/><glyph unicode="m" horiz-adv-x="1982" d="M-43 0l297 1108h389l-33-123q144 148 310 148 110 0 183-51.5T1208 940q169 193 402 193 156 0 241.5-88t85.5-242q0-77-32-201L1743 0h-387l153 580q15 54 15 90 0 116-119 116-148 0-203-200L1044 0H655l156 580q14 51 14 90 0 116-118 116-148 0-203-200L346 0H-43z"/><glyph unicode="n" horiz-adv-x="1290" d="M-43 0l297 1108h389l-35-127q144 152 318 152 150 0 235.5-89t85.5-243q0-71-33-199L1055 0H666l155 580q13 47 13 90 0 56-31.5 86T711 786q-152 0-207-200L346 0H-43z"/><glyph unicode="o" horiz-adv-x="1318" d="M61 489q0 124 50.5 241.5t136 206 208 142.5 257.5 54q249 0 396.5-145.5T1257 618q0-125-50-242.5T1071 169 862.5 26.5 604-27q-248 0-395.5 145.5T61 489zm373 15q0-95 53-151t140-56q110 0 184 95.5T885 604q0 93-53 149t-140 56q-110 0-184-95.5T434 504z"/><glyph unicode="p" horiz-adv-x="1376" d="M-131-328l385 1436h389l-33-117q145 142 316 142 170 0 281.5-123T1319 678q0-145-49-276.5T1140 177 949.5 29.5 723-25q-220 0-336 177L258-328h-389zm594 824q0-89 53.5-143T655 299q110 0 190.5 93T926 616q0 89-52 142t-137 53q-112 0-193-94t-81-221z"/><glyph unicode="q" horiz-adv-x="1376" d="M57 430q0 145 49 276.5T236 931t190.5 147.5T653 1133q220 0 336-177l41 152h389L1024-369H635l131 486Q617-25 451-25 281-25 169 98T57 430zm394 62q0-89 51.5-142T639 297q112 0 193 94t81 221q0 89-53.5 143T721 809q-110 0-190-93t-80-224z"/><glyph unicode="r" horiz-adv-x="880" d="M-43 0l297 1108h389l-59-223q84 125 185 187 88 55 198 55 16 0 32-1L889 717h-33q-161 0-264.5-93T436 334L346 0H-43z"/><glyph unicode="s" horiz-adv-x="1046" d="M-76 166l193 227q77-70 178.5-109.5T485 244q49 0 74 18t25 49q0 28-32.5 49.5T432 416q-74 30-124 56.5T212 537t-68.5 88T121 739q0 171 130 282.5T604 1133q142 0 270-44.5T1083 977L897 743q-73 55-156 87t-157 32q-47 0-72-16.5T487 799q0-27 32.5-48.5T641 694q55-22 94-40.5t83-47.5 70.5-60.5 44-76.5 17.5-98q0-81-30.5-152T831 92.5 680 5 471-27q-157 0-301.5 51.5T-76 166z"/><glyph unicode="t" horiz-adv-x="880" d="M102 240q0 52 21 145l110 410H102l84 313h131l76 281h389l-75-281h258l-84-313H623l-95-349q-10-45-10-67 0-70 88-70 60 0 148 31L668 16Q559-23 438-23q-166 0-251 69t-85 194z"/><glyph unicode="u" horiz-adv-x="1294" d="M53 307q0 78 31 199l162 602h389L479 528q-14-51-14-90 0-56 32-86t93-30q153 0 205 200l157 586h389L1047 0H657l33 127Q546-25 375-25q-150 0-236 89.5T53 307z"/><glyph unicode="v" horiz-adv-x="1271" d="M166 1108h399l41-645 383 645h414L664-8H309z"/><glyph unicode="w" horiz-adv-x="1759" d="M172 1108h375l-4-557 321 561h320l22-565 299 561h379L1243-8H911l-26 575L547-8H211z"/><glyph unicode="x" horiz-adv-x="1206" d="M-127 0l530 575-229 533h404l96-268 223 268h438L819 547 1053 0H649L549 281 311 0h-438z"/><glyph unicode="y" horiz-adv-x="1273" d="M-102-254L72 31q77-56 153-56 56 0 97 41L178 1108h395l45-666 373 666h410L715 6Q596-180 476.5-257T193-334q-171 0-295 80z"/><glyph unicode="z" horiz-adv-x="1142" d="M-82 0l70 256 651 543H152l81 309h996l-68-256-653-543h510L936 0H-82z"/><glyph unicode="{" horiz-adv-x="1017" d="M55 459l68 258h55q83 0 135 15t86.5 54 52 94.5T483 1030q12 88 35.5 152.5t69 119.5 114.5 89 172.5 53 243.5 20l25-229q-79-6-136-23t-92.5-41.5-58-63.5-32.5-80-17-101q-12-90-31-148.5T718.5 672t-100-72.5T465 563q90-18 133-69t43-125q0-53-29-146-30-88-30-139 0-64 38.5-99.5T768-78L659-289q-124 14-210.5 40.5t-135 66-69.5 86T223 10q0 64 33 168 33 108 33 156 0 64-36.5 94.5T109 459H55z"/><glyph unicode="|" horiz-adv-x="729" d="M250-262v1896h297V-262H250z"/><glyph unicode="}" horiz-adv-x="1017" d="M-106-59q66 5 116 16.5T94.5-10t58 44.5T191 94t23 70.5 15 85.5q12 90 31 148.5t57.5 105 100 72T571 612q-90 18-133 69.5T395 807q0 52 29 145 31 91 31 140 0 64-39 99t-148 62l109 211q124-14 210.5-40.5t135-66 69.5-86 21-106.5q0-64-33-168-32-105-32-155 0-64 36.5-94.5T928 717h53l-68-258h-55q-83 0-135.5-15t-87-54.5-52-95T553 145Q541 57 517.5-7.5t-69-119.5T334-216t-172.5-53T-82-289z"/><glyph unicode="~" horiz-adv-x="1034" d="M84 526q58 141 144 218t184 77q87 0 172-63 70-49 106-49 40 0 71.5 29t63.5 87l183-84q-60-142-146.5-218.5T678 446q-86 0-172 64-70 49-107 49-40 0-71.5-29.5T264 442z"/><glyph unicode="¡" horiz-adv-x="659" d="M-41 0L8 174l332 793h203l-92-793L403 0H-41zm311 1085l95 349h403l-92-349H270z"/><glyph unicode="¢" horiz-adv-x="1198" d="M111 653q0 136 51 257.5T300.5 1120t212 139.5T778 1311h43l53 135h226l-72-182q176-79 240-260L987 858q-27 74-86 115L700 453q111 8 211 108l222-196Q951 154 666 154q-47 0-72 4L528-12H303l86 219q-132 61-205 176t-73 270zm340 17q0-110 67-164l199 506q-116-10-191-113.5T451 670z"/><glyph unicode="£" horiz-adv-x="1292" d="M-45 0l63 238 168 57 68 248H100l74 276h154l30 117q61 236 189 364 158 158 422 158 146 0 261.5-59t178.5-154l-268-241q-39 52-83 78t-106 26q-76 0-131-55-46-43-73-142l-27-92h428l-74-276H649l-61-228h583L1087 0H-45z"/><glyph unicode="¤" horiz-adv-x="1386" d="M39 457l57 213h137q10 60 23 102H123l57 213h133q93 217 269 347t419 130q365 0 504-301l-291-194q-43 79-99 116t-144 37q-159 0-252-139h346l-55-207H641q-18-63-25-106h365l-55-207H610q17-73 69-110.5T805 313t134 28.5 124 92.5l227-244Q1084-29 788-29q-234 0-388 132T223 457H39z"/><glyph unicode="¥" horiz-adv-x="1470" d="M63 190l66 246h377l26 103H156l65 245h287l-250 650h420l149-471 385 471h469l-596-650h283l-65-245H926l-27-103h375l-66-246H831L780 0H389l51 190H63z"/><glyph unicode="§" horiz-adv-x="1280" d="M47 168l203 215q65-60 157.5-100.5T582 242q108 0 108 61 0 28-40 48t-161 57q-66 19-116 37.5t-98.5 44-79 54-49.5 67-19 83.5q0 97 62.5 166.5T385 961q-68 71-68 167 0 141 131 237.5t347 96.5q162 0 302.5-52t223.5-140l-201-215q-64 60-157.5 99.5T786 1194q-51 0-78.5-15.5T680 1135q0-29 40.5-50t158.5-55q67-20 116.5-38.5t98-44.5 79-54.5 49.5-67 19-84.5q0-203-256-266 66-73 66-166 0-143-130-238.5T573-25q-162 0-302 52T47 168zm389 596q0-32 39.5-56.5T614 649q149-51 213-51 44 0 74.5 20.5T932 672q0 34-39.5 57.5T754 786q-157 54-211 54-46 0-76.5-21T436 764z"/><glyph unicode="¨" horiz-adv-x="1024" d="M291 1202l80 293h340l-80-293H291zm448 0l80 293h340l-80-293H739z"/><glyph unicode="©" horiz-adv-x="1699" d="M156 713v4q0 149 58 286t157 238 237 161 291 60 290.5-59.5T1425 1243t155.5-236.5T1638 721v-4q0-149-58-286.5t-157-238-237-161T895-29 604.5 30.5 369 190.5t-155.5 237T156 713zm86 0q0-134 50-255.5T428 247t208-141.5T895 53q138 0 260.5 53t209 143 137 212 50.5 256v4q0 179-84.5 330t-235 240-333.5 89q-138 0-260.5-53t-209-142.5-137-211.5T242 717v-4zm252 10v4q0 170 118 289t299 119q214 0 332-162l-166-131q-72 92-170 92-81 0-133.5-59.5T721 729v-4q0-87 52.5-146T907 520q57 0 96.5 23.5T1083 614l166-118q-61-85-142-131t-200-46q-179 0-296 116T494 723z"/><glyph unicode="ª" horiz-adv-x="808" d="M92 553l43 158h590l-43-158H92zm111 426q0 100 73.5 158.5T471 1196q75 0 154-27l4 13q6 15 6 32 0 68-105 68-83 0-161-29l-31 154q103 39 237 39t202.5-51 68.5-144q0-41-12-88l-91-336H530l19 66q-81-78-176-78-76 0-123 45t-47 119zm209 25q0-25 17-41.5t44-16.5q40 0 76.5 32t46.5 77l6 22q-51 15-82 15-48 0-78-24.5t-30-63.5z"/><glyph unicode="«" horiz-adv-x="1290" d="M61 516l27 100 440 435 215-197-340-330 168-338L283 57zm529 16l4 17 493 485 216-196-351-340 158-318L821 51z"/><glyph unicode="­" horiz-adv-x="854" d="M68 469l92 342h671l-90-342H68z"/><glyph unicode="®" horiz-adv-x="1699" d="M156 713v4q0 149 58 286t157 238 237 161 291 60 290.5-59.5T1425 1243t155.5-236.5T1638 721v-4q0-149-58-286.5t-157-238-237-161T895-29 604.5 30.5 369 190.5t-155.5 237T156 713zm86 0q0-134 50-255.5T428 247t208-141.5T895 53q138 0 260.5 53t209 143 137 212 50.5 256v4q0 179-84.5 330t-235 240-333.5 89q-138 0-260.5-53t-209-142.5-137-211.5T242 717v-4zm327-369v789h369q175 0 264-89 70-70 70-180v-4q0-173-164-242l188-274h-252L885 584h-94V344H569zm222 410h141q57 0 88 24.5t31 67.5v4q0 46-32 70t-87 24H791V754z"/><glyph unicode="¯" horiz-adv-x="1024" d="M305 1212l62 238h770l-64-238H305z"/><glyph unicode="°" horiz-adv-x="925" d="M184 1040q0 170 118.5 291T592 1452q159 0 253.5-95t94.5-237q0-170-118.5-290.5T532 709q-158 0-253 94t-95 237zm217 11q0-66 39.5-108T543 901q80 0 131 65t51 144q0 66-39 108t-102 42q-81 0-132-64.5T401 1051z"/><glyph unicode="±" horiz-adv-x="1277" d="M-45 244l264 229q71-85 148.5-125.5T547 307q100 0 159.5 46.5T766 461q0 56-42 84t-136 28H440l80 299h139q102 0 164 38t62 106q0 49-41.5 79.5T739 1126q-81 0-155-34T424 987l-203 250q236 225 567 225 227 0 361.5-108t134.5-262q0-144-87-238.5T950 715q98-35 155.5-109t57.5-180q0-131-80-235T861.5 29 543-29Q140-29-45 244z"/><glyph unicode="´" horiz-adv-x="1024" d="M410 1202l317 379 354-117-370-262H410z"/><glyph unicode="µ" d="M106 616q0 130 40.5 255T264 1101.5 444.5 1288t237 126.5T961 1460q150 0 278.5-49.5t217-135 138.5-204 50-254.5q0-158-62-307t-174-268l109-148-283-186-92 141Q979-27 791-27q-200 0-357 84.5t-242.5 231T106 616zm404 27q0-144 82.5-232.5T823 322q47 0 103 18L768 553l285 188 123-192q63 111 63 233 0 144-82.5 233T926 1104q-91 0-170.5-41.5T623 954.5t-83-148T510 643z"/><glyph unicode="¶" horiz-adv-x="1222" d="M141 862q0 125 46.5 229.5t135.5 181 227.5 119T864 1434h471L950 0H553l115 434q-527 26-527 428z"/><glyph unicode="·" horiz-adv-x="618" d="M72 440l106 400h406L475 440H72z"/><glyph unicode="¸" horiz-adv-x="1024" d="M43-223L299 31h264L328-354z"/><glyph unicode="º" horiz-adv-x="823" d="M98 553l43 158h580l-41-158H98zm111 543q0 90 46 170t130 130 184 50q136 0 217.5-81t81.5-206q0-139-104-244.5T510 809q-137 0-219 81t-82 206zm207 4q0-50 28.5-81.5T520 987q61 0 101.5 51t40.5 115q0 51-29 83t-76 32q-61 0-101-51t-40-117z"/><glyph unicode="»" horiz-adv-x="1290" d="M-12 270l350 340-158 318 291 129 229-479-4-17L203 76zm559-16l340 330-168 338 291 129 221-459-29-100L762 57z"/><glyph unicode="¿" horiz-adv-x="1105" d="M27 352q0 179 129 300t387 163l61 152h246l-35-344-20-17q-371-30-371-178 0-47 34-74.5T559 326q138 0 277 110l159-276Q896 73 765 26.5T492-20Q280-20 153.5 86T27 352zm532 733l94 349h406l-94-349H559z"/><glyph unicode="À" horiz-adv-x="1587" d="M-152 0l998 1444h389L1458 0h-418l-34 256H453L281 0h-433zm805 565h320l-51 412zm58 1227l366 117 113-379H938z"/><glyph unicode="Á" horiz-adv-x="1587" d="M-152 0l998 1444h389L1458 0h-418l-34 256H453L281 0h-433zm805 565h320l-51 412zm217 965l318 379 354-117-371-262H870z"/><glyph unicode="Â" horiz-adv-x="1587" d="M-152 0l998 1444h389L1458 0h-418l-34 256H453L281 0h-433zm764 1530l353 338h315l172-338h-231l-140 125-207-125H612zm41-965h320l-51 412z"/><glyph unicode="Ã" horiz-adv-x="1587" d="M-152 0l998 1444h389L1458 0h-418l-34 256H453L281 0h-433zm768 1606q58 143 145 219t185 76q84 0 172-62 70-51 105-51 40 0 71.5 29.5t63.5 87.5l182-82q-59-143-145.5-219t-184.5-76q-85 0-172 61-40 28-62 39.5t-44 11.5q-39 0-70-29.5t-63-86.5zm37-1041h320l-51 412z"/><glyph unicode="Ä" horiz-adv-x="1587" d="M-152 0l998 1444h389L1458 0h-418l-34 256H453L281 0h-433zm805 565h320l-51 412zm0 965l80 293h340l-80-293H653zm449 0l80 293h340l-80-293h-340z"/><glyph unicode="Å" horiz-adv-x="1587" d="M-152 0q62 89 163 235t314.5 455T681 1204.5 823 1409q-39 58-39 125 0 122 88 209.5t213 87.5q112 0 180-65t68-164q0-122-90-205L1458 0h-418l-34 256H453L281 0h-433zm805 565h320l-51 412zm279 973q0-47 28-77.5t76-30.5q65 0 107.5 51t42.5 118q0 46-29 77.5t-78 31.5q-63 0-105-52t-42-118z"/><glyph unicode="Æ" horiz-adv-x="2211" d="M-156 0L971 1434h1378l-90-338h-715l-57-217h641l-84-314h-641l-64-227h725L1974 0H862l70 256H475L276 0h-432zm869 565h303l145 549h-26z"/><glyph unicode="Ç" horiz-adv-x="1488" d="M104 598q0 127 39.5 251.5T261 1084t183 194 246.5 133 298.5 49q219 0 373.5-97t218.5-265l-342-185q-90 185-291 185-116 0-215.5-66t-156-174T520 627q0-133 80.5-213T807 334q90 0 162 36t145 109l268-237Q1147-22 799-27L596-354 311-223 543 6Q340 67 222 222T104 598z"/><glyph unicode="È" horiz-adv-x="1370" d="M-25 0l385 1434h1149l-92-338H664l-60-217h684l-84-314H520l-61-227h766L1135 0H-25zm674 1792l367 117 112-379H877z"/><glyph unicode="É" horiz-adv-x="1370" d="M-25 0l385 1434h1149l-92-338H664l-60-217h684l-84-314H520l-61-227h766L1135 0H-25zm783 1530l317 379 355-117-371-262H758z"/><glyph unicode="Ê" horiz-adv-x="1370" d="M-25 0l385 1434h1149l-92-338H664l-60-217h684l-84-314H520l-61-227h766L1135 0H-25zm557 1530l353 338h315l172-338h-231l-140 125-206-125H532z"/><glyph unicode="Ë" horiz-adv-x="1370" d="M-25 0l385 1434h1149l-92-338H664l-60-217h684l-84-314H520l-61-227h766L1135 0H-25zm584 1530l80 293h340l-80-293H559zm449 0l79 293h340l-79-293h-340z"/><glyph unicode="Ì" horiz-adv-x="665" d="M-14 0l385 1434h397L383 0H-14zm278 1792l367 117 112-379H492z"/><glyph unicode="Í" horiz-adv-x="665" d="M-14 0l385 1434h397L383 0H-14zm422 1530l317 379 354-117-370-262H408z"/><glyph unicode="Î" horiz-adv-x="665" d="M-14 0l385 1434h397L383 0H-14zm170 1530l352 338h315l172-338H764l-139 125-207-125H156z"/><glyph unicode="Ï" horiz-adv-x="665" d="M-14 0l385 1434h397L383 0H-14zm213 1530l80 293h339l-79-293H199zm448 0l80 293h340l-80-293H647z"/><glyph unicode="Ð" horiz-adv-x="1638" d="M47 565l86 314h172l150 555h452q376 0 561-185 156-156 156-420 0-330-235-565Q1125 0 637 0H70l149 565H47zm500-225h135q127 0 238 39t182 110q60 61 94.5 143t34.5 167q0 125-74 202-94 91-289 91H750l-58-213h234l-84-314H608z"/><glyph unicode="Ñ" horiz-adv-x="1599" d="M-25 0l385 1434h371l371-797 215 797h395L1327 0H979L592 825 371 0H-25zm637 1606q58 143 145 219t185 76q84 0 172-62 70-51 105-51 40 0 71.5 29.5t63.5 87.5l182-82q-59-143-145.5-219t-184.5-76q-85 0-172 61-40 28-62 39.5t-44 11.5q-39 0-70-29.5t-63-86.5z"/><glyph unicode="Ò" d="M106 616q0 130 40.5 255T264 1101.5 444.5 1288t237 126.5T961 1460q150 0 278.5-49.5t217-135 138.5-204 50-254.5q0-108-29-214t-81.5-199-130-172.5T1234 95 1027 5.5 791-27q-200 0-357 84.5t-242.5 231T106 616zm406 31q0-141 82.5-229T825 330q91 0 170.5 41T1127 478t82 147 30 161q0 141-82.5 229.5T926 1104q-90 0-169.5-41.5T624.5 955 542 808t-30-161zm193 1145l366 117 113-379H932z"/><glyph unicode="Ó" d="M106 616q0 130 40.5 255T264 1101.5 444.5 1288t237 126.5T961 1460q150 0 278.5-49.5t217-135 138.5-204 50-254.5q0-108-29-214t-81.5-199-130-172.5T1234 95 1027 5.5 791-27q-200 0-357 84.5t-242.5 231T106 616zm406 31q0-141 82.5-229T825 330q91 0 170.5 41T1127 478t82 147 30 161q0 141-82.5 229.5T926 1104q-90 0-169.5-41.5T624.5 955 542 808t-30-161zm295 883l317 379 355-117-371-262H807z"/><glyph unicode="Ô" d="M106 616q0 130 40.5 255T264 1101.5 444.5 1288t237 126.5T961 1460q150 0 278.5-49.5t217-135 138.5-204 50-254.5q0-108-29-214t-81.5-199-130-172.5T1234 95 1027 5.5 791-27q-200 0-357 84.5t-242.5 231T106 616zm406 31q0-141 82.5-229T825 330q91 0 170.5 41T1127 478t82 147 30 161q0 141-82.5 229.5T926 1104q-90 0-169.5-41.5T624.5 955 542 808t-30-161zm94 883l352 338h316l172-338h-232l-139 125-207-125H606z"/><glyph unicode="Õ" d="M106 616q0 130 40.5 255T264 1101.5 444.5 1288t237 126.5T961 1460q150 0 278.5-49.5t217-135 138.5-204 50-254.5q0-108-29-214t-81.5-199-130-172.5T1234 95 1027 5.5 791-27q-200 0-357 84.5t-242.5 231T106 616zm406 31q0-141 82.5-229T825 330q91 0 170.5 41T1127 478t82 147 30 161q0 141-82.5 229.5T926 1104q-90 0-169.5-41.5T624.5 955 542 808t-30-161zm104 959q58 143 145 219t185 76q84 0 172-62 70-51 105-51 40 0 71.5 29.5t63.5 87.5l182-82q-59-143-145.5-219t-184.5-76q-85 0-172 61-40 28-62 39.5t-44 11.5q-39 0-70-29.5t-63-86.5z"/><glyph unicode="Ö" d="M106 616q0 130 40.5 255T264 1101.5 444.5 1288t237 126.5T961 1460q150 0 278.5-49.5t217-135 138.5-204 50-254.5q0-108-29-214t-81.5-199-130-172.5T1234 95 1027 5.5 791-27q-200 0-357 84.5t-242.5 231T106 616zm406 31q0-141 82.5-229T825 330q91 0 170.5 41T1127 478t82 147 30 161q0 141-82.5 229.5T926 1104q-90 0-169.5-41.5T624.5 955 542 808t-30-161zm139 883l80 293h340l-80-293H651zm449 0l80 293h340l-80-293h-340z"/><glyph unicode="Ø" d="M-74-10l289 262Q106 411 106 616q0 130 40.5 255T264 1101.5 444.5 1288t237 126.5T961 1460q262 0 448-143l139 127h301l-305-277q101-150 101-350 0-108-29-214t-81.5-199-130-172.5T1234 95 1027 5.5 791-27q-256 0-435 136L227-10H-74zm576 655q0-71 20-127l598 543q-76 55-194 55-92 0-173.5-42.5T617.5 963 533 811.5 502 645zm145-285q78-43 178-43 74 0 142 28t119 75 88.5 107.5 57 127.5 19.5 133q0 56-16 109z"/><glyph unicode="Ù" horiz-adv-x="1556" d="M121 475q0 101 33 230l196 729h402L549 676q-21-79-21-135 0-98 59-153.5T752 332q116 0 192 76 77 74 121 237l213 789h401l-227-848q-76-281-223-428Q1044-27 700-27q-276 0-427.5 132.5T121 475zm579 1313l367 117 113-379H928z"/><glyph unicode="Ú" horiz-adv-x="1556" d="M121 475q0 101 33 230l196 729h402L549 676q-21-79-21-135 0-98 59-153.5T752 332q116 0 192 76 77 74 121 237l213 789h401l-227-848q-76-281-223-428Q1044-27 700-27q-276 0-427.5 132.5T121 475zm710 1051l318 379 354-117-370-262H831z"/><glyph unicode="Û" horiz-adv-x="1556" d="M121 475q0 101 33 230l196 729h402L549 676q-21-79-21-135 0-98 59-153.5T752 332q116 0 192 76 77 74 121 237l213 789h401l-227-848q-76-281-223-428Q1044-27 700-27q-276 0-427.5 132.5T121 475zm481 1055l352 338h316l172-338h-232l-139 125-207-125H602z"/><glyph unicode="Ü" horiz-adv-x="1556" d="M121 475q0 101 33 230l196 729h402L549 676q-21-79-21-135 0-98 59-153.5T752 332q116 0 192 76 77 74 121 237l213 789h401l-227-848q-76-281-223-428Q1044-27 700-27q-276 0-427.5 132.5T121 475zm522 1055l80 293h340l-80-293H643zm449 0l79 293h340l-79-293h-340z"/><glyph unicode="Ý" horiz-adv-x="1386" d="M186 1434h428l142-537 432 537h475L862 512 725 0H326l149 555zm545 96l318 379 354-117-371-262H731z"/><glyph unicode="Þ" horiz-adv-x="1396" d="M-25 0l385 1434h400l-53-205h75q174 0 292-36t196-114q110-113 110-288 0-263-194-418.5T676 217H432L375 0H-25zm543 532h150q144 0 225.5 60.5T975 754q0 61-41 102-53 53-170 53H618z"/><glyph unicode="ß" horiz-adv-x="1308" d="M-39 0l264 981q65 246 193 377 153 153 413 153 218 0 349-110.5t131-290.5q0-151-82.5-257T989 702q100-37 158.5-107t58.5-167-44-178.5T1032 106 804 13.5 481-6l74 282q145 0 214 54t69 135q0 58-47 97t-146 48l55 207q127 27 187.5 88.5T948 1053q0 64-37.5 100.5T817 1190q-148 0-209-225L350 0H-39z"/><glyph unicode="à" horiz-adv-x="1222" d="M2 279q0 181 132.5 286T489 670q141 0 281-43l4 14q10 45 10 68 0 118-190 118-161 0-299-55l-55 283q191 67 436 67t369-91.5T1169 770q0-74-22-160L983 0H600l31 119Q556 49 479.5 13T311-23Q173-23 87.5 59.5T2 279zm379 40q0-47 30.5-74.5T492 217q74 0 139 58t88 143l10 37q-74 24-145 24-93 0-148-43t-55-117zm76 1145l366 117 113-379H684z"/><glyph unicode="á" horiz-adv-x="1222" d="M2 279q0 181 132.5 286T489 670q141 0 281-43l4 14q10 45 10 68 0 118-190 118-161 0-299-55l-55 283q191 67 436 67t369-91.5T1169 770q0-74-22-160L983 0H600l31 119Q556 49 479.5 13T311-23Q173-23 87.5 59.5T2 279zm379 40q0-47 30.5-74.5T492 217q74 0 139 58t88 143l10 37q-74 24-145 24-93 0-148-43t-55-117zm190 883l318 379 354-117-371-262H571z"/><glyph unicode="â" horiz-adv-x="1222" d="M2 279q0 181 132.5 286T489 670q141 0 281-43l4 14q10 45 10 68 0 118-190 118-161 0-299-55l-55 283q191 67 436 67t369-91.5T1169 770q0-74-22-160L983 0H600l31 119Q556 49 479.5 13T311-23Q173-23 87.5 59.5T2 279zm358 923l353 338h315l172-338H969l-140 125-206-125H360zm21-883q0-47 30.5-74.5T492 217q74 0 139 58t88 143l10 37q-74 24-145 24-93 0-148-43t-55-117z"/><glyph unicode="ã" horiz-adv-x="1222" d="M2 279q0 181 132.5 286T489 670q141 0 281-43l4 14q10 45 10 68 0 118-190 118-161 0-299-55l-55 283q191 67 436 67t369-91.5T1169 770q0-74-22-160L983 0H600l31 119Q556 49 479.5 13T311-23Q173-23 87.5 59.5T2 279zm342 999q58 143 145 219t185 76q84 0 172-62 70-51 104-51 40 0 71.5 29.5t63.5 87.5l183-82q-59-143-145.5-219T938 1200q-84 0-172 62-73 51-107 51-39 0-70-29.5t-63-87.5zm37-959q0-47 30.5-74.5T492 217q74 0 139 58t88 143l10 37q-74 24-145 24-93 0-148-43t-55-117z"/><glyph unicode="ä" horiz-adv-x="1222" d="M2 279q0 181 132.5 286T489 670q141 0 281-43l4 14q10 45 10 68 0 118-190 118-161 0-299-55l-55 283q191 67 436 67t369-91.5T1169 770q0-74-22-160L983 0H600l31 119Q556 49 479.5 13T311-23Q173-23 87.5 59.5T2 279zm379 40q0-47 30.5-74.5T492 217q74 0 139 58t88 143l10 37q-74 24-145 24-93 0-148-43t-55-117zm8 885l80 293h340l-80-293H389zm449 0l80 293h339l-79-293H838z"/><glyph unicode="å" horiz-adv-x="1222" d="M2 279q0 181 132.5 286T489 670q141 0 281-43l4 14q10 45 10 68 0 118-190 118-161 0-299-55l-55 283q191 67 436 67t369-91.5T1169 770q0-74-22-160L983 0H600l31 119Q556 49 479.5 13T311-23Q173-23 87.5 59.5T2 279zm379 40q0-47 30.5-74.5T492 217q74 0 139 58t88 143l10 37q-74 24-145 24-93 0-148-43t-55-117zm197 1123q0 122 88 209.5t213 87.5q111 0 178-65.5t67-164.5q0-121-88-209t-213-88q-111 0-178 65.5T578 1442zm145 4q0-47 29-78t77-31q65 0 107.5 51.5T979 1507q0 46-29.5 77.5T872 1616q-65 0-107-52t-42-118z"/><glyph unicode="æ" horiz-adv-x="1906" d="M2 279q0 181 132.5 286T489 670q141 0 281-43l4 14q10 45 10 68 0 118-190 118-161 0-299-55l-55 283q191 67 436 67 254 0 360-131 172 142 379 142 91 0 166.5-24.5T1710 1041t89.5-101.5T1853 814t17-140q0-113-43-228h-735q6-86 57.5-134t148.5-48q115 0 236 88l180-213Q1526-27 1255-27q-138 0-246 52.5T834 174Q634-23 356-23 192-23 97 58T2 279zm379 40q0-47 34.5-75.5T512 215q60 0 128 29t124 82q-16 59-19 120-75 33-161 33-93 0-148-43t-55-117zm737 326h395q11 33 11 60 0 61-39.5 101T1372 846q-81 0-150.5-52.5T1118 645z"/><glyph unicode="ç" horiz-adv-x="1153" d="M57 459q0 183 89 337.5t242 244 335 89.5q184 0 304-83.5T1194 827L889 670q-29 69-74 104t-117 35q-108 0-187-101t-79-229q0-83 47.5-133.5T598 295q62 0 111 23.5T811 397l238-207Q961 89 855 34T602-27L399-354 115-223 352 12Q214 67 135.5 183T57 459z"/><glyph unicode="è" horiz-adv-x="1230" d="M57 465q0 98 29.5 195T174 842t137 150 186 103 226 38 211.5-37.5 148-102.5 83.5-145.5 28-173.5q0-113-43-228H416q6-86 58-134t149-48q114 0 235 88l180-213Q847-27 586-27q-245 0-387 133.5T57 465zm385 180h396q10 30 10 60 0 61-39.5 101T696 846q-81 0-150.5-52.5T442 645zm7 819l366 117 113-379H676z"/><glyph unicode="é" horiz-adv-x="1230" d="M57 465q0 98 29.5 195T174 842t137 150 186 103 226 38 211.5-37.5 148-102.5 83.5-145.5 28-173.5q0-113-43-228H416q6-86 58-134t149-48q114 0 235 88l180-213Q847-27 586-27q-245 0-387 133.5T57 465zm385 180h396q10 30 10 60 0 61-39.5 101T696 846q-81 0-150.5-52.5T442 645zm119 557l318 379 354-117-371-262H561z"/><glyph unicode="ê" horiz-adv-x="1230" d="M57 465q0 98 29.5 195T174 842t137 150 186 103 226 38 211.5-37.5 148-102.5 83.5-145.5 28-173.5q0-113-43-228H416q6-86 58-134t149-48q114 0 235 88l180-213Q847-27 586-27q-245 0-387 133.5T57 465zm287 737l352 338h316l172-338H952l-139 125-207-125H344zm98-557h396q10 30 10 60 0 61-39.5 101T696 846q-81 0-150.5-52.5T442 645z"/><glyph unicode="ë" horiz-adv-x="1230" d="M57 465q0 98 29.5 195T174 842t137 150 186 103 226 38 211.5-37.5 148-102.5 83.5-145.5 28-173.5q0-113-43-228H416q6-86 58-134t149-48q114 0 235 88l180-213Q847-27 586-27q-245 0-387 133.5T57 465zm322 737l80 293h340l-80-293H379zm63-557h396q10 30 10 60 0 61-39.5 101T696 846q-81 0-150.5-52.5T442 645zm385 557l80 293h340l-80-293H827z"/><glyph unicode="ì" horiz-adv-x="616" d="M-35 0l297 1108h389L354 0H-35zm213 1464l367 117 112-379H406z"/><glyph unicode="í" horiz-adv-x="616" d="M-35 0l297 1108h389L354 0H-35zm318 1202l317 379 354-117-370-262H283z"/><glyph unicode="î" horiz-adv-x="616" d="M-35 0l297 1108h389L354 0H-35zm84 1202l352 338h316l172-338H657l-139 125-207-125H49z"/><glyph unicode="ï" horiz-adv-x="616" d="M-35 0l297 1108h389L354 0H-35zM84 1202l80 293h340l-80-293H84zm448 0l80 293h340l-80-293H532z"/><glyph unicode="ð" horiz-adv-x="1314" d="M53 453q0 143 70.5 264T322 910.5 608 983q155 0 269-84l-113 244-268-92-84 182 272 86-80 176h371l31-70 247 84 84-182-254-80 80-182q90-202 90-408 0-145-46-270t-130.5-216.5T866.5 27 590-25q-239 0-388 134.5T53 453zm375 30q0-83 54-133.5T616 299q106 0 176 72t70 168q0 81-53 131.5T674 721q-104 0-175-70t-71-168z"/><glyph unicode="ñ" horiz-adv-x="1290" d="M-43 0l297 1108h389l-35-127q144 152 318 152 150 0 235.5-89t85.5-243q0-71-33-199L1055 0H666l155 580q13 47 13 90 0 56-31.5 86T711 786q-152 0-207-200L346 0H-43zm410 1278q58 143 144.5 219t184.5 76q84 0 172-62 70-51 105-51 40 0 71.5 29.5t63.5 87.5l182-82q-59-143-145-219t-184-76q-85 0-173 62-40 28-62 39.5t-44 11.5q-39 0-70-29.5t-63-87.5z"/><glyph unicode="ò" horiz-adv-x="1318" d="M61 489q0 124 50.5 241.5t136 206 208 142.5 257.5 54q249 0 396.5-145.5T1257 618q0-125-50-242.5T1071 169 862.5 26.5 604-27q-248 0-395.5 145.5T61 489zm373 15q0-95 53-151t140-56q110 0 184 95.5T885 604q0 93-53 149t-140 56q-110 0-184-95.5T434 504zm33 960l367 117 112-379H694z"/><glyph unicode="ó" horiz-adv-x="1318" d="M61 489q0 124 50.5 241.5t136 206 208 142.5 257.5 54q249 0 396.5-145.5T1257 618q0-125-50-242.5T1071 169 862.5 26.5 604-27q-248 0-395.5 145.5T61 489zm373 15q0-95 53-151t140-56q110 0 184 95.5T885 604q0 93-53 149t-140 56q-110 0-184-95.5T434 504zm141 698l318 379 354-117-370-262H575z"/><glyph unicode="ô" horiz-adv-x="1318" d="M61 489q0 124 50.5 241.5t136 206 208 142.5 257.5 54q249 0 396.5-145.5T1257 618q0-125-50-242.5T1071 169 862.5 26.5 604-27q-248 0-395.5 145.5T61 489zm291 713l353 338h315l172-338H961l-140 125-207-125H352zm82-698q0-95 53-151t140-56q110 0 184 95.5T885 604q0 93-53 149t-140 56q-110 0-184-95.5T434 504z"/><glyph unicode="õ" horiz-adv-x="1318" d="M61 489q0 124 50.5 241.5t136 206 208 142.5 257.5 54q249 0 396.5-145.5T1257 618q0-125-50-242.5T1071 169 862.5 26.5 604-27q-248 0-395.5 145.5T61 489zm287 789q58 143 145 219t185 76q84 0 172-62 70-51 104-51 40 0 72 29.5t64 87.5l182-82q-59-143-145.5-219T942 1200q-84 0-172 62-40 28-62 39.5t-44 11.5q-39 0-70.5-30t-63.5-87zm86-774q0-95 53-151t140-56q110 0 184 95.5T885 604q0 93-53 149t-140 56q-110 0-184-95.5T434 504z"/><glyph unicode="ö" horiz-adv-x="1318" d="M61 489q0 124 50.5 241.5t136 206 208 142.5 257.5 54q249 0 396.5-145.5T1257 618q0-125-50-242.5T1071 169 862.5 26.5 604-27q-248 0-395.5 145.5T61 489zm322 713l80 293h340l-80-293H383zm51-698q0-95 53-151t140-56q110 0 184 95.5T885 604q0 93-53 149t-140 56q-110 0-184-95.5T434 504zm397 698l80 293h340l-80-293H831z"/><glyph unicode="ø" horiz-adv-x="1318" d="M-115-10l250 223Q61 334 61 496q0 163 84.5 309t236 237 331.5 91q210 0 352-107l102 92h273l-254-227q71-118 71-279 0-122-50-238t-136-204T862.5 28.5 604-25Q398-25 258 80L158-10h-273zm533 512q0-17 4-53l387 346q-46 28-113 28-119 0-198.5-99.5T418 502zm96-193q50-26 109-26 119 0 198.5 100.5T901 606q0 19-4 47z"/><glyph unicode="ù" horiz-adv-x="1294" d="M53 307q0 78 31 199l162 602h389L479 528q-14-51-14-90 0-56 32-86t93-30q153 0 205 200l157 586h389L1047 0H657l33 127Q546-25 375-25q-150 0-236 89.5T53 307zm469 1157l367 117 112-379H750z"/><glyph unicode="ú" horiz-adv-x="1294" d="M53 307q0 78 31 199l162 602h389L479 528q-14-51-14-90 0-56 32-86t93-30q153 0 205 200l157 586h389L1047 0H657l33 127Q546-25 375-25q-150 0-236 89.5T53 307zm555 895l318 379 354-117-371-262H608z"/><glyph unicode="û" horiz-adv-x="1294" d="M53 307q0 78 31 199l162 602h389L479 528q-14-51-14-90 0-56 32-86t93-30q153 0 205 200l157 586h389L1047 0H657l33 127Q546-25 375-25q-150 0-236 89.5T53 307zm336 895l352 338h316l172-338H997l-139 125-207-125H389z"/><glyph unicode="ü" horiz-adv-x="1294" d="M53 307q0 78 31 199l162 602h389L479 528q-14-51-14-90 0-56 32-86t93-30q153 0 205 200l157 586h389L1047 0H657l33 127Q546-25 375-25q-150 0-236 89.5T53 307zm373 895l80 293h340l-80-293H426zm448 0l80 293h340l-80-293H874z"/><glyph unicode="ý" horiz-adv-x="1273" d="M-102-254L72 31q77-56 153-56 56 0 97 41L178 1108h395l45-666 373 666h410L715 6Q596-180 476.5-257T193-334q-171 0-295 80zm714 1456l318 379 354-117-371-262H612z"/><glyph unicode="þ" horiz-adv-x="1376" d="M-131-328l487 1823h389L610 991q145 142 316 142 170 0 281.5-123T1319 678q0-145-49-276.5T1140 177 949.5 29.5 723-25q-220 0-336 177L258-328h-389zm594 824q0-89 53.5-143T655 299q110 0 190.5 93T926 616q0 89-52 142t-137 53q-112 0-193-94t-81-221z"/><glyph unicode="ÿ" horiz-adv-x="1273" d="M-102-254L72 31q77-56 153-56 56 0 97 41L178 1108h395l45-666 373 666h410L715 6Q596-180 476.5-257T193-334q-171 0-295 80zm501 1456l80 293h340l-80-293H399zm449 0l80 293h340l-80-293H848z"/><glyph unicode="Œ" horiz-adv-x="2211" d="M104 604q0 329 236 565 265 265 752 265h1257l-90-338h-715l-57-217h641l-84-314h-641l-64-227h725L1974 0H821Q444 0 256 188 104 340 104 604zm410 33q0-125 72-197 85-88 278-88h86l197 729h-100q-127 0-233.5-37.5T637 936q-58-58-90.5-136.5T514 637z"/><glyph unicode="œ" horiz-adv-x="2052" d="M61 496q0 164 84 310t235.5 236.5T713 1133q133 0 235.5-49T1114 948q177 185 434 185 116 0 206.5-37.5t146-102.5 84-146 28.5-173q0-113-43-228h-735q6-86 58.5-134t150.5-48q112 0 233 88l181-213Q1670-27 1399-27q-253 0-381 174-81-81-186.5-126.5T606-25q-125 0-228 39.5T206 124 99 289.5 61 496zm373 10q0-93 52.5-150T625 299q113 0 186.5 92T885 602q0 92-53 149.5T692 809q-111 0-184.5-92.5T434 506zm828 139h397q8 24 8 60 0 61-38.5 101T1518 846q-83 0-152.5-52T1262 645z"/><glyph unicode="Ÿ" horiz-adv-x="1386" d="M186 1434h428l142-537 432 537h475L862 512 725 0H326l149 555zm338 96l80 293h340l-80-293H524zm449 0l80 293h340l-80-293H973z"/><glyph unicode="ˆ" horiz-adv-x="1024" d="M266 1202l352 338h316l172-338H874l-139 125-207-125H266z"/><glyph unicode="˜" horiz-adv-x="1024" d="M272 1278q58 143 145 219t185 76q84 0 172-62 70-51 105-51 40 0 71.5 29.5t63.5 87.5l182-82q-59-143-145.5-219T866 1200q-84 0-172 62-40 28-62 39.5t-44 11.5q-39 0-70-29.5t-63-87.5z"/><glyph horiz-adv-x="954"/><glyph horiz-adv-x="1909"/><glyph horiz-adv-x="954"/><glyph horiz-adv-x="1909"/><glyph horiz-adv-x="636"/><glyph horiz-adv-x="477"/><glyph horiz-adv-x="318"/><glyph horiz-adv-x="318"/><glyph horiz-adv-x="238"/><glyph horiz-adv-x="381"/><glyph horiz-adv-x="106"/><glyph unicode="‐" horiz-adv-x="854" d="M68 469l92 342h671l-90-342H68z"/><glyph unicode="‑" horiz-adv-x="854" d="M68 469l92 342h671l-90-342H68z"/><glyph unicode="‒" horiz-adv-x="854" d="M68 469l92 342h671l-90-342H68z"/><glyph unicode="–" horiz-adv-x="1077" d="M68 473l90 334h897l-90-334H68z"/><glyph unicode="—" horiz-adv-x="1835" d="M68 473l90 334h1654l-90-334H68z"/><glyph unicode="‘" horiz-adv-x="618" d="M129 705l92 346q53 200 171 293.5T735 1448l17-152q-231-23-269-192h158L532 705H129z"/><glyph unicode="’" horiz-adv-x="618" d="M119 842q119 12 184 59.5t84 132.5H229l109 400h403l-92-347q-54-199-171.5-292.5T135 692z"/><glyph unicode="‚" horiz-adv-x="618" d="M-152-193Q77-170 115 0H-41L66 399h405L379 55q-55-201-172.5-294.5T-135-342z"/><glyph unicode="“" horiz-adv-x="1157" d="M131 702l92 347q54 201 169 294t339 103l17-152q-118-12-181-59.5T485 1102h152L530 702H131zm545 0l92 347q54 201 169 294t339 103l16-152q-117-12-180-59.5t-82-132.5h152l-107-400H676z"/><glyph unicode="”" horiz-adv-x="1157" d="M121 842q117 12 180 59.5t82 132.5H231l107 400h399l-92-347q-54-200-169-293T137 692zm545 0q117 12 180 59.5t82 132.5H776l107 400h399l-92-347q-54-200-169-293T682 692z"/><glyph unicode="„" horiz-adv-x="1157" d="M-152-193Q73-171 111 0H-41L66 399h399L373 55q-36-135-95.5-218t-160-128-252.5-51zm545 0q117 12 180 60T655 0H504l106 399h400L918 55q-36-135-95.5-218t-160-128T410-342z"/><glyph unicode="•" horiz-adv-x="1026" d="M229 643q0 106 46.5 204t136 163 200.5 65q127 0 201-75.5T887 801q0-106-47-204T703.5 434 504 369q-128 0-201.5 75T229 643z"/><glyph unicode="…" horiz-adv-x="1757" d="M-41 0L63 393h400L356 0H-41zm573 0l105 393h399L930 0H532zm574 0l104 393h400L1503 0h-397z"/><glyph horiz-adv-x="381"/><glyph unicode="‹" horiz-adv-x="731" d="M57 500l27 100 446 438 213-196-344-334 162-328L272 51z"/><glyph unicode="›" horiz-adv-x="731" d="M-18 248l344 336-162 327 289 127 217-448-29-98L197 51z"/><glyph horiz-adv-x="477"/><glyph unicode="™" horiz-adv-x="1423" d="M207 1280l41 154h553l-41-154H571L444 803H266l129 477H207zm524-477l168 631h178l84-244 215 244h195l-168-631h-174l98 368-227-249h-6l-93 249-98-368H731z"/><glyph unicode="◼" horiz-adv-x="1105" d="M0 0v1106h1106V0H0z"/><glyph unicode="ﬁ" horiz-adv-x="1472" d="M27 0l215 795H111l84 313h129l6 22q52 200 167 289.5t308 89.5q141 0 248-36l-72-273q-73 25-131 25-59 0-92-25.5t-47-79.5l-6-18h249l-82-307H631L416 0H27zm794 0l297 1108h389L1210 0H821zm318 1208l78 287h405l-78-287h-405z"/><glyph unicode="ﬂ" horiz-adv-x="1472" d="M27 0l215 795H111l84 313h129l6 22q52 200 167 289.5t308 89.5q141 0 248-36l-72-273q-73 25-131 25-59 0-92-25.5t-47-79.5l-6-18h249l-82-307H631L416 0H27zm794 0l402 1495h389L1210 0H821z"/></font>
</defs>
</svg>
