<svg xmlns="http://www.w3.org/2000/svg" viewBox="0 0 215 50.2"><path d="M111.3 0h-18L79.8 50.2h14.1l1.9-7.5H107l1.6 7.5h16.2L111.3 0zm-3 27.3c-1.8 5.5-5.9 6-8.9 4.8 0 0-.2.3-1.2 1.1-1.3 1.1-2.7 2.2-2.7 2.2l-.8-1.7s2.4-.8 3.6-2.3c-1.8-1.5-3.2-3.9-1.9-7.7 1.8-5.5 8.9-11.3 8.9-11.3s4.8 9.5 3 14.9zm-83.8 5.6h-8.7v17.3H0V0h24.5c8.7 0 14.6 5.3 14.6 13.2v6.5c0 8-5.9 13.2-14.6 13.2zM24 14.2c0-2-1.1-3-3.4-3h-4.8v12.2h4.8c2.3 0 3.4-1.1 3.4-3v-6.2zm18.3 36V0h15.8v37.6h19.7v12.6H42.3zm113.2 0l-11.1-17.4-3.5-5.5v22.9h-14.2V0h13.5L151 17.8l3.3 5.4V0h14.2v50.2h-13zm43.1 0l-6.9-18.1-4.2 6.7v11.4h-15.8V0h15.8v21.5L198 0h16.1l-11.4 20.4L215 50.2h-16.4z"/></svg>