<?xml version="1.0" encoding="utf-8"?>
<!-- Generator: Adobe Illustrator 22.0.1, SVG Export Plug-In . SVG Version: 6.00 Build 0)  -->
<svg version="1.1" id="Layer_1" xmlns="http://www.w3.org/2000/svg" xmlns:xlink="http://www.w3.org/1999/xlink" x="0px" y="0px"
	 viewBox="0 0 215 50.2" style="enable-background:new 0 0 215 50.2;" xml:space="preserve">
<path d="M111.3,0h-18L79.8,50.2h14.1l1.9-7.5H107l1.6,7.5h16.2L111.3,0z M108.3,27.3c-1.8,5.5-5.9,6-8.9,4.8c0,0-0.2,0.3-1.2,1.1
	c-1.3,1.1-2.7,2.2-2.7,2.2l-0.8-1.7c0,0,2.4-0.8,3.6-2.3c-1.8-1.5-3.2-3.9-1.9-7.7c1.8-5.5,8.9-11.3,8.9-11.3S110.1,21.9,108.3,27.3
	z"/>
<path d="M24.5,32.9h-8.7v17.3H0V0h24.5c8.7,0,14.6,5.3,14.6,13.2v6.5C39.1,27.7,33.2,32.9,24.5,32.9z M24,14.2c0-2-1.1-3-3.4-3h-4.8
	v12.2h4.8c2.3,0,3.4-1.1,3.4-3V14.2z"/>
<path d="M42.3,50.2V0h15.8v37.6h19.7v12.6C77.8,50.2,42.3,50.2,42.3,50.2z"/>
<path d="M155.5,50.2l-11.1-17.4l-3.5-5.5v22.9h-14.2V0h13.5L151,17.8l3.3,5.4V0h14.2v50.2H155.5z"/>
<path d="M198.6,50.2l-6.9-18.1l-4.2,6.7v11.4h-15.8V0h15.8v21.5L198,0h16.1l-11.4,20.4L215,50.2H198.6z"/>
</svg>
